{
  "accessors": [
    {
      "bufferView": 2,
      "componentType": 5126,
      "count": 867,
      "max": [
        0.2263679951429367,
        -0.002768110018223524,
        -0.37911298871040344
      ],
      "min": [
        -0.13357700407505035,
        -0.3496220111846924,
        -0.6040250062942505
      ],
      "type": "VEC3"
    },
    {
      "bufferView": 2,
      "byteOffset": 10404,
      "componentType": 5126,
      "count": 867,
      "max": [
        1.0,
        0.9974742531776428,
        0.9208792448043823
      ],
      "min": [
        -1.0,
        -0.9931944608688354,
        -0.996965765953064
      ],
      "type": "VEC3"
    },
    {
      "bufferView": 3,
      "componentType": 5126,
      "count": 867,
      "max": [
        0.9989591836929321,
        0.9999649524688721,
        0.9929808974266052,
        1.0
      ],
      "min": [
        -0.9990313053131104,
        -0.946099579334259,
        -0.9473118185997009,
        1.0
      ],
      "type": "VEC4"
    },
    {
      "bufferView": 1,
      "componentType": 5126,
      "count": 867,
      "max": [
        0.46547698974609375,
        0.29036200046539307
      ],
      "min": [
        0.02200309932231903,
        0.01909100078046322
      ],
      "type": "VEC2"
    },
    {
      "bufferView": 0,
      "componentType": 5125,
      "count": 4800,
      "type": "SCALAR"
    },
    {
      "bufferView": 2,
      "byteOffset": 20808,
      "componentType": 5126,
      "count": 228,
      "max": [
        0.1458909958600998,
        0.0640915036201477,
        -0.289139986038208
      ],
      "min": [
        -0.051312100142240524,
        -0.10924799740314484,
        -0.39093801379203796
      ],
      "type": "VEC3"
    },
    {
      "bufferView": 2,
      "byteOffset": 23544,
      "componentType": 5126,
      "count": 228,
      "max": [
        0.9999191164970398,
        0.9980612397193909,
        0.9996259808540344
      ],
      "min": [
        -0.9999191164970398,
        -0.4454639256000519,
        -0.8952998518943787
      ],
      "type": "VEC3"
    },
    {
      "bufferView": 3,
      "byteOffset": 13872,
      "componentType": 5126,
      "count": 228,
      "max": [
        0.9845060706138611,
        0.8138128519058228,
        0.9999298453330994,
        1.0
      ],
      "min": [
        -0.022229893133044243,
        -0.9963204264640808,
        -0.9674687385559082,
        1.0
      ],
      "type": "VEC4"
    },
    {
      "bufferView": 1,
      "byteOffset": 6936,
      "componentType": 5126,
      "count": 228,
      "max": [
        0.8187950253486633,
        0.6525999903678894
      ],
      "min": [
        0.6707710027694702,
        0.17210499942302704
      ],
      "type": "VEC2"
    },
    {
      "bufferView": 0,
      "byteOffset": 19200,
      "componentType": 5125,
      "count": 912,
      "type": "SCALAR"
    },
    {
      "bufferView": 2,
      "byteOffset": 26280,
      "componentType": 5126,
      "count": 5749,
      "max": [
        0.23074300587177277,
        -0.025484200567007065,
        -0.3331109881401062
      ],
      "min": [
        -0.13616399466991425,
        -0.37428298592567444,
        -0.5407649874687195
      ],
      "type": "VEC3"
    },
    {
      "bufferView": 2,
      "byteOffset": 95268,
      "componentType": 5126,
      "count": 5749,
      "max": [
        1.0,
        0.9201809763908386,
        0.995506763458252
      ],
      "min": [
        -1.0,
        -0.920181393623352,
        -0.9243748784065247
      ],
      "type": "VEC3"
    },
    {
      "bufferView": 3,
      "byteOffset": 17520,
      "componentType": 5126,
      "count": 5749,
      "max": [
        1.0,
        0.9133824110031128,
        0.9857744574546814,
        1.0
      ],
      "min": [
        -0.476707398891449,
        -0.7996921539306641,
        -0.9899393916130066,
        1.0
      ],
      "type": "VEC4"
    },
    {
      "bufferView": 1,
      "byteOffset": 8760,
      "componentType": 5126,
      "count": 5749,
      "max": [
        0.4427109956741333,
        0.7410939931869507
      ],
      "min": [
        0.02200309932231903,
        0.422789990901947
      ],
      "type": "VEC2"
    },
    {
      "bufferView": 0,
      "byteOffset": 22848,
      "componentType": 5125,
      "count": 18000,
      "type": "SCALAR"
    },
    {
      "bufferView": 2,
      "byteOffset": 164256,
      "componentType": 5126,
      "count": 493,
      "max": [
        0.20905600488185883,
        -0.029108600690960884,
        -0.3081139922142029
      ],
      "min": [
        -0.11447799950838089,
        -0.33970698714256287,
        -0.4776490032672882
      ],
      "type": "VEC3"
    },
    {
      "bufferView": 2,
      "byteOffset": 170172,
      "componentType": 5126,
      "count": 493,
      "max": [
        1.0,
        0.8952998518943787,
        0.9848892092704773
      ],
      "min": [
        -1.0,
        -0.8952998518943787,
        -0.8952998518943787
      ],
      "type": "VEC3"
    },
    {
      "bufferView": 3,
      "byteOffset": 109504,
      "componentType": 5126,
      "count": 493,
      "max": [
        0.8552767634391785,
        0.9995073080062866,
        0.9790032505989075,
        1.0
      ],
      "min": [
        -0.8911269903182983,
        -0.9602802395820618,
        -0.9931803345680237,
        1.0
      ],
      "type": "VEC4"
    },
    {
      "bufferView": 1,
      "byteOffset": 54752,
      "componentType": 5126,
      "count": 493,
      "max": [
        0.7796260118484497,
        0.35391300916671753
      ],
      "min": [
        0.47092700004577637,
        0.01909100078046322
      ],
      "type": "VEC2"
    },
    {
      "bufferView": 0,
      "byteOffset": 94848,
      "componentType": 5125,
      "count": 1662,
      "type": "SCALAR"
    },
    {
      "bufferView": 2,
      "byteOffset": 176088,
      "componentType": 5126,
      "count": 202,
      "max": [
        0.09066610038280487,
        0.04108230024576187,
        -0.8920980095863342
      ],
      "min": [
        0.08783300220966339,
        0.021017199382185936,
        -0.9035339951515198
      ],
      "type": "VEC3"
    },
    {
      "bufferView": 2,
      "byteOffset": 178512,
      "componentType": 5126,
      "count": 202,
      "max": [
        0.9999995231628418,
        0.9912395477294922,
        0.9809816479682922
      ],
      "min": [
        -0.9597901105880737,
        -0.7763974666595459,
        -0.9813107848167419
      ],
      "type": "VEC3"
    },
    {
      "bufferView": 3,
      "byteOffset": 117392,
      "componentType": 5126,
      "count": 202,
      "max": [
        0.9999780058860779,
        0.45117658376693726,
        0.7453646063804626,
        1.0
      ],
      "min": [
        -0.9954491853713989,
        -0.9786068201065063,
        -0.9686828255653381,
        1.0
      ],
      "type": "VEC4"
    },
    {
      "bufferView": 1,
      "byteOffset": 58696,
      "componentType": 5126,
      "count": 202,
      "max": [
        0.22163499891757965,
        0.024628400802612305
      ],
      "min": [
        0.2160540074110031,
        0.01909100078046322
      ],
      "type": "VEC2"
    },
    {
      "bufferView": 0,
      "byteOffset": 101496,
      "componentType": 5125,
      "count": 528,
      "type": "SCALAR"
    },
    {
      "bufferView": 2,
      "byteOffset": 180936,
      "componentType": 5126,
      "count": 202,
      "max": [
        0.008687430061399937,
        0.04108230024576187,
        -0.8920980095863342
      ],
      "min": [
        0.005854339804500341,
        0.021017199382185936,
        -0.9035339951515198
      ],
      "type": "VEC3"
    },
    {
      "bufferView": 2,
      "byteOffset": 183360,
      "componentType": 5126,
      "count": 202,
      "max": [
        0.9999995231628418,
        0.9912395477294922,
        0.9809816479682922
      ],
      "min": [
        -0.9597901105880737,
        -0.7763974666595459,
        -0.9813107848167419
      ],
      "type": "VEC3"
    },
    {
      "bufferView": 3,
      "byteOffset": 120624,
      "componentType": 5126,
      "count": 202,
      "max": [
        0.9999808073043823,
        0.4510992467403412,
        0.7452371716499329,
        1.0
      ],
      "min": [
        -0.9954286813735962,
        -0.9785590171813965,
        -0.9690581560134888,
        1.0
      ],
      "type": "VEC4"
    },
    {
      "bufferView": 1,
      "byteOffset": 60312,
      "componentType": 5126,
      "count": 202,
      "max": [
        0.21584199368953705,
        0.024628499522805214
      ],
      "min": [
        0.2102610021829605,
        0.01909100078046322
      ],
      "type": "VEC2"
    },
    {
      "bufferView": 0,
      "byteOffset": 103608,
      "componentType": 5125,
      "count": 528,
      "type": "SCALAR"
    },
    {
      "bufferView": 2,
      "byteOffset": 185784,
      "componentType": 5126,
      "count": 202,
      "max": [
        0.09066610038280487,
        0.04108240082859993,
        -0.3488210141658783
      ],
      "min": [
        0.08783300220966339,
        0.021017199382185936,
        -0.36025699973106384
      ],
      "type": "VEC3"
    },
    {
      "bufferView": 2,
      "byteOffset": 188208,
      "componentType": 5126,
      "count": 202,
      "max": [
        0.9999995231628418,
        0.9912369847297668,
        0.9813132286071777
      ],
      "min": [
        -0.9597882628440857,
        -0.77640300989151,
        -0.980973482131958
      ],
      "type": "VEC3"
    },
    {
      "bufferView": 3,
      "byteOffset": 123856,
      "componentType": 5126,
      "count": 202,
      "max": [
        0.9987879991531372,
        0.9996328353881836,
        0.7500009536743164,
        1.0
      ],
      "min": [
        -0.9999980330467224,
        -0.3426426649093628,
        -0.9857507348060608,
        1.0
      ],
      "type": "VEC4"
    },
    {
      "bufferView": 1,
      "byteOffset": 61928,
      "componentType": 5126,
      "count": 202,
      "max": [
        0.23695799708366394,
        0.02325589954853058
      ],
      "min": [
        0.23053500056266785,
        0.01909100078046322
      ],
      "type": "VEC2"
    },
    {
      "bufferView": 0,
      "byteOffset": 105720,
      "componentType": 5125,
      "count": 528,
      "type": "SCALAR"
    },
    {
      "bufferView": 2,
      "byteOffset": 190632,
      "componentType": 5126,
      "count": 202,
      "max": [
        0.008687430061399937,
        0.04108240082859993,
        -0.3488210141658783
      ],
      "min": [
        0.005854339804500341,
        0.021017199382185936,
        -0.36025699973106384
      ],
      "type": "VEC3"
    },
    {
      "bufferView": 2,
      "byteOffset": 193056,
      "componentType": 5126,
      "count": 202,
      "max": [
        0.9999995231628418,
        0.9912369847297668,
        0.9813132286071777
      ],
      "min": [
        -0.9597882628440857,
        -0.77640300989151,
        -0.980973482131958
      ],
      "type": "VEC3"
    },
    {
      "bufferView": 3,
      "byteOffset": 127088,
      "componentType": 5126,
      "count": 202,
      "max": [
        0.9987894892692566,
        0.9996346235275269,
        0.7498986721038818,
        1.0
      ],
      "min": [
        -0.9999979734420776,
        -0.34308770298957825,
        -0.9857444167137146,
        1.0
      ],
      "type": "VEC4"
    },
    {
      "bufferView": 1,
      "byteOffset": 63544,
      "componentType": 5126,
      "count": 202,
      "max": [
        0.22826899588108063,
        0.02325589954853058
      ],
      "min": [
        0.22184699773788452,
        0.01909100078046322
      ],
      "type": "VEC2"
    },
    {
      "bufferView": 0,
      "byteOffset": 107832,
      "componentType": 5125,
      "count": 528,
      "type": "SCALAR"
    },
    {
      "bufferView": 2,
      "byteOffset": 195480,
      "componentType": 5126,
      "count": 220,
      "max": [
        0.13902699947357178,
        -0.5309439897537231,
        0.3868190050125122
      ],
      "min": [
        0.06540930271148682,
        -0.5700380206108093,
        0.30094701051712036
      ],
      "type": "VEC3"
    },
    {
      "bufferView": 2,
      "byteOffset": 198120,
      "componentType": 5126,
      "count": 220,
      "max": [
        0.9998682141304016,
        1.0,
        0.9998819828033447
      ],
      "min": [
        -0.9998691082000732,
        -1.0,
        -0.9998453855514526
      ],
      "type": "VEC3"
    },
    {
      "bufferView": 3,
      "byteOffset": 130320,
      "componentType": 5126,
      "count": 220,
      "max": [
        0.7991490960121155,
        0.9999350309371948,
        0.9998777508735657,
        1.0
      ],
      "min": [
        -0.6615456938743591,
        -0.9990194439888,
        -0.0581381730735302,
        1.0
      ],
      "type": "VEC4"
    },
    {
      "bufferView": 1,
      "byteOffset": 65160,
      "componentType": 5126,
      "count": 220,
      "max": [
        0.616254985332489,
        0.055275700986385345
      ],
      "min": [
        0.18419499695301056,
        0.01909100078046322
      ],
      "type": "VEC2"
    },
    {
      "bufferView": 0,
      "byteOffset": 109944,
      "componentType": 5125,
      "count": 672,
      "type": "SCALAR"
    },
    {
      "bufferView": 2,
      "byteOffset": 200760,
      "componentType": 5126,
      "count": 393,
      "max": [
        0.11644099652767181,
        -0.5338280200958252,
        0.3032749891281128
      ],
      "min": [
        0.0839368999004364,
        -0.5663319826126099,
        0.26583901047706604
      ],
      "type": "VEC3"
    },
    {
      "bufferView": 2,
      "byteOffset": 205476,
      "componentType": 5126,
      "count": 393,
      "max": [
        0.9992287755012512,
        0.9992288947105408,
        0.9992420077323914
      ],
      "min": [
        -0.9992287755012512,
        -0.9992302656173706,
        -1.0
      ],
      "type": "VEC3"
    },
    {
      "bufferView": 3,
      "byteOffset": 133840,
      "componentType": 5126,
      "count": 393,
      "max": [
        0.9998490810394287,
        1.0,
        0.9995601773262024,
        1.0
      ],
      "min": [
        -0.9998482465744019,
        -0.9994736909866333,
        -0.9992480874061584,
        1.0
      ],
      "type": "VEC4"
    },
    {
      "bufferView": 1,
      "byteOffset": 66920,
      "componentType": 5126,
      "count": 393,
      "max": [
        0.1826229989528656,
        0.059213001281023026
      ],
      "min": [
        0.02200309932231903,
        0.01909100078046322
      ],
      "type": "VEC2"
    },
    {
      "bufferView": 0,
      "byteOffset": 112632,
      "componentType": 5125,
      "count": 1092,
      "type": "SCALAR"
    },
    {
      "bufferView": 2,
      "byteOffset": 210192,
      "componentType": 5126,
      "count": 590,
      "max": [
        0.08137360215187073,
        -0.5448020100593567,
        0.8150609731674194
      ],
      "min": [
        0.016154799610376358,
        -0.5553079843521118,
        0.37964001297950745
      ],
      "type": "VEC3"
    },
    {
      "bufferView": 2,
      "byteOffset": 217272,
      "componentType": 5126,
      "count": 590,
      "max": [
        0.9999203681945801,
        1.0,
        1.0
      ],
      "min": [
        -0.9999078512191772,
        -1.0,
        -0.9415193796157837
      ],
      "type": "VEC3"
    },
    {
      "bufferView": 3,
      "byteOffset": 140128,
      "componentType": 5126,
      "count": 590,
      "max": [
        0.9999841451644897,
        0.999918520450592,
        0.5689991116523743,
        1.0
      ],
      "min": [
        -0.9998993873596191,
        -0.9959967732429504,
        -0.7017785906791687,
        1.0
      ],
      "type": "VEC4"
    },
    {
      "bufferView": 1,
      "byteOffset": 70064,
      "componentType": 5126,
      "count": 590,
      "max": [
        0.8460410237312317,
        0.48717200756073
      ],
      "min": [
        0.8031070232391357,
        0.2740350067615509
      ],
      "type": "VEC2"
    },
    {
      "bufferView": 0,
      "byteOffset": 117000,
      "componentType": 5125,
      "count": 3120,
      "type": "SCALAR"
    },
    {
      "bufferView": 2,
      "byteOffset": 224352,
      "componentType": 5126,
      "count": 590,
      "max": [
        0.18690800666809082,
        -0.5448020100593567,
        0.8150609731674194
      ],
      "min": [
        0.12168999761343002,
        -0.5553079843521118,
        0.37964001297950745
      ],
      "type": "VEC3"
    },
    {
      "bufferView": 2,
      "byteOffset": 231432,
      "componentType": 5126,
      "count": 590,
      "max": [
        0.9999078512191772,
        1.0,
        1.0
      ],
      "min": [
        -0.9999203681945801,
        -1.0,
        -0.9415257573127747
      ],
      "type": "VEC3"
    },
    {
      "bufferView": 3,
      "byteOffset": 149568,
      "componentType": 5126,
      "count": 590,
      "max": [
        0.9999955892562866,
        0.9999302625656128,
        0.6806333065032959,
        1.0
      ],
      "min": [
        -0.9999804496765137,
        -0.9976223707199097,
        -0.23091945052146912,
        1.0
      ],
      "type": "VEC4"
    },
    {
      "bufferView": 1,
      "byteOffset": 74784,
      "componentType": 5126,
      "count": 590,
      "max": [
        0.8574540019035339,
        0.7233790159225464
      ],
      "min": [
        0.7860509753227234,
        0.51664799451828
      ],
      "type": "VEC2"
    },
    {
      "bufferView": 0,
      "byteOffset": 129480,
      "componentType": 5125,
      "count": 3120,
      "type": "SCALAR"
    },
    {
      "bufferView": 2,
      "byteOffset": 238512,
      "componentType": 5126,
      "count": 1896,
      "max": [
        0.1430860012769699,
        -0.5398539900779724,
        1.0
      ],
      "min": [
        0.12268300354480743,
        -0.5602570176124573,
        0.8152120113372803
      ],
      "type": "VEC3"
    },
    {
      "bufferView": 2,
      "byteOffset": 261264,
      "componentType": 5126,
      "count": 1896,
      "max": [
        1.0,
        1.0,
        1.0
      ],
      "min": [
        -1.0,
        -1.0,
        -1.0
      ],
      "type": "VEC3"
    },
    {
      "bufferView": 3,
      "byteOffset": 159008,
      "componentType": 5126,
      "count": 1896,
      "max": [
        0.9999535083770752,
        0.9996820688247681,
        0.9999811053276062,
        1.0
      ],
      "min": [
        -0.9998642206192017,
        -0.9997434616088867,
        -0.38345810770988464,
        -1.0
      ],
      "type": "VEC4"
    },
    {
      "bufferView": 1,
      "byteOffset": 79504,
      "componentType": 5126,
      "count": 1896,
      "max": [
        0.25547701120376587,
        0.8002560138702393
      ],
      "min": [
        0.04517329856753349,
        0.6530299782752991
      ],
      "type": "VEC2"
    },
    {
      "bufferView": 0,
      "byteOffset": 141960,
      "componentType": 5125,
      "count": 5952,
      "type": "SCALAR"
    },
    {
      "bufferView": 2,
      "byteOffset": 284016,
      "componentType": 5126,
      "count": 1920,
      "max": [
        0.08142489939928055,
        -0.5398539900779724,
        1.0
      ],
      "min": [
        0.061021801084280014,
        -0.5602570176124573,
        0.8152120113372803
      ],
      "type": "VEC3"
    },
    {
      "bufferView": 2,
      "byteOffset": 307056,
      "componentType": 5126,
      "count": 1920,
      "max": [
        1.0,
        1.0,
        1.0
      ],
      "min": [
        -1.0,
        -1.0,
        -1.0
      ],
      "type": "VEC3"
    },
    {
      "bufferView": 3,
      "byteOffset": 189344,
      "componentType": 5126,
      "count": 1920,
      "max": [
        0.9994405508041382,
        0.9999955892562866,
        0.20183776319026947,
        1.0
      ],
      "min": [
        -0.9999597668647766,
        -0.9992165565490723,
        -0.9999979138374329,
        -1.0
      ],
      "type": "VEC4"
    },
    {
      "bufferView": 1,
      "byteOffset": 94672,
      "componentType": 5126,
      "count": 1920,
      "max": [
        0.5322089791297913,
        0.3572930097579956
      ],
      "min": [
        0.29714998602867126,
        0.2839590013027191
      ],
      "type": "VEC2"
    },
    {
      "bufferView": 0,
      "byteOffset": 165768,
      "componentType": 5125,
      "count": 5952,
      "type": "SCALAR"
    },
    {
      "bufferView": 2,
      "byteOffset": 330096,
      "componentType": 5126,
      "count": 3971,
      "max": [
        0.4520849883556366,
        -0.44926100969314575,
        0.2704870104789734
      ],
      "min": [
        -0.4520849883556366,
        -0.5754150152206421,
        -0.6966320276260376
      ],
      "type": "VEC3"
    },
    {
      "bufferView": 2,
      "byteOffset": 377748,
      "componentType": 5126,
      "count": 3971,
      "max": [
        0.9999284744262695,
        0.9999764561653137,
        0.9997152090072632
      ],
      "min": [
        -0.9999103546142578,
        -0.9999763369560242,
        -0.9997150897979736
      ],
      "type": "VEC3"
    },
    {
      "bufferView": 3,
      "byteOffset": 220064,
      "componentType": 5126,
      "count": 3971,
      "max": [
        0.9998666048049927,
        0.9999819993972778,
        0.9995657801628113,
        1.0
      ],
      "min": [
        -0.99997478723526,
        -0.9999362826347351,
        -0.9998292326927185,
        1.0
      ],
      "type": "VEC4"
    },
    {
      "bufferView": 1,
      "byteOffset": 110032,
      "componentType": 5126,
      "count": 3971,
      "max": [
        0.880765974521637,
        0.7276690006256104
      ],
      "min": [
        0.8515110015869141,
        0.05161910131573677
      ],
      "type": "VEC2"
    },
    {
      "bufferView": 0,
      "byteOffset": 189576,
      "componentType": 5125,
      "count": 22440,
      "type": "SCALAR"
    },
    {
      "bufferView": 2,
      "byteOffset": 425400,
      "componentType": 5126,
      "count": 2012,
      "max": [
        0.06895089894533157,
        -0.35215601325035095,
        -0.6764119863510132
      ],
      "min": [
        0.025627799332141876,
        -0.4586769938468933,
        -0.7523109912872314
      ],
      "type": "VEC3"
    },
    {
      "bufferView": 2,
      "byteOffset": 449544,
      "componentType": 5126,
      "count": 2012,
      "max": [
        0.9982194900512695,
        0.9096388816833496,
        0.9963641166687012
      ],
      "min": [
        -0.9982194900512695,
        -0.9971486330032349,
        -0.9981676340103149
      ],
      "type": "VEC3"
    },
    {
      "bufferView": 3,
      "byteOffset": 283600,
      "componentType": 5126,
      "count": 2012,
      "max": [
        0.9999968409538269,
        0.4750089645385742,
        0.9973134398460388,
        1.0
      ],
      "min": [
        -0.9994903802871704,
        -0.9984235167503357,
        -0.9096459746360779,
        1.0
      ],
      "type": "VEC4"
    },
    {
      "bufferView": 1,
      "byteOffset": 141800,
      "componentType": 5126,
      "count": 2012,
      "max": [
        0.6196820139884949,
        0.806128978729248
      ],
      "min": [
        0.02200309932231903,
        0.01909100078046322
      ],
      "type": "VEC2"
    },
    {
      "bufferView": 0,
      "byteOffset": 279336,
      "componentType": 5125,
      "count": 6960,
      "type": "SCALAR"
    },
    {
      "bufferView": 2,
      "byteOffset": 473688,
      "componentType": 5126,
      "count": 186,
      "max": [
        0.09607940167188644,
        0.08788219839334488,
        -0.3638089895248413
      ],
      "min": [
        0.08088169991970062,
        0.07205549627542496,
        -0.37136799097061157
      ],
      "type": "VEC3"
    },
    {
      "bufferView": 2,
      "byteOffset": 475920,
      "componentType": 5126,
      "count": 186,
      "max": [
        0.9976824522018433,
        0.9837717413902283,
        0.9886647462844849
      ],
      "min": [
        -0.9976825714111328,
        -0.9957953691482544,
        -0.9886758923530579
      ],
      "type": "VEC3"
    },
    {
      "bufferView": 3,
      "byteOffset": 315792,
      "componentType": 5126,
      "count": 186,
      "max": [
        0.9099474549293518,
        0.9934284090995789,
        0.9823973178863525,
        1.0
      ],
      "min": [
        -0.9894533157348633,
        -0.999978244304657,
        -0.9973495602607727,
        -1.0
      ],
      "type": "VEC4"
    },
    {
      "bufferView": 1,
      "byteOffset": 157896,
      "componentType": 5126,
      "count": 186,
      "max": [
        0.10521099716424942,
        0.03308809921145439
      ],
      "min": [
        0.04517329856753349,
        0.01909100078046322
      ],
      "type": "VEC2"
    },
    {
      "bufferView": 0,
      "byteOffset": 307176,
      "componentType": 5125,
      "count": 984,
      "type": "SCALAR"
    },
    {
      "bufferView": 2,
      "byteOffset": 478152,
      "componentType": 5126,
      "count": 1229,
      "max": [
        0.12310799956321716,
        0.11375900357961655,
        -0.34569498896598816
      ],
      "min": [
        -0.028528999537229538,
        0.03704940155148506,
        -0.3723439872264862
      ],
      "type": "VEC3"
    },
    {
      "bufferView": 2,
      "byteOffset": 492900,
      "componentType": 5126,
      "count": 1229,
      "max": [
        1.0,
        0.9900342226028442,
        0.9997012615203857
      ],
      "min": [
        -1.0,
        -0.9887217879295349,
        -0.9889192581176758
      ],
      "type": "VEC3"
    },
    {
      "bufferView": 3,
      "byteOffset": 318768,
      "componentType": 5126,
      "count": 1229,
      "max": [
        0.19495227932929993,
        0.9931221604347229,
        0.9999986290931702,
        1.0
      ],
      "min": [
        -0.9999994039535522,
        -0.8383393287658691,
        -0.9997211694717407,
        1.0
      ],
      "type": "VEC4"
    },
    {
      "bufferView": 1,
      "byteOffset": 159384,
      "componentType": 5126,
      "count": 1229,
      "max": [
        0.821927011013031,
        0.5243620276451111
      ],
      "min": [
        0.2710829973220825,
        0.0677855983376503
      ],
      "type": "VEC2"
    },
    {
      "bufferView": 0,
      "byteOffset": 311112,
      "componentType": 5125,
      "count": 4746,
      "type": "SCALAR"
    },
    {
      "bufferView": 2,
      "byteOffset": 507648,
      "componentType": 5126,
      "count": 186,
      "max": [
        0.013426300138235092,
        0.08788219839334488,
        -0.3638089895248413
      ],
      "min": [
        -0.001771409995853901,
        0.07205549627542496,
        -0.37136799097061157
      ],
      "type": "VEC3"
    },
    {
      "bufferView": 2,
      "byteOffset": 509880,
      "componentType": 5126,
      "count": 186,
      "max": [
        0.997682511806488,
        0.9837717413902283,
        0.9886647462844849
      ],
      "min": [
        -0.9976823329925537,
        -0.9957953691482544,
        -0.9886758923530579
      ],
      "type": "VEC3"
    },
    {
      "bufferView": 3,
      "byteOffset": 338432,
      "componentType": 5126,
      "count": 186,
      "max": [
        0.901404857635498,
        0.99726802110672,
        0.9744071960449219,
        1.0
      ],
      "min": [
        -0.9272879958152771,
        -0.9999781250953674,
        -0.9916079640388489,
        -1.0
      ],
      "type": "VEC4"
    },
    {
      "bufferView": 1,
      "byteOffset": 169216,
      "componentType": 5126,
      "count": 186,
      "max": [
        0.4616140127182007,
        0.03294869884848595
      ],
      "min": [
        0.08861750364303589,
        0.01909100078046322
      ],
      "type": "VEC2"
    },
    {
      "bufferView": 0,
      "byteOffset": 330096,
      "componentType": 5125,
      "count": 984,
      "type": "SCALAR"
    },
    {
      "bufferView": 2,
      "byteOffset": 512112,
      "componentType": 5126,
      "count": 186,
      "max": [
        0.09607940167188644,
        0.08788219839334488,
        -0.8809869885444641
      ],
      "min": [
        0.08088169991970062,
        0.07205549627542496,
        -0.8885449767112732
      ],
      "type": "VEC3"
    },
    {
      "bufferView": 2,
      "byteOffset": 514344,
      "componentType": 5126,
      "count": 186,
      "max": [
        0.9976824522018433,
        0.9837713837623596,
        0.9886872172355652
      ],
      "min": [
        -0.9976829886436462,
        -0.9957951307296753,
        -0.9886646270751953
      ],
      "type": "VEC3"
    },
    {
      "bufferView": 3,
      "byteOffset": 341408,
      "componentType": 5126,
      "count": 186,
      "max": [
        0.9937042593955994,
        0.9979230761528015,
        0.9830076098442078,
        1.0
      ],
      "min": [
        -0.8140170574188232,
        -0.977917492389679,
        -0.9971504807472229,
        -1.0
      ],
      "type": "VEC4"
    },
    {
      "bufferView": 1,
      "byteOffset": 170704,
      "componentType": 5126,
      "count": 186,
      "max": [
        0.13411399722099304,
        0.032981500029563904
      ],
      "min": [
        0.07413619756698608,
        0.01909100078046322
      ],
      "type": "VEC2"
    },
    {
      "bufferView": 0,
      "byteOffset": 334032,
      "componentType": 5125,
      "count": 984,
      "type": "SCALAR"
    },
    {
      "bufferView": 2,
      "byteOffset": 516576,
      "componentType": 5126,
      "count": 1229,
      "max": [
        0.12258300185203552,
        0.11375900357961655,
        -0.8801069855690002
      ],
      "min": [
        -0.02905379980802536,
        0.03704940155148506,
        -0.9067569971084595
      ],
      "type": "VEC3"
    },
    {
      "bufferView": 2,
      "byteOffset": 531324,
      "componentType": 5126,
      "count": 1229,
      "max": [
        1.0,
        0.9900342226028442,
        0.988917887210846
      ],
      "min": [
        -1.0,
        -0.9887270927429199,
        -0.9997007846832275
      ],
      "type": "VEC3"
    },
    {
      "bufferView": 3,
      "byteOffset": 344384,
      "componentType": 5126,
      "count": 1229,
      "max": [
        0.23910143971443176,
        0.9664158225059509,
        0.9997712969779968,
        1.0
      ],
      "min": [
        -0.9998745918273926,
        -0.9537302851676941,
        -0.996744692325592,
        1.0
      ],
      "type": "VEC4"
    },
    {
      "bufferView": 1,
      "byteOffset": 172192,
      "componentType": 5126,
      "count": 1229,
      "max": [
        0.563808023929596,
        0.3960149884223938
      ],
      "min": [
        0.2768760025501251,
        0.07874239981174469
      ],
      "type": "VEC2"
    },
    {
      "bufferView": 0,
      "byteOffset": 337968,
      "componentType": 5125,
      "count": 4746,
      "type": "SCALAR"
    },
    {
      "bufferView": 2,
      "byteOffset": 546072,
      "componentType": 5126,
      "count": 186,
      "max": [
        0.013426300138235092,
        0.08788219839334488,
        -0.8809869885444641
      ],
      "min": [
        -0.001771409995853901,
        0.07205549627542496,
        -0.8885449767112732
      ],
      "type": "VEC3"
    },
    {
      "bufferView": 2,
      "byteOffset": 548304,
      "componentType": 5126,
      "count": 186,
      "max": [
        0.9976825714111328,
        0.9837715029716492,
        0.9886872172355652
      ],
      "min": [
        -0.9976828694343567,
        -0.9957951307296753,
        -0.9886646270751953
      ],
      "type": "VEC3"
    },
    {
      "bufferView": 3,
      "byteOffset": 364048,
      "componentType": 5126,
      "count": 186,
      "max": [
        0.9999766945838928,
        0.9979227185249329,
        0.9831197261810303,
        1.0
      ],
      "min": [
        -0.8140204548835754,
        -0.9779108762741089,
        -0.997166097164154,
        -1.0
      ],
      "type": "VEC4"
    },
    {
      "bufferView": 1,
      "byteOffset": 182024,
      "componentType": 5126,
      "count": 186,
      "max": [
        0.18624700605869293,
        0.03298160061240196
      ],
      "min": [
        0.05965470150113106,
        0.01909100078046322
      ],
      "type": "VEC2"
    },
    {
      "bufferView": 0,
      "byteOffset": 356952,
      "componentType": 5125,
      "count": 984,
      "type": "SCALAR"
    },
    {
      "bufferView": 2,
      "byteOffset": 550536,
      "componentType": 5126,
      "count": 1924,
      "max": [
        0.14692699909210205,
        0.45503199100494385,
        -0.35843101143836975
      ],
      "min": [
        -0.05234479904174805,
        0.09680149704217911,
        -0.8962200284004211
      ],
      "type": "VEC3"
    },
    {
      "bufferView": 2,
      "byteOffset": 573624,
      "componentType": 5126,
      "count": 1924,
      "max": [
        0.9999986290931702,
        0.9999988675117493,
        0.9893742203712463
      ],
      "min": [
        -0.9999986290931702,
        -0.9999993443489075,
        -0.9894066452980042
      ],
      "type": "VEC3"
    },
    {
      "bufferView": 3,
      "byteOffset": 367024,
      "componentType": 5126,
      "count": 1924,
      "max": [
        0.9866398572921753,
        0.9985796213150024,
        0.9999853372573853,
        1.0
      ],
      "min": [
        -0.9997529983520508,
        -0.9998405575752258,
        -0.9999983310699463,
        -1.0
      ],
      "type": "VEC4"
    },
    {
      "bufferView": 1,
      "byteOffset": 183512,
      "componentType": 5126,
      "count": 1924,
      "max": [
        0.8892689943313599,
        0.9933509826660156
      ],
      "min": [
        0.10100899636745453,
        0.813605010509491
      ],
      "type": "VEC2"
    },
    {
      "bufferView": 0,
      "byteOffset": 360888,
      "componentType": 5125,
      "count": 7524,
      "type": "SCALAR"
    },
    {
      "bufferView": 2,
      "byteOffset": 596712,
      "componentType": 5126,
      "count": 1535,
      "max": [
        -0.0013863800559192896,
        0.5754150152206421,
        -0.24789999425411224
      ],
      "min": [
        -0.01943499967455864,
        0.01606599986553192,
        -1.0
      ],
      "type": "VEC3"
    },
    {
      "bufferView": 2,
      "byteOffset": 615132,
      "componentType": 5126,
      "count": 1535,
      "max": [
        1.0,
        0.9999996423721313,
        0.9995367527008057
      ],
      "min": [
        -1.0,
        -1.0,
        -0.9994595050811768
      ],
      "type": "VEC3"
    },
    {
      "bufferView": 3,
      "byteOffset": 397808,
      "componentType": 5126,
      "count": 1535,
      "max": [
        0.9999997615814209,
        0.9999507069587708,
        0.9998199939727783,
        1.0
      ],
      "min": [
        -0.9999899864196777,
        -0.9999428987503052,
        -0.9994555711746216,
        1.0
      ],
      "type": "VEC4"
    },
    {
      "bufferView": 1,
      "byteOffset": 198904,
      "componentType": 5126,
      "count": 1535,
      "max": [
        0.9239810109138489,
        0.7348060011863708
      ],
      "min": [
        0.8905900120735168,
        0.014039400033652782
      ],
      "type": "VEC2"
    },
    {
      "bufferView": 0,
      "byteOffset": 390984,
      "componentType": 5125,
      "count": 8520,
      "type": "SCALAR"
    },
    {
      "bufferView": 2,
      "byteOffset": 633552,
      "componentType": 5126,
      "count": 1535,
      "max": [
        0.11945799738168716,
        0.5754150152206421,
        -0.24789999425411224
      ],
      "min": [
        0.10141000151634216,
        0.01606599986553192,
        -1.0
      ],
      "type": "VEC3"
    },
    {
      "bufferView": 2,
      "byteOffset": 651972,
      "componentType": 5126,
      "count": 1535,
      "max": [
        1.0,
        0.9999996423721313,
        0.9995367527008057
      ],
      "min": [
        -1.0,
        -1.0,
        -0.9994595050811768
      ],
      "type": "VEC3"
    },
    {
      "bufferView": 3,
      "byteOffset": 422368,
      "componentType": 5126,
      "count": 1535,
      "max": [
        0.9998040199279785,
        0.9995293021202087,
        0.9999719262123108,
        1.0
      ],
      "min": [
        -0.9998917579650879,
        -0.9995492696762085,
        -0.9999635815620422,
        1.0
      ],
      "type": "VEC4"
    },
    {
      "bufferView": 1,
      "byteOffset": 211184,
      "componentType": 5126,
      "count": 1535,
      "max": [
        0.9865970015525818,
        0.739766001701355
      ],
      "min": [
        0.9352030158042908,
        0.011714399792253971
      ],
      "type": "VEC2"
    },
    {
      "bufferView": 0,
      "byteOffset": 425064,
      "componentType": 5125,
      "count": 8520,
      "type": "SCALAR"
    },
    {
      "bufferView": 2,
      "byteOffset": 670392,
      "componentType": 5126,
      "count": 867,
      "max": [
        0.2263679951429367,
        -0.002768110018223524,
        -0.6488789916038513
      ],
      "min": [
        -0.13357700407505035,
        -0.3496220111846924,
        -0.873790979385376
      ],
      "type": "VEC3"
    },
    {
      "bufferView": 2,
      "byteOffset": 680796,
      "componentType": 5126,
      "count": 867,
      "max": [
        1.0,
        0.9974742531776428,
        0.997114360332489
      ],
      "min": [
        -1.0,
        -0.9931973814964294,
        -0.9208792448043823
      ],
      "type": "VEC3"
    },
    {
      "bufferView": 3,
      "byteOffset": 446928,
      "componentType": 5126,
      "count": 867,
      "max": [
        0.9989702701568604,
        0.9998922348022461,
        0.9473860263824463,
        -1.0
      ],
      "min": [
        -0.9990302920341492,
        -0.9460322260856628,
        -0.9929772615432739,
        -1.0
      ],
      "type": "VEC4"
    },
    {
      "bufferView": 1,
      "byteOffset": 223464,
      "componentType": 5126,
      "count": 867,
      "max": [
        0.4654200077056885,
        0.4706520140171051
      ],
      "min": [
        0.02200309932231903,
        0.19947099685668945
      ],
      "type": "VEC2"
    },
    {
      "bufferView": 0,
      "byteOffset": 459144,
      "componentType": 5125,
      "count": 4800,
      "type": "SCALAR"
    },
    {
      "bufferView": 2,
      "byteOffset": 691200,
      "componentType": 5126,
      "count": 228,
      "max": [
        0.1458909958600998,
        0.0640915036201477,
        -0.8619660139083862
      ],
      "min": [
        -0.051312100142240524,
        -0.10924799740314484,
        -0.9637640118598938
      ],
      "type": "VEC3"
    },
    {
      "bufferView": 2,
      "byteOffset": 693936,
      "componentType": 5126,
      "count": 228,
      "max": [
        0.9999191164970398,
        0.9980612397193909,
        0.8952998518943787
      ],
      "min": [
        -0.9999191164970398,
        -0.4454639256000519,
        -0.9996259808540344
      ],
      "type": "VEC3"
    },
    {
      "bufferView": 3,
      "byteOffset": 460800,
      "componentType": 5126,
      "count": 228,
      "max": [
        0.9845038056373596,
        0.8138132691383362,
        0.9674646854400635,
        -1.0
      ],
      "min": [
        -0.02226993441581726,
        -0.9963202476501465,
        -0.9999298453330994,
        -1.0
      ],
      "type": "VEC4"
    },
    {
      "bufferView": 1,
      "byteOffset": 230400,
      "componentType": 5126,
      "count": 228,
      "max": [
        0.43394899368286133,
        0.8196160197257996
      ],
      "min": [
        0.2044689953327179,
        0.01909100078046322
      ],
      "type": "VEC2"
    },
    {
      "bufferView": 0,
      "byteOffset": 478344,
      "componentType": 5125,
      "count": 912,
      "type": "SCALAR"
    },
    {
      "bufferView": 2,
      "byteOffset": 696672,
      "componentType": 5126,
      "count": 1340,
      "max": [
        0.27842000126838684,
        -0.25036001205444336,
        -0.7085070013999939
      ],
      "min": [
        0.15014800429344177,
        -0.3825030028820038,
        -0.8082119822502136
      ],
      "type": "VEC3"
    },
    {
      "bufferView": 2,
      "byteOffset": 712752,
      "componentType": 5126,
      "count": 1340,
      "max": [
        0.9883671402931213,
        0.8809928894042969,
        0.9254738688468933
      ],
      "min": [
        -0.9365746378898621,
        -0.8853669762611389,
        -0.9127002358436584
      ],
      "type": "VEC3"
    },
    {
      "bufferView": 3,
      "byteOffset": 464448,
      "componentType": 5126,
      "count": 1340,
      "max": [
        0.9691890478134155,
        0.9897189736366272,
        0.981139600276947,
        -1.0
      ],
      "min": [
        -0.9755649566650391,
        -0.9001367092132568,
        -0.9827812910079956,
        -1.0
      ],
      "type": "VEC4"
    },
    {
      "bufferView": 1,
      "byteOffset": 232224,
      "componentType": 5126,
      "count": 1340,
      "max": [
        0.5963879823684692,
        0.4156799912452698
      ],
      "min": [
        0.02200309932231903,
        0.09016969799995422
      ],
      "type": "VEC2"
    },
    {
      "bufferView": 0,
      "byteOffset": 481992,
      "componentType": 5125,
      "count": 3732,
      "type": "SCALAR"
    },
    {
      "bufferView": 2,
      "byteOffset": 728832,
      "componentType": 5126,
      "count": 5755,
      "max": [
        0.23074300587177277,
        -0.025484200567007065,
        -0.7121390104293823
      ],
      "min": [
        -0.13616399466991425,
        -0.37428298592567444,
        -0.9197930097579956
      ],
      "type": "VEC3"
    },
    {
      "bufferView": 2,
      "byteOffset": 797892,
      "componentType": 5126,
      "count": 5755,
      "max": [
        1.0,
        0.9201809763908386,
        0.9243748784065247
      ],
      "min": [
        -1.0,
        -0.920181393623352,
        -0.995506763458252
      ],
      "type": "VEC3"
    },
    {
      "bufferView": 3,
      "byteOffset": 485888,
      "componentType": 5126,
      "count": 5755,
      "max": [
        1.0,
        0.913430392742157,
        0.9899395704269409,
        -1.0
      ],
      "min": [
        -0.4767070710659027,
        -0.7996407151222229,
        -0.9857585430145264,
        -1.0
      ],
      "type": "VEC4"
    },
    {
      "bufferView": 1,
      "byteOffset": 242944,
      "componentType": 5126,
      "count": 5755,
      "max": [
        0.7931609749794006,
        0.6745390295982361
      ],
      "min": [
        0.4245859980583191,
        0.2834019958972931
      ],
      "type": "VEC2"
    },
    {
      "bufferView": 0,
      "byteOffset": 496920,
      "componentType": 5125,
      "count": 18000,
      "type": "SCALAR"
    },
    {
      "bufferView": 2,
      "byteOffset": 866952,
      "componentType": 5126,
      "count": 493,
      "max": [
        0.20905600488185883,
        -0.029108600690960884,
        -0.7752540111541748
      ],
      "min": [
        -0.11447799950838089,
        -0.33970698714256287,
        -0.9447889924049377
      ],
      "type": "VEC3"
    },
    {
      "bufferView": 2,
      "byteOffset": 872868,
      "componentType": 5126,
      "count": 493,
      "max": [
        1.0,
        0.8952998518943787,
        0.8952998518943787
      ],
      "min": [
        -1.0,
        -0.8952998518943787,
        -0.9848892092704773
      ],
      "type": "VEC3"
    },
    {
      "bufferView": 3,
      "byteOffset": 577968,
      "componentType": 5126,
      "count": 493,
      "max": [
        0.8552868366241455,
        0.999508261680603,
        0.9931895136833191,
        -1.0
      ],
      "min": [
        -0.8911256790161133,
        -0.9602884650230408,
        -0.9790025353431702,
        -1.0
      ],
      "type": "VEC4"
    },
    {
      "bufferView": 1,
      "byteOffset": 288984,
      "componentType": 5126,
      "count": 493,
      "max": [
        0.794107973575592,
        0.7991899847984314
      ],
      "min": [
        0.34059399366378784,
        0.01909100078046322
      ],
      "type": "VEC2"
    },
    {
      "bufferView": 0,
      "byteOffset": 568920,
      "componentType": 5125,
      "count": 1662,
      "type": "SCALAR"
    }
  ],
  "asset": {
    "extras": {
      "author": "shadowsudip (https://sketchfab.com/shadowsudip)",
      "license": "CC-BY-4.0 (http://creativecommons.org/licenses/by/4.0/)",
      "source": "https://sketchfab.com/3d-models/hp-h100-gaming-headset-with-mic-dd2a70f08ce94cf1ba4e751b4ce4c96c",
      "title": "HP H100 Gaming Headset with Mic"
    },
    "generator": "Sketchfab-12.64.0",
    "version": "2.0"
  },
  "bufferViews": [
    {
      "buffer": 0,
      "byteLength": 575568,
      "name": "floatBufferViews",
      "target": 34963
    },
    {
      "buffer": 0,
      "byteLength": 292928,
      "byteOffset": 575568,
      "byteStride": 8,
      "name": "floatBufferViews",
      "target": 34962
    },
    {
      "buffer": 0,
      "byteLength": 878784,
      "byteOffset": 868496,
      "byteStride": 12,
      "name": "floatBufferViews",
      "target": 34962
    },
    {
      "buffer": 0,
      "byteLength": 585856,
      "byteOffset": 1747280,
      "byteStride": 16,
      "name": "floatBufferViews",
      "target": 34962
    }
  ],
  "buffers": [
    {
      "byteLength": 2333136,
      "uri": "scene.bin"
    }
  ],
  "images": [
    {
      "uri": "textures/aiStandardSurface1_baseColor.jpeg"
    },
    {
      "uri": "textures/aiStandardSurface1_metallicRoughness.png"
    },
    {
      "uri": "textures/aiStandardSurface1_normal.png"
    }
  ],
  "materials": [
    {
      "doubleSided": true,
      "name": "aiStandardSurface1",
      "normalTexture": {
        "index": 2
      },
      "pbrMetallicRoughness": {
        "baseColorTexture": {
          "index": 0
        },
        "metallicRoughnessTexture": {
          "index": 1
        }
      }
    }
  ],
  "meshes": [
    {
      "name": "defaultMaterial",
      "primitives": [
        {
          "attributes": {
            "NORMAL": 1,
            "POSITION": 0,
            "TANGENT": 2,
            "TEXCOORD_0": 3
          },
          "indices": 4,
          "material": 0,
          "mode": 4
        }
      ]
    },
    {
      "name": "defaultMaterial",
      "primitives": [
        {
          "attributes": {
            "NORMAL": 6,
            "POSITION": 5,
            "TANGENT": 7,
            "TEXCOORD_0": 8
          },
          "indices": 9,
          "material": 0,
          "mode": 4
        }
      ]
    },
    {
      "name": "defaultMaterial",
      "primitives": [
        {
          "attributes": {
            "NORMAL": 11,
            "POSITION": 10,
            "TANGENT": 12,
            "TEXCOORD_0": 13
          },
          "indices": 14,
          "material": 0,
          "mode": 4
        }
      ]
    },
    {
      "name": "defaultMaterial",
      "primitives": [
        {
          "attributes": {
            "NORMAL": 16,
            "POSITION": 15,
            "TANGENT": 17,
            "TEXCOORD_0": 18
          },
          "indices": 19,
          "material": 0,
          "mode": 4
        }
      ]
    },
    {
      "name": "defaultMaterial",
      "primitives": [
        {
          "attributes": {
            "NORMAL": 21,
            "POSITION": 20,
            "TANGENT": 22,
            "TEXCOORD_0": 23
          },
          "indices": 24,
          "material": 0,
          "mode": 4
        }
      ]
    },
    {
      "name": "defaultMaterial",
      "primitives": [
        {
          "attributes": {
            "NORMAL": 26,
            "POSITION": 25,
            "TANGENT": 27,
            "TEXCOORD_0": 28
          },
          "indices": 29,
          "material": 0,
          "mode": 4
        }
      ]
    },
    {
      "name": "defaultMaterial",
      "primitives": [
        {
          "attributes": {
            "NORMAL": 31,
            "POSITION": 30,
            "TANGENT": 32,
            "TEXCOORD_0": 33
          },
          "indices": 34,
          "material": 0,
          "mode": 4
        }
      ]
    },
    {
      "name": "defaultMaterial",
      "primitives": [
        {
          "attributes": {
            "NORMAL": 36,
            "POSITION": 35,
            "TANGENT": 37,
            "TEXCOORD_0": 38
          },
          "indices": 39,
          "material": 0,
          "mode": 4
        }
      ]
    },
    {
      "name": "defaultMaterial",
      "primitives": [
        {
          "attributes": {
            "NORMAL": 41,
            "POSITION": 40,
            "TANGENT": 42,
            "TEXCOORD_0": 43
          },
          "indices": 44,
          "material": 0,
          "mode": 4
        }
      ]
    },
    {
      "name": "defaultMaterial",
      "primitives": [
        {
          "attributes": {
            "NORMAL": 46,
            "POSITION": 45,
            "TANGENT": 47,
            "TEXCOORD_0": 48
          },
          "indices": 49,
          "material": 0,
          "mode": 4
        }
      ]
    },
    {
      "name": "defaultMaterial",
      "primitives": [
        {
          "attributes": {
            "NORMAL": 51,
            "POSITION": 50,
            "TANGENT": 52,
            "TEXCOORD_0": 53
          },
          "indices": 54,
          "material": 0,
          "mode": 4
        }
      ]
    },
    {
      "name": "defaultMaterial",
      "primitives": [
        {
          "attributes": {
            "NORMAL": 56,
            "POSITION": 55,
            "TANGENT": 57,
            "TEXCOORD_0": 58
          },
          "indices": 59,
          "material": 0,
          "mode": 4
        }
      ]
    },
    {
      "name": "defaultMaterial",
      "primitives": [
        {
          "attributes": {
            "NORMAL": 61,
            "POSITION": 60,
            "TANGENT": 62,
            "TEXCOORD_0": 63
          },
          "indices": 64,
          "material": 0,
          "mode": 4
        }
      ]
    },
    {
      "name": "defaultMaterial",
      "primitives": [
        {
          "attributes": {
            "NORMAL": 66,
            "POSITION": 65,
            "TANGENT": 67,
            "TEXCOORD_0": 68
          },
          "indices": 69,
          "material": 0,
          "mode": 4
        }
      ]
    },
    {
      "name": "defaultMaterial",
      "primitives": [
        {
          "attributes": {
            "NORMAL": 71,
            "POSITION": 70,
            "TANGENT": 72,
            "TEXCOORD_0": 73
          },
          "indices": 74,
          "material": 0,
          "mode": 4
        }
      ]
    },
    {
      "name": "defaultMaterial",
      "primitives": [
        {
          "attributes": {
            "NORMAL": 76,
            "POSITION": 75,
            "TANGENT": 77,
            "TEXCOORD_0": 78
          },
          "indices": 79,
          "material": 0,
          "mode": 4
        }
      ]
    },
    {
      "name": "defaultMaterial",
      "primitives": [
        {
          "attributes": {
            "NORMAL": 81,
            "POSITION": 80,
            "TANGENT": 82,
            "TEXCOORD_0": 83
          },
          "indices": 84,
          "material": 0,
          "mode": 4
        }
      ]
    },
    {
      "name": "defaultMaterial",
      "primitives": [
        {
          "attributes": {
            "NORMAL": 86,
            "POSITION": 85,
            "TANGENT": 87,
            "TEXCOORD_0": 88
          },
          "indices": 89,
          "material": 0,
          "mode": 4
        }
      ]
    },
    {
      "name": "defaultMaterial",
      "primitives": [
        {
          "attributes": {
            "NORMAL": 91,
            "POSITION": 90,
            "TANGENT": 92,
            "TEXCOORD_0": 93
          },
          "indices": 94,
          "material": 0,
          "mode": 4
        }
      ]
    },
    {
      "name": "defaultMaterial",
      "primitives": [
        {
          "attributes": {
            "NORMAL": 96,
            "POSITION": 95,
            "TANGENT": 97,
            "TEXCOORD_0": 98
          },
          "indices": 99,
          "material": 0,
          "mode": 4
        }
      ]
    },
    {
      "name": "defaultMaterial",
      "primitives": [
        {
          "attributes": {
            "NORMAL": 101,
            "POSITION": 100,
            "TANGENT": 102,
            "TEXCOORD_0": 103
          },
          "indices": 104,
          "material": 0,
          "mode": 4
        }
      ]
    },
    {
      "name": "defaultMaterial",
      "primitives": [
        {
          "attributes": {
            "NORMAL": 106,
            "POSITION": 105,
            "TANGENT": 107,
            "TEXCOORD_0": 108
          },
          "indices": 109,
          "material": 0,
          "mode": 4
        }
      ]
    },
    {
      "name": "defaultMaterial",
      "primitives": [
        {
          "attributes": {
            "NORMAL": 111,
            "POSITION": 110,
            "TANGENT": 112,
            "TEXCOORD_0": 113
          },
          "indices": 114,
          "material": 0,
          "mode": 4
        }
      ]
    },
    {
      "name": "defaultMaterial",
      "primitives": [
        {
          "attributes": {
            "NORMAL": 116,
            "POSITION": 115,
            "TANGENT": 117,
            "TEXCOORD_0": 118
          },
          "indices": 119,
          "material": 0,
          "mode": 4
        }
      ]
    },
    {
      "name": "defaultMaterial",
      "primitives": [
        {
          "attributes": {
            "NORMAL": 121,
            "POSITION": 120,
            "TANGENT": 122,
            "TEXCOORD_0": 123
          },
          "indices": 124,
          "material": 0,
          "mode": 4
        }
      ]
    },
    {
      "name": "defaultMaterial",
      "primitives": [
        {
          "attributes": {
            "NORMAL": 126,
            "POSITION": 125,
            "TANGENT": 127,
            "TEXCOORD_0": 128
          },
          "indices": 129,
          "material": 0,
          "mode": 4
        }
      ]
    },
    {
      "name": "defaultMaterial",
      "primitives": [
        {
          "attributes": {
            "NORMAL": 131,
            "POSITION": 130,
            "TANGENT": 132,
            "TEXCOORD_0": 133
          },
          "indices": 134,
          "material": 0,
          "mode": 4
        }
      ]
    },
    {
      "name": "defaultMaterial",
      "primitives": [
        {
          "attributes": {
            "NORMAL": 136,
            "POSITION": 135,
            "TANGENT": 137,
            "TEXCOORD_0": 138
          },
          "indices": 139,
          "material": 0,
          "mode": 4
        }
      ]
    },
    {
      "name": "defaultMaterial",
      "primitives": [
        {
          "attributes": {
            "NORMAL": 141,
            "POSITION": 140,
            "TANGENT": 142,
            "TEXCOORD_0": 143
          },
          "indices": 144,
          "material": 0,
          "mode": 4
        }
      ]
    },
    {
      "name": "defaultMaterial",
      "primitives": [
        {
          "attributes": {
            "NORMAL": 146,
            "POSITION": 145,
            "TANGENT": 147,
            "TEXCOORD_0": 148
          },
          "indices": 149,
          "material": 0,
          "mode": 4
        }
      ]
    }
  ],
  "nodes": [
    {
      "children": [
        1
      ],
      "matrix": [
        1.0,
        0.0,
        0.0,
        0.0,
        0.0,
        2.220446049250313e-16,
        -1.0,
        0.0,
        0.0,
        1.0,
        2.220446049250313e-16,
        0.0,
        0.0,
        0.0,
        0.0,
        1.0
      ],
      "name": "Sketchfab_model"
    },
    {
      "children": [
        2,
        4,
        6,
        8,
        10,
        12,
        14,
        16,
        18,
        20,
        22,
        24,
        26,
        28,
        30,
        32,
        34,
        36,
        38,
        40,
        42,
        44,
        46,
        48,
        50,
        52,
        54,
        56,
        58,
        60
      ],
      "matrix": [
        1.0,
        0.0,
        0.0,
        0.0,
        0.0,
        -4.371139006309477e-08,
        0.999999999999999,
        0.0,
        0.0,
        -0.999999999999999,
        -4.371139006309477e-08,
        0.0,
        0.0,
        0.0,
        0.0,
        1.0
      ],
      "name": "Collada visual scene group"
    },
    {
      "children": [
        3
      ],
      "name": "polySurface14"
    },
    {
      "mesh": 0,
      "name": "defaultMaterial"
    },
    {
      "children": [
        5
      ],
      "name": "polySurface6"
    },
    {
      "mesh": 1,
      "name": "defaultMaterial"
    },
    {
      "children": [
        7
      ],
      "name": "polySurface20"
    },
    {
      "mesh": 2,
      "name": "defaultMaterial"
    },
    {
      "children": [
        9
      ],
      "name": "polySurface11"
    },
    {
      "mesh": 3,
      "name": "defaultMaterial"
    },
    {
      "children": [
        11
      ],
      "name": "pCylinder9"
    },
    {
      "mesh": 4,
      "name": "defaultMaterial"
    },
    {
      "children": [
        13
      ],
      "name": "pCylinder10"
    },
    {
      "mesh": 5,
      "name": "defaultMaterial"
    },
    {
      "children": [
        15
      ],
      "name": "pCylinder9"
    },
    {
      "mesh": 6,
      "name": "defaultMaterial"
    },
    {
      "children": [
        17
      ],
      "name": "pCylinder10"
    },
    {
      "mesh": 7,
      "name": "defaultMaterial"
    },
    {
      "children": [
        19
      ],
      "name": "pCylinder8"
    },
    {
      "mesh": 8,
      "name": "defaultMaterial"
    },
    {
      "children": [
        21
      ],
      "name": "polySurface26"
    },
    {
      "mesh": 9,
      "name": "defaultMaterial"
    },
    {
      "children": [
        23
      ],
      "name": "polySurface29"
    },
    {
      "mesh": 10,
      "name": "defaultMaterial"
    },
    {
      "children": [
        25
      ],
      "name": "polySurface28"
    },
    {
      "mesh": 11,
      "name": "defaultMaterial"
    },
    {
      "children": [
        27
      ],
      "name": "polySurface27"
    },
    {
      "mesh": 12,
      "name": "defaultMaterial"
    },
    {
      "children": [
        29
      ],
      "name": "pCylinder6"
    },
    {
      "mesh": 13,
      "name": "defaultMaterial"
    },
    {
      "children": [
        31
      ],
      "name": "pHelix2"
    },
    {
      "mesh": 14,
      "name": "defaultMaterial"
    },
    {
      "children": [
        33
      ],
      "name": "polySurface23"
    },
    {
      "mesh": 15,
      "name": "defaultMaterial"
    },
    {
      "children": [
        35
      ],
      "name": "polySurface16"
    },
    {
      "mesh": 16,
      "name": "defaultMaterial"
    },
    {
      "children": [
        37
      ],
      "name": "polySurface15"
    },
    {
      "mesh": 17,
      "name": "defaultMaterial"
    },
    {
      "children": [
        39
      ],
      "name": "polySurface17"
    },
    {
      "mesh": 18,
      "name": "defaultMaterial"
    },
    {
      "children": [
        41
      ],
      "name": "polySurface16"
    },
    {
      "mesh": 19,
      "name": "defaultMaterial"
    },
    {
      "children": [
        43
      ],
      "name": "polySurface15"
    },
    {
      "mesh": 20,
      "name": "defaultMaterial"
    },
    {
      "children": [
        45
      ],
      "name": "polySurface17"
    },
    {
      "mesh": 21,
      "name": "defaultMaterial"
    },
    {
      "children": [
        47
      ],
      "name": "pCube2"
    },
    {
      "mesh": 22,
      "name": "defaultMaterial"
    },
    {
      "children": [
        49
      ],
      "name": "pCylinder4"
    },
    {
      "mesh": 23,
      "name": "defaultMaterial"
    },
    {
      "children": [
        51
      ],
      "name": "pCylinder3"
    },
    {
      "mesh": 24,
      "name": "defaultMaterial"
    },
    {
      "children": [
        53
      ],
      "name": "polySurface14"
    },
    {
      "mesh": 25,
      "name": "defaultMaterial"
    },
    {
      "children": [
        55
      ],
      "name": "polySurface6"
    },
    {
      "mesh": 26,
      "name": "defaultMaterial"
    },
    {
      "children": [
        57
      ],
      "name": "polySurface21"
    },
    {
      "mesh": 27,
      "name": "defaultMaterial"
    },
    {
      "children": [
        59
      ],
      "name": "polySurface20"
    },
    {
      "mesh": 28,
      "name": "defaultMaterial"
    },
    {
      "children": [
        61
      ],
      "name": "polySurface11"
    },
    {
      "mesh": 29,
      "name": "defaultMaterial"
    }
  ],
  "samplers": [
    {
      "magFilter": 9729,
      "minFilter": 9987,
      "wrapS": 10497,
      "wrapT": 10497
    }
  ],
  "scene": 0,
  "scenes": [
    {
      "name": "Sketchfab_Scene",
      "nodes": [
        0
      ]
    }
  ],
  "textures": [
    {
      "sampler": 0,
      "source": 0
    },
    {
      "sampler": 0,
      "source": 1
    },
    {
      "sampler": 0,
      "source": 2
    }
  ]
}
