{
  "accessors": [
    {
      "bufferView": 2,
      "componentType": 5126,
      "count": 114,
      "max": [
        1.0,
        1.0,
        -0.9765466451644897
      ],
      "min": [
        -1.0,
        -1.0,
        -1.0
      ],
      "type": "VEC3"
    },
    {
      "bufferView": 2,
      "byteOffset": 1368,
      "componentType": 5126,
      "count": 114,
      "max": [
        0.9953563213348389,
        0.9995245337486267,
        0.0
      ],
      "min": [
        -0.9703420996665955,
        -0.9997330904006958,
        -1.0
      ],
      "type": "VEC3"
    },
    {
      "bufferView": 1,
      "componentType": 5126,
      "count": 114,
      "max": [
        0.6968881487846375,
        0.9273576736450195
      ],
      "min": [
        0.30942776799201965,
        0.07409650087356567
      ],
      "type": "VEC2"
    },
    {
      "bufferView": 0,
      "componentType": 5125,
      "count": 246,
      "type": "SCALAR"
    },
    {
      "bufferView": 2,
      "byteOffset": 2736,
      "componentType": 5126,
      "count": 160,
      "max": [
        1.0,
        1.0,
        1.0
      ],
      "min": [
        -1.0,
        -1.0,
        -1.0
      ],
      "type": "VEC3"
    },
    {
      "bufferView": 2,
      "byteOffset": 4656,
      "componentType": 5126,
      "count": 160,
      "max": [
        1.0,
        1.0,
        1.0
      ],
      "min": [
        -1.0,
        -1.0,
        0.0
      ],
      "type": "VEC3"
    },
    {
      "bufferView": 1,
      "byteOffset": 912,
      "componentType": 5126,
      "count": 160,
      "max": [
        0.6818858981132507,
        0.912439227104187
      ],
      "min": [
        0.31618422269821167,
        0.09187981486320496
      ],
      "type": "VEC2"
    },
    {
      "bufferView": 0,
      "byteOffset": 984,
      "componentType": 5125,
      "count": 282,
      "type": "SCALAR"
    },
    {
      "bufferView": 2,
      "byteOffset": 6576,
      "componentType": 5126,
      "count": 120,
      "max": [
        1.0,
        1.0,
        1.0
      ],
      "min": [
        -1.0,
        -1.0,
        -1.0
      ],
      "type": "VEC3"
    },
    {
      "bufferView": 2,
      "byteOffset": 8016,
      "componentType": 5126,
      "count": 120,
      "max": [
        1.0,
        1.0,
        1.0
      ],
      "min": [
        -1.0,
        -1.0,
        -1.0
      ],
      "type": "VEC3"
    },
    {
      "bufferView": 1,
      "byteOffset": 2192,
      "componentType": 5126,
      "count": 120,
      "max": [
        0.875,
        1.0
      ],
      "min": [
        0.125,
        0.0
      ],
      "type": "VEC2"
    },
    {
      "bufferView": 0,
      "byteOffset": 2112,
      "componentType": 5125,
      "count": 228,
      "type": "SCALAR"
    },
    {
      "bufferView": 2,
      "byteOffset": 9456,
      "componentType": 5126,
      "count": 120,
      "max": [
        1.0,
        1.0,
        1.0
      ],
      "min": [
        -1.0,
        -1.0,
        -1.0
      ],
      "type": "VEC3"
    },
    {
      "bufferView": 2,
      "byteOffset": 10896,
      "componentType": 5126,
      "count": 120,
      "max": [
        1.0,
        1.0,
        1.0
      ],
      "min": [
        -1.0,
        -1.0,
        -1.0
      ],
      "type": "VEC3"
    },
    {
      "bufferView": 1,
      "byteOffset": 3152,
      "componentType": 5126,
      "count": 120,
      "max": [
        0.875,
        1.0
      ],
      "min": [
        0.125,
        0.0
      ],
      "type": "VEC2"
    },
    {
      "bufferView": 0,
      "byteOffset": 3024,
      "componentType": 5125,
      "count": 228,
      "type": "SCALAR"
    },
    {
      "bufferView": 2,
      "byteOffset": 12336,
      "componentType": 5126,
      "count": 192,
      "max": [
        1.0,
        1.0,
        1.0
      ],
      "min": [
        -1.0,
        -1.0,
        -1.0
      ],
      "type": "VEC3"
    },
    {
      "bufferView": 2,
      "byteOffset": 14640,
      "componentType": 5126,
      "count": 192,
      "max": [
        0.9951847195625305,
        0.9951847195625305,
        1.0
      ],
      "min": [
        -0.9951847195625305,
        -0.9951847195625305,
        -1.0
      ],
      "type": "VEC3"
    },
    {
      "bufferView": 1,
      "byteOffset": 4112,
      "componentType": 5126,
      "count": 192,
      "max": [
        0.6821783185005188,
        0.899779200553894
      ],
      "min": [
        0.01000000536441803,
        0.01000000536441803
      ],
      "type": "VEC2"
    },
    {
      "bufferView": 0,
      "byteOffset": 3936,
      "componentType": 5125,
      "count": 372,
      "type": "SCALAR"
    },
    {
      "bufferView": 2,
      "byteOffset": 16944,
      "componentType": 5126,
      "count": 192,
      "max": [
        1.0,
        1.0,
        1.0
      ],
      "min": [
        -1.0,
        -1.0,
        -1.0
      ],
      "type": "VEC3"
    },
    {
      "bufferView": 2,
      "byteOffset": 19248,
      "componentType": 5126,
      "count": 192,
      "max": [
        0.9951847195625305,
        0.9951847195625305,
        1.0
      ],
      "min": [
        -0.9951847195625305,
        -0.9951847195625305,
        -1.0
      ],
      "type": "VEC3"
    },
    {
      "bufferView": 1,
      "byteOffset": 5648,
      "componentType": 5126,
      "count": 192,
      "max": [
        0.6788349151611328,
        0.792527973651886
      ],
      "min": [
        0.01000000536441803,
        0.01000000536441803
      ],
      "type": "VEC2"
    },
    {
      "bufferView": 0,
      "byteOffset": 5424,
      "componentType": 5125,
      "count": 372,
      "type": "SCALAR"
    },
    {
      "bufferView": 2,
      "byteOffset": 21552,
      "componentType": 5126,
      "count": 192,
      "max": [
        1.0,
        1.0,
        1.0
      ],
      "min": [
        -1.0,
        -1.0,
        -1.0
      ],
      "type": "VEC3"
    },
    {
      "bufferView": 2,
      "byteOffset": 23856,
      "componentType": 5126,
      "count": 192,
      "max": [
        0.9951847195625305,
        0.9951847195625305,
        1.0
      ],
      "min": [
        -0.9951847195625305,
        -0.9951847195625305,
        -1.0
      ],
      "type": "VEC3"
    },
    {
      "bufferView": 1,
      "byteOffset": 7184,
      "componentType": 5126,
      "count": 192,
      "max": [
        0.6680576801300049,
        0.8338866233825684
      ],
      "min": [
        0.01000000536441803,
        0.01000000536441803
      ],
      "type": "VEC2"
    },
    {
      "bufferView": 0,
      "byteOffset": 6912,
      "componentType": 5125,
      "count": 372,
      "type": "SCALAR"
    }
  ],
  "asset": {
    "extras": {
      "author": "youssef-hamdan (https://sketchfab.com/youssef-hamdan)",
      "license": "CC-BY-4.0 (http://creativecommons.org/licenses/by/4.0/)",
      "source": "https://sketchfab.com/3d-models/xiaomi-redmi-12-1ea1d2875947454183fd70b77fdc4e4d",
      "title": "Xiaomi Redmi 12"
    },
    "generator": "Sketchfab-16.62.0",
    "version": "2.0"
  },
  "bufferViews": [
    {
      "buffer": 0,
      "byteLength": 8400,
      "name": "floatBufferViews",
      "target": 34963
    },
    {
      "buffer": 0,
      "byteLength": 8720,
      "byteOffset": 8400,
      "byteStride": 8,
      "name": "floatBufferViews",
      "target": 34962
    },
    {
      "buffer": 0,
      "byteLength": 26160,
      "byteOffset": 17120,
      "byteStride": 12,
      "name": "floatBufferViews",
      "target": 34962
    }
  ],
  "buffers": [
    {
      "byteLength": 43280,
      "uri": "scene.bin"
    }
  ],
  "images": [
    {
      "uri": "textures/Material.001_baseColor.jpeg"
    },
    {
      "uri": "textures/Material_baseColor.jpeg"
    }
  ],
  "materials": [
    {
      "doubleSided": true,
      "name": "Material.001",
      "pbrMetallicRoughness": {
        "baseColorTexture": {
          "index": 0
        },
        "metallicFactor": 0.0,
        "roughnessFactor": 0.8211145618000169
      }
    },
    {
      "doubleSided": true,
      "name": "Material",
      "pbrMetallicRoughness": {
        "baseColorTexture": {
          "index": 1
        },
        "metallicFactor": 0.0,
        "roughnessFactor": 0.8211145618000169
      }
    },
    {
      "doubleSided": true,
      "name": "Material.002",
      "pbrMetallicRoughness": {
        "baseColorFactor": [
          0.00749903,
          0.00651209,
          0.00560539,
          1.0
        ],
        "metallicFactor": 0.0,
        "roughnessFactor": 0.9985115725973047
      }
    }
  ],
  "meshes": [
    {
      "name": "Cube_Material.001_0",
      "primitives": [
        {
          "attributes": {
            "NORMAL": 1,
            "POSITION": 0,
            "TEXCOORD_0": 2
          },
          "indices": 3,
          "material": 0,
          "mode": 4
        }
      ]
    },
    {
      "name": "Cube_Material_0",
      "primitives": [
        {
          "attributes": {
            "NORMAL": 5,
            "POSITION": 4,
            "TEXCOORD_0": 6
          },
          "indices": 7,
          "material": 1,
          "mode": 4
        }
      ]
    },
    {
      "name": "Cube.001_Material.002_0",
      "primitives": [
        {
          "attributes": {
            "NORMAL": 9,
            "POSITION": 8,
            "TEXCOORD_0": 10
          },
          "indices": 11,
          "material": 2,
          "mode": 4
        }
      ]
    },
    {
      "name": "Cube.002_Material.002_0",
      "primitives": [
        {
          "attributes": {
            "NORMAL": 13,
            "POSITION": 12,
            "TEXCOORD_0": 14
          },
          "indices": 15,
          "material": 2,
          "mode": 4
        }
      ]
    },
    {
      "name": "Cylinder_Material.001_0",
      "primitives": [
        {
          "attributes": {
            "NORMAL": 17,
            "POSITION": 16,
            "TEXCOORD_0": 18
          },
          "indices": 19,
          "material": 0,
          "mode": 4
        }
      ]
    },
    {
      "name": "Cylinder.001_Material.001_0",
      "primitives": [
        {
          "attributes": {
            "NORMAL": 21,
            "POSITION": 20,
            "TEXCOORD_0": 22
          },
          "indices": 23,
          "material": 0,
          "mode": 4
        }
      ]
    },
    {
      "name": "Cylinder.002_Material.001_0",
      "primitives": [
        {
          "attributes": {
            "NORMAL": 25,
            "POSITION": 24,
            "TEXCOORD_0": 26
          },
          "indices": 27,
          "material": 0,
          "mode": 4
        }
      ]
    }
  ],
  "nodes": [
    {
      "children": [
        1
      ],
      "matrix": [
        1.0,
        0.0,
        0.0,
        0.0,
        0.0,
        2.220446049250313e-16,
        -1.0,
        0.0,
        0.0,
        1.0,
        2.220446049250313e-16,
        0.0,
        0.0,
        0.0,
        0.0,
        1.0
      ],
      "name": "Sketchfab_model"
    },
    {
      "children": [
        2
      ],
      "matrix": [
        0.009999999776482582,
        0.0,
        0.0,
        0.0,
        0.0,
        0.0,
        0.009999999776482582,
        0.0,
        0.0,
        -0.009999999776482582,
        0.0,
        0.0,
        0.0,
        0.0,
        0.0,
        1.0
      ],
      "name": "2090fcd802f84a28906fb4db85d53aff.fbx"
    },
    {
      "children": [
        3,
        6,
        8,
        10,
        12,
        14
      ],
      "name": "RootNode"
    },
    {
      "children": [
        4,
        5
      ],
      "matrix": [
        100.0,
        0.0,
        0.0,
        0.0,
        0.0,
        -3.44948616312746e-05,
        -211.7279510498019,
        0.0,
        0.0,
        10.607176780700543,
        -1.7281284475410145e-06,
        0.0,
        0.0,
        0.0,
        0.0,
        1.0
      ],
      "name": "Cube"
    },
    {
      "mesh": 0,
      "name": "Cube_Material.001_0"
    },
    {
      "mesh": 1,
      "name": "Cube_Material_0"
    },
    {
      "children": [
        7
      ],
      "matrix": [
        -7.701684474945068,
        -0.0,
        -0.0,
        -0.0,
        -0.0,
        4.900819651579633e-06,
        -30.081016540526946,
        -0.0,
        -0.0,
        4.039973258972115,
        6.581951880765769e-07,
        -0.0,
        96.47838592529297,
        0.0,
        -74.74990844726563,
        1.0
      ],
      "name": "Cube.001"
    },
    {
      "mesh": 2,
      "name": "Cube.001_Material.002_0"
    },
    {
      "children": [
        9
      ],
      "matrix": [
        -7.701684474945068,
        -0.0,
        -0.0,
        -0.0,
        -0.0,
        2.054432041795631e-06,
        -12.610013961791825,
        -0.0,
        -0.0,
        4.039973258972115,
        6.581951880765769e-07,
        -0.0,
        96.47838592529297,
        0.0,
        -20.904176712036133,
        1.0
      ],
      "name": "Cube.002"
    },
    {
      "mesh": 3,
      "name": "Cube.002_Material.002_0"
    },
    {
      "children": [
        11
      ],
      "matrix": [
        24.568897247314453,
        0.0,
        0.0,
        0.0,
        0.0,
        -4.002781431440567e-06,
        -24.56889724731413,
        0.0,
        0.0,
        10.92493915557847,
        -1.7798985095412887e-06,
        0.0,
        65.047607421875,
        -0.6960979700088501,
        -173.07119750976563,
        1.0
      ],
      "name": "Cylinder"
    },
    {
      "mesh": 4,
      "name": "Cylinder_Material.001_0"
    },
    {
      "children": [
        13
      ],
      "matrix": [
        21.583335876464844,
        0.0,
        0.0,
        0.0,
        0.0,
        -3.5163717445357415e-06,
        -21.58333587646456,
        0.0,
        0.0,
        9.59736251831042,
        -1.5636088218528523e-06,
        0.0,
        63.24567794799805,
        -2.032839775085449,
        -117.34082794189453,
        1.0
      ],
      "name": "Cylinder.001"
    },
    {
      "mesh": 5,
      "name": "Cylinder.001_Material.001_0"
    },
    {
      "children": [
        15
      ],
      "matrix": [
        16.250272750854492,
        0.0,
        0.0,
        0.0,
        0.0,
        -2.647505476871779e-06,
        -16.25027275085428,
        0.0,
        0.0,
        7.225933551788235,
        -1.1772540034975843e-06,
        0.0,
        19.25739288330078,
        -4.3714823722839355,
        -145.00575256347656,
        1.0
      ],
      "name": "Cylinder.002"
    },
    {
      "mesh": 6,
      "name": "Cylinder.002_Material.001_0"
    }
  ],
  "samplers": [
    {
      "magFilter": 9729,
      "minFilter": 9987,
      "wrapS": 10497,
      "wrapT": 10497
    }
  ],
  "scene": 0,
  "scenes": [
    {
      "name": "Sketchfab_Scene",
      "nodes": [
        0
      ]
    }
  ],
  "textures": [
    {
      "sampler": 0,
      "source": 0
    },
    {
      "sampler": 0,
      "source": 1
    }
  ]
}
