{
  "accessors": [
    {
      "bufferView": 2,
      "componentType": 5126,
      "count": 8478,
      "max": [
        0.9477608799934387,
        0.9263019561767578,
        1.6588340997695923
      ],
      "min": [
        -0.8632779121398926,
        -0.9035115242004395,
        -0.999765157699585
      ],
      "type": "VEC3"
    },
    {
      "bufferView": 2,
      "byteOffset": 101736,
      "componentType": 5126,
      "count": 8478,
      "max": [
        1.0,
        1.0,
        1.0
      ],
      "min": [
        -1.0,
        -1.0,
        -1.0
      ],
      "type": "VEC3"
    },
    {
      "bufferView": 1,
      "componentType": 5126,
      "count": 8478,
      "max": [
        0.9899458289146423,
        1.0000338554382324
      ],
      "min": [
        0.12497611343860626,
        -9.167193638859317e-05
      ],
      "type": "VEC2"
    },
    {
      "bufferView": 0,
      "componentType": 5125,
      "count": 13434,
      "type": "SCALAR"
    },
    {
      "bufferView": 2,
      "byteOffset": 203472,
      "componentType": 5126,
      "count": 6176,
      "max": [
        0.919876754283905,
        0.9108625650405884,
        1.657956600189209
      ],
      "min": [
        -0.8355355858802795,
        -0.8862737417221069,
        -1.0
      ],
      "type": "VEC3"
    },
    {
      "bufferView": 2,
      "byteOffset": 277584,
      "componentType": 5126,
      "count": 6176,
      "max": [
        1.0,
        0.9989330768585205,
        1.0
      ],
      "min": [
        -0.9787724614143372,
        -0.998932957649231,
        -1.0
      ],
      "type": "VEC3"
    },
    {
      "bufferView": 1,
      "byteOffset": 67824,
      "componentType": 5126,
      "count": 6176,
      "max": [
        1.0,
        0.6168593764305115
      ],
      "min": [
        0.0,
        0.028292477130889893
      ],
      "type": "VEC2"
    },
    {
      "bufferView": 0,
      "byteOffset": 53736,
      "componentType": 5125,
      "count": 9852,
      "type": "SCALAR"
    },
    {
      "bufferView": 2,
      "byteOffset": 351696,
      "componentType": 5126,
      "count": 68,
      "max": [
        1.0000001192092896,
        1.1013457775115967,
        1.0
      ],
      "min": [
        -1.0000001192092896,
        -1.1013455390930176,
        -1.0
      ],
      "type": "VEC3"
    },
    {
      "bufferView": 2,
      "byteOffset": 352512,
      "componentType": 5126,
      "count": 68,
      "max": [
        1.0,
        0.9991580247879028,
        1.0
      ],
      "min": [
        -1.0,
        -0.9991580247879028,
        -1.0
      ],
      "type": "VEC3"
    },
    {
      "bufferView": 1,
      "byteOffset": 117232,
      "componentType": 5126,
      "count": 68,
      "max": [
        0.875,
        1.0
      ],
      "min": [
        0.1249999850988388,
        0.0
      ],
      "type": "VEC2"
    },
    {
      "bufferView": 0,
      "byteOffset": 93144,
      "componentType": 5125,
      "count": 108,
      "type": "SCALAR"
    },
    {
      "bufferView": 2,
      "byteOffset": 353328,
      "componentType": 5126,
      "count": 68,
      "max": [
        1.0000001192092896,
        1.1013457775115967,
        1.0
      ],
      "min": [
        -1.0000001192092896,
        -1.1013455390930176,
        -1.0
      ],
      "type": "VEC3"
    },
    {
      "bufferView": 2,
      "byteOffset": 354144,
      "componentType": 5126,
      "count": 68,
      "max": [
        1.0,
        0.9991580247879028,
        1.0
      ],
      "min": [
        -1.0,
        -0.9991580247879028,
        -1.0
      ],
      "type": "VEC3"
    },
    {
      "bufferView": 1,
      "byteOffset": 117776,
      "componentType": 5126,
      "count": 68,
      "max": [
        0.875,
        1.0
      ],
      "min": [
        0.1249999850988388,
        0.0
      ],
      "type": "VEC2"
    },
    {
      "bufferView": 0,
      "byteOffset": 93576,
      "componentType": 5125,
      "count": 108,
      "type": "SCALAR"
    },
    {
      "bufferView": 2,
      "byteOffset": 354960,
      "componentType": 5126,
      "count": 68,
      "max": [
        1.0000001192092896,
        1.1013457775115967,
        1.0
      ],
      "min": [
        -1.0000001192092896,
        -1.1013455390930176,
        -1.0
      ],
      "type": "VEC3"
    },
    {
      "bufferView": 2,
      "byteOffset": 355776,
      "componentType": 5126,
      "count": 68,
      "max": [
        1.0,
        0.9991580247879028,
        1.0
      ],
      "min": [
        -1.0,
        -0.9991580247879028,
        -1.0
      ],
      "type": "VEC3"
    },
    {
      "bufferView": 1,
      "byteOffset": 118320,
      "componentType": 5126,
      "count": 68,
      "max": [
        0.875,
        1.0
      ],
      "min": [
        0.1249999850988388,
        0.0
      ],
      "type": "VEC2"
    },
    {
      "bufferView": 0,
      "byteOffset": 94008,
      "componentType": 5125,
      "count": 108,
      "type": "SCALAR"
    },
    {
      "bufferView": 2,
      "byteOffset": 356592,
      "componentType": 5126,
      "count": 68,
      "max": [
        1.0000001192092896,
        1.1013457775115967,
        1.0
      ],
      "min": [
        -1.0000001192092896,
        -1.1013455390930176,
        -1.0
      ],
      "type": "VEC3"
    },
    {
      "bufferView": 2,
      "byteOffset": 357408,
      "componentType": 5126,
      "count": 68,
      "max": [
        1.0,
        0.9991580247879028,
        1.0
      ],
      "min": [
        -1.0,
        -0.9991580247879028,
        -1.0
      ],
      "type": "VEC3"
    },
    {
      "bufferView": 1,
      "byteOffset": 118864,
      "componentType": 5126,
      "count": 68,
      "max": [
        0.875,
        1.0
      ],
      "min": [
        0.1249999850988388,
        0.0
      ],
      "type": "VEC2"
    },
    {
      "bufferView": 0,
      "byteOffset": 94440,
      "componentType": 5125,
      "count": 108,
      "type": "SCALAR"
    },
    {
      "bufferView": 2,
      "byteOffset": 358224,
      "componentType": 5126,
      "count": 320,
      "max": [
        1.0,
        0.7875770330429077,
        1.0
      ],
      "min": [
        -1.0,
        -1.0,
        -1.0
      ],
      "type": "VEC3"
    },
    {
      "bufferView": 2,
      "byteOffset": 362064,
      "componentType": 5126,
      "count": 320,
      "max": [
        0.9951847195625305,
        1.0,
        0.9951847195625305
      ],
      "min": [
        -0.9951847195625305,
        -1.0,
        -0.9951847195625305
      ],
      "type": "VEC3"
    },
    {
      "bufferView": 1,
      "byteOffset": 119408,
      "componentType": 5126,
      "count": 320,
      "max": [
        1.0,
        0.9468942880630493
      ],
      "min": [
        0.0,
        0.01000000536441803
      ],
      "type": "VEC2"
    },
    {
      "bufferView": 0,
      "byteOffset": 94872,
      "componentType": 5125,
      "count": 564,
      "type": "SCALAR"
    },
    {
      "bufferView": 2,
      "byteOffset": 365904,
      "componentType": 5126,
      "count": 320,
      "max": [
        1.0,
        0.7875770330429077,
        1.0
      ],
      "min": [
        -1.0,
        -1.0,
        -1.0
      ],
      "type": "VEC3"
    },
    {
      "bufferView": 2,
      "byteOffset": 369744,
      "componentType": 5126,
      "count": 320,
      "max": [
        0.9951847195625305,
        1.0,
        0.9951847195625305
      ],
      "min": [
        -0.9951847195625305,
        -1.0,
        -0.9951847195625305
      ],
      "type": "VEC3"
    },
    {
      "bufferView": 1,
      "byteOffset": 121968,
      "componentType": 5126,
      "count": 320,
      "max": [
        1.0,
        0.9468942880630493
      ],
      "min": [
        0.0,
        0.01000000536441803
      ],
      "type": "VEC2"
    },
    {
      "bufferView": 0,
      "byteOffset": 97128,
      "componentType": 5125,
      "count": 564,
      "type": "SCALAR"
    },
    {
      "bufferView": 2,
      "byteOffset": 373584,
      "componentType": 5126,
      "count": 559,
      "max": [
        0.9999997019767761,
        1.0,
        0.9999993443489075
      ],
      "min": [
        -0.9999990463256836,
        -1.0,
        -1.0
      ],
      "type": "VEC3"
    },
    {
      "bufferView": 2,
      "byteOffset": 380292,
      "componentType": 5126,
      "count": 559,
      "max": [
        1.0,
        1.0,
        1.0
      ],
      "min": [
        -1.0,
        -1.0,
        -1.0
      ],
      "type": "VEC3"
    },
    {
      "bufferView": 1,
      "byteOffset": 124528,
      "componentType": 5126,
      "count": 559,
      "max": [
        1.0,
        1.0
      ],
      "min": [
        0.0,
        0.0
      ],
      "type": "VEC2"
    },
    {
      "bufferView": 0,
      "byteOffset": 99384,
      "componentType": 5125,
      "count": 2880,
      "type": "SCALAR"
    },
    {
      "bufferView": 2,
      "byteOffset": 387000,
      "componentType": 5126,
      "count": 559,
      "max": [
        0.9999997019767761,
        1.0,
        0.9999993443489075
      ],
      "min": [
        -0.9999990463256836,
        -1.0,
        -1.0
      ],
      "type": "VEC3"
    },
    {
      "bufferView": 2,
      "byteOffset": 393708,
      "componentType": 5126,
      "count": 559,
      "max": [
        1.0,
        1.0,
        1.0
      ],
      "min": [
        -1.0,
        -1.0,
        -1.0
      ],
      "type": "VEC3"
    },
    {
      "bufferView": 1,
      "byteOffset": 129000,
      "componentType": 5126,
      "count": 559,
      "max": [
        1.0,
        1.0
      ],
      "min": [
        0.0,
        0.0
      ],
      "type": "VEC2"
    },
    {
      "bufferView": 0,
      "byteOffset": 110904,
      "componentType": 5125,
      "count": 2880,
      "type": "SCALAR"
    },
    {
      "bufferView": 2,
      "byteOffset": 400416,
      "componentType": 5126,
      "count": 559,
      "max": [
        0.9999997019767761,
        1.0,
        0.9999993443489075
      ],
      "min": [
        -0.9999990463256836,
        -1.0,
        -1.0
      ],
      "type": "VEC3"
    },
    {
      "bufferView": 2,
      "byteOffset": 407124,
      "componentType": 5126,
      "count": 559,
      "max": [
        1.0,
        1.0,
        1.0
      ],
      "min": [
        -1.0,
        -1.0,
        -1.0
      ],
      "type": "VEC3"
    },
    {
      "bufferView": 1,
      "byteOffset": 133472,
      "componentType": 5126,
      "count": 559,
      "max": [
        1.0,
        1.0
      ],
      "min": [
        0.0,
        0.0
      ],
      "type": "VEC2"
    },
    {
      "bufferView": 0,
      "byteOffset": 122424,
      "componentType": 5125,
      "count": 2880,
      "type": "SCALAR"
    },
    {
      "bufferView": 2,
      "byteOffset": 413832,
      "componentType": 5126,
      "count": 559,
      "max": [
        0.9999997019767761,
        1.0,
        0.9999993443489075
      ],
      "min": [
        -0.9999990463256836,
        -1.0,
        -1.0
      ],
      "type": "VEC3"
    },
    {
      "bufferView": 2,
      "byteOffset": 420540,
      "componentType": 5126,
      "count": 559,
      "max": [
        1.0,
        1.0,
        1.0
      ],
      "min": [
        -1.0,
        -1.0,
        -1.0
      ],
      "type": "VEC3"
    },
    {
      "bufferView": 1,
      "byteOffset": 137944,
      "componentType": 5126,
      "count": 559,
      "max": [
        1.0,
        1.0
      ],
      "min": [
        0.0,
        0.0
      ],
      "type": "VEC2"
    },
    {
      "bufferView": 0,
      "byteOffset": 133944,
      "componentType": 5125,
      "count": 2880,
      "type": "SCALAR"
    },
    {
      "bufferView": 2,
      "byteOffset": 427248,
      "componentType": 5126,
      "count": 559,
      "max": [
        0.9999997019767761,
        1.0,
        0.9999993443489075
      ],
      "min": [
        -0.9999990463256836,
        -1.0,
        -1.0
      ],
      "type": "VEC3"
    },
    {
      "bufferView": 2,
      "byteOffset": 433956,
      "componentType": 5126,
      "count": 559,
      "max": [
        1.0,
        1.0,
        1.0
      ],
      "min": [
        -1.0,
        -1.0,
        -1.0
      ],
      "type": "VEC3"
    },
    {
      "bufferView": 1,
      "byteOffset": 142416,
      "componentType": 5126,
      "count": 559,
      "max": [
        1.0,
        1.0
      ],
      "min": [
        0.0,
        0.0
      ],
      "type": "VEC2"
    },
    {
      "bufferView": 0,
      "byteOffset": 145464,
      "componentType": 5125,
      "count": 2880,
      "type": "SCALAR"
    },
    {
      "bufferView": 2,
      "byteOffset": 440664,
      "componentType": 5126,
      "count": 559,
      "max": [
        0.9999997019767761,
        1.0,
        0.9999993443489075
      ],
      "min": [
        -0.9999990463256836,
        -1.0,
        -1.0
      ],
      "type": "VEC3"
    },
    {
      "bufferView": 2,
      "byteOffset": 447372,
      "componentType": 5126,
      "count": 559,
      "max": [
        1.0,
        1.0,
        1.0
      ],
      "min": [
        -1.0,
        -1.0,
        -1.0
      ],
      "type": "VEC3"
    },
    {
      "bufferView": 1,
      "byteOffset": 146888,
      "componentType": 5126,
      "count": 559,
      "max": [
        1.0,
        1.0
      ],
      "min": [
        0.0,
        0.0
      ],
      "type": "VEC2"
    },
    {
      "bufferView": 0,
      "byteOffset": 156984,
      "componentType": 5125,
      "count": 2880,
      "type": "SCALAR"
    },
    {
      "bufferView": 2,
      "byteOffset": 454080,
      "componentType": 5126,
      "count": 320,
      "max": [
        1.0,
        1.156960129737854,
        1.0
      ],
      "min": [
        -1.0,
        -1.0,
        -1.0
      ],
      "type": "VEC3"
    },
    {
      "bufferView": 2,
      "byteOffset": 457920,
      "componentType": 5126,
      "count": 320,
      "max": [
        0.9951847195625305,
        1.0,
        0.9951847195625305
      ],
      "min": [
        -0.9951847195625305,
        -1.0,
        -0.9951847195625305
      ],
      "type": "VEC3"
    },
    {
      "bufferView": 1,
      "byteOffset": 151360,
      "componentType": 5126,
      "count": 320,
      "max": [
        1.0,
        0.9680659174919128
      ],
      "min": [
        0.0,
        0.01000000536441803
      ],
      "type": "VEC2"
    },
    {
      "bufferView": 0,
      "byteOffset": 168504,
      "componentType": 5125,
      "count": 564,
      "type": "SCALAR"
    },
    {
      "bufferView": 2,
      "byteOffset": 461760,
      "componentType": 5126,
      "count": 192,
      "max": [
        1.0,
        1.0,
        1.0
      ],
      "min": [
        -1.0,
        -1.0,
        -1.0
      ],
      "type": "VEC3"
    },
    {
      "bufferView": 2,
      "byteOffset": 464064,
      "componentType": 5126,
      "count": 192,
      "max": [
        0.9951847195625305,
        1.0,
        0.9951847195625305
      ],
      "min": [
        -0.9951847195625305,
        -1.0,
        -0.9951847195625305
      ],
      "type": "VEC3"
    },
    {
      "bufferView": 1,
      "byteOffset": 153920,
      "componentType": 5126,
      "count": 192,
      "max": [
        1.0,
        1.0
      ],
      "min": [
        0.0,
        0.01000000536441803
      ],
      "type": "VEC2"
    },
    {
      "bufferView": 0,
      "byteOffset": 170760,
      "componentType": 5125,
      "count": 372,
      "type": "SCALAR"
    },
    {
      "bufferView": 2,
      "byteOffset": 466368,
      "componentType": 5126,
      "count": 192,
      "max": [
        1.0,
        1.0,
        1.0
      ],
      "min": [
        -1.0,
        -1.0,
        -1.0
      ],
      "type": "VEC3"
    },
    {
      "bufferView": 2,
      "byteOffset": 468672,
      "componentType": 5126,
      "count": 192,
      "max": [
        0.9951847195625305,
        1.0,
        0.9951847195625305
      ],
      "min": [
        -0.9951847195625305,
        -1.0,
        -0.9951847195625305
      ],
      "type": "VEC3"
    },
    {
      "bufferView": 1,
      "byteOffset": 155456,
      "componentType": 5126,
      "count": 192,
      "max": [
        1.0,
        1.0
      ],
      "min": [
        0.0,
        0.01000000536441803
      ],
      "type": "VEC2"
    },
    {
      "bufferView": 0,
      "byteOffset": 172248,
      "componentType": 5125,
      "count": 372,
      "type": "SCALAR"
    },
    {
      "bufferView": 2,
      "byteOffset": 470976,
      "componentType": 5126,
      "count": 192,
      "max": [
        1.0,
        1.0,
        1.0
      ],
      "min": [
        -1.0,
        -1.0,
        -1.0
      ],
      "type": "VEC3"
    },
    {
      "bufferView": 2,
      "byteOffset": 473280,
      "componentType": 5126,
      "count": 192,
      "max": [
        0.9951847195625305,
        1.0,
        0.9951847195625305
      ],
      "min": [
        -0.9951847195625305,
        -1.0,
        -0.9951847195625305
      ],
      "type": "VEC3"
    },
    {
      "bufferView": 1,
      "byteOffset": 156992,
      "componentType": 5126,
      "count": 192,
      "max": [
        1.0,
        1.0
      ],
      "min": [
        0.0,
        0.01000000536441803
      ],
      "type": "VEC2"
    },
    {
      "bufferView": 0,
      "byteOffset": 173736,
      "componentType": 5125,
      "count": 372,
      "type": "SCALAR"
    },
    {
      "bufferView": 2,
      "byteOffset": 475584,
      "componentType": 5126,
      "count": 192,
      "max": [
        1.0,
        1.0,
        1.0
      ],
      "min": [
        -1.0,
        -1.0,
        -1.0
      ],
      "type": "VEC3"
    },
    {
      "bufferView": 2,
      "byteOffset": 477888,
      "componentType": 5126,
      "count": 192,
      "max": [
        0.9951847195625305,
        1.0,
        0.9951847195625305
      ],
      "min": [
        -0.9951847195625305,
        -1.0,
        -0.9951847195625305
      ],
      "type": "VEC3"
    },
    {
      "bufferView": 1,
      "byteOffset": 158528,
      "componentType": 5126,
      "count": 192,
      "max": [
        1.0,
        1.0
      ],
      "min": [
        0.0,
        0.01000000536441803
      ],
      "type": "VEC2"
    },
    {
      "bufferView": 0,
      "byteOffset": 175224,
      "componentType": 5125,
      "count": 372,
      "type": "SCALAR"
    },
    {
      "bufferView": 2,
      "byteOffset": 480192,
      "componentType": 5126,
      "count": 192,
      "max": [
        1.0,
        1.0,
        1.0
      ],
      "min": [
        -1.0,
        -1.0,
        -1.0
      ],
      "type": "VEC3"
    },
    {
      "bufferView": 2,
      "byteOffset": 482496,
      "componentType": 5126,
      "count": 192,
      "max": [
        0.9951847195625305,
        1.0,
        0.9951847195625305
      ],
      "min": [
        -0.9951847195625305,
        -1.0,
        -0.9951847195625305
      ],
      "type": "VEC3"
    },
    {
      "bufferView": 1,
      "byteOffset": 160064,
      "componentType": 5126,
      "count": 192,
      "max": [
        1.0,
        1.0
      ],
      "min": [
        0.0,
        0.01000000536441803
      ],
      "type": "VEC2"
    },
    {
      "bufferView": 0,
      "byteOffset": 176712,
      "componentType": 5125,
      "count": 372,
      "type": "SCALAR"
    },
    {
      "bufferView": 2,
      "byteOffset": 484800,
      "componentType": 5126,
      "count": 3419,
      "max": [
        6.174000263214111,
        0.0,
        0.009000000543892384
      ],
      "min": [
        0.07000000029802322,
        -0.429999977350235,
        -0.6910000443458557
      ],
      "type": "VEC3"
    },
    {
      "bufferView": 2,
      "byteOffset": 525828,
      "componentType": 5126,
      "count": 3419,
      "max": [
        1.0,
        1.0,
        1.0
      ],
      "min": [
        -1.0,
        -1.0,
        -1.0
      ],
      "type": "VEC3"
    },
    {
      "bufferView": 1,
      "byteOffset": 161600,
      "componentType": 5126,
      "count": 3419,
      "max": [
        1.0,
        0.0
      ],
      "min": [
        0.0,
        0.0
      ],
      "type": "VEC2"
    },
    {
      "bufferView": 0,
      "byteOffset": 178200,
      "componentType": 5125,
      "count": 5388,
      "type": "SCALAR"
    },
    {
      "bufferView": 2,
      "byteOffset": 566856,
      "componentType": 5126,
      "count": 5833,
      "max": [
        4.645000457763672,
        0.0,
        0.009000000543892384
      ],
      "min": [
        0.07300000637769699,
        -0.2799999713897705,
        -0.6910000443458557
      ],
      "type": "VEC3"
    },
    {
      "bufferView": 2,
      "byteOffset": 636852,
      "componentType": 5126,
      "count": 5833,
      "max": [
        1.0,
        1.0,
        1.0
      ],
      "min": [
        -1.0,
        -1.0,
        -1.0
      ],
      "type": "VEC3"
    },
    {
      "bufferView": 1,
      "byteOffset": 188952,
      "componentType": 5126,
      "count": 5833,
      "max": [
        1.0,
        0.0
      ],
      "min": [
        0.0,
        0.0
      ],
      "type": "VEC2"
    },
    {
      "bufferView": 0,
      "byteOffset": 199752,
      "componentType": 5125,
      "count": 9180,
      "type": "SCALAR"
    },
    {
      "bufferView": 2,
      "byteOffset": 706848,
      "componentType": 5126,
      "count": 2665,
      "max": [
        2.068000078201294,
        0.0,
        0.23000000417232513
      ],
      "min": [
        0.036000002175569534,
        -0.20000000298023224,
        -0.4580000340938568
      ],
      "type": "VEC3"
    },
    {
      "bufferView": 2,
      "byteOffset": 738828,
      "componentType": 5126,
      "count": 2665,
      "max": [
        1.0,
        1.0,
        1.0
      ],
      "min": [
        -1.0,
        -1.0,
        -1.0
      ],
      "type": "VEC3"
    },
    {
      "bufferView": 1,
      "byteOffset": 235616,
      "componentType": 5126,
      "count": 2665,
      "max": [
        1.0,
        0.0
      ],
      "min": [
        0.0,
        0.0
      ],
      "type": "VEC2"
    },
    {
      "bufferView": 0,
      "byteOffset": 236472,
      "componentType": 5125,
      "count": 4176,
      "type": "SCALAR"
    }
  ],
  "asset": {
    "extras": {
      "author": "me_blender (https://sketchfab.com/me_blender)",
      "license": "CC-BY-4.0 (http://creativecommons.org/licenses/by/4.0/)",
      "source": "https://sketchfab.com/3d-models/oppo-reno-8-pro-a8bc509078994d01aa2b858f32c13289",
      "title": "Oppo Reno 8 Pro"
    },
    "generator": "Sketchfab-15.19.0",
    "version": "2.0"
  },
  "bufferViews": [
    {
      "buffer": 0,
      "byteLength": 253176,
      "name": "floatBufferViews",
      "target": 34963
    },
    {
      "buffer": 0,
      "byteLength": 256936,
      "byteOffset": 253176,
      "byteStride": 8,
      "name": "floatBufferViews",
      "target": 34962
    },
    {
      "buffer": 0,
      "byteLength": 770808,
      "byteOffset": 510112,
      "byteStride": 12,
      "name": "floatBufferViews",
      "target": 34962
    }
  ],
  "buffers": [
    {
      "byteLength": 1280920,
      "uri": "scene.bin"
    }
  ],
  "materials": [
    {
      "doubleSided": true,
      "name": "material_0",
      "pbrMetallicRoughness": {
        "metallicFactor": 0.0,
        "roughnessFactor": 0.6
      }
    },
    {
      "doubleSided": true,
      "name": "Base_color",
      "pbrMetallicRoughness": {
        "baseColorFactor": [
          0.015133514925704574,
          0.01312610667689256,
          0.01312610667689256,
          1.0
        ],
        "metallicFactor": 0.6332827207712918,
        "roughnessFactor": 0.39049061151484254
      }
    },
    {
      "doubleSided": true,
      "name": "screen",
      "pbrMetallicRoughness": {
        "baseColorFactor": [
          0.0,
          0.0,
          0.0,
          1.0
        ],
        "metallicFactor": 0.0,
        "roughnessFactor": 0.0
      }
    },
    {
      "doubleSided": true,
      "name": "lens_board",
      "pbrMetallicRoughness": {
        "baseColorFactor": [
          0.020875119945424174,
          0.020875119945424174,
          0.020875119945424174,
          1.0
        ],
        "metallicFactor": 0.0,
        "roughnessFactor": 0.15983810772121584
      }
    },
    {
      "doubleSided": true,
      "name": "lens",
      "pbrMetallicRoughness": {
        "baseColorFactor": [
          0.36383589186012544,
          0.30731094511944146,
          0.44299338521881193,
          1.0
        ],
        "roughnessFactor": 0.0
      }
    },
    {
      "doubleSided": true,
      "name": "Material",
      "pbrMetallicRoughness": {
        "baseColorFactor": [
          0.4494660310221315,
          0.5145624986172415,
          0.2835840701918324,
          1.0
        ],
        "metallicFactor": 0.3540717951263752,
        "roughnessFactor": 0.0
      }
    },
    {
      "alphaMode": "BLEND",
      "doubleSided": true,
      "name": "Material.001",
      "pbrMetallicRoughness": {
        "baseColorFactor": [
          0.0,
          0.0,
          0.0,
          0.6029337071142356
        ],
        "metallicFactor": 0.0,
        "roughnessFactor": 0.0
      }
    }
  ],
  "meshes": [
    {
      "name": "Object_0",
      "primitives": [
        {
          "attributes": {
            "NORMAL": 1,
            "POSITION": 0,
            "TEXCOORD_0": 2
          },
          "indices": 3,
          "material": 1,
          "mode": 4
        }
      ]
    },
    {
      "name": "Object_1",
      "primitives": [
        {
          "attributes": {
            "NORMAL": 5,
            "POSITION": 4,
            "TEXCOORD_0": 6
          },
          "indices": 7,
          "material": 2,
          "mode": 4
        }
      ]
    },
    {
      "name": "Object_2",
      "primitives": [
        {
          "attributes": {
            "NORMAL": 9,
            "POSITION": 8,
            "TEXCOORD_0": 10
          },
          "indices": 11,
          "material": 1,
          "mode": 4
        }
      ]
    },
    {
      "name": "Object_3",
      "primitives": [
        {
          "attributes": {
            "NORMAL": 13,
            "POSITION": 12,
            "TEXCOORD_0": 14
          },
          "indices": 15,
          "material": 1,
          "mode": 4
        }
      ]
    },
    {
      "name": "Object_4",
      "primitives": [
        {
          "attributes": {
            "NORMAL": 17,
            "POSITION": 16,
            "TEXCOORD_0": 18
          },
          "indices": 19,
          "material": 1,
          "mode": 4
        }
      ]
    },
    {
      "name": "Object_5",
      "primitives": [
        {
          "attributes": {
            "NORMAL": 21,
            "POSITION": 20,
            "TEXCOORD_0": 22
          },
          "indices": 23,
          "material": 3,
          "mode": 4
        }
      ]
    },
    {
      "name": "Object_6",
      "primitives": [
        {
          "attributes": {
            "NORMAL": 25,
            "POSITION": 24,
            "TEXCOORD_0": 26
          },
          "indices": 27,
          "material": 3,
          "mode": 4
        }
      ]
    },
    {
      "name": "Object_7",
      "primitives": [
        {
          "attributes": {
            "NORMAL": 29,
            "POSITION": 28,
            "TEXCOORD_0": 30
          },
          "indices": 31,
          "material": 3,
          "mode": 4
        }
      ]
    },
    {
      "name": "Object_8",
      "primitives": [
        {
          "attributes": {
            "NORMAL": 33,
            "POSITION": 32,
            "TEXCOORD_0": 34
          },
          "indices": 35,
          "material": 4,
          "mode": 4
        }
      ]
    },
    {
      "name": "Object_9",
      "primitives": [
        {
          "attributes": {
            "NORMAL": 37,
            "POSITION": 36,
            "TEXCOORD_0": 38
          },
          "indices": 39,
          "material": 4,
          "mode": 4
        }
      ]
    },
    {
      "name": "Object_10",
      "primitives": [
        {
          "attributes": {
            "NORMAL": 41,
            "POSITION": 40,
            "TEXCOORD_0": 42
          },
          "indices": 43,
          "material": 4,
          "mode": 4
        }
      ]
    },
    {
      "name": "Object_11",
      "primitives": [
        {
          "attributes": {
            "NORMAL": 45,
            "POSITION": 44,
            "TEXCOORD_0": 46
          },
          "indices": 47,
          "material": 4,
          "mode": 4
        }
      ]
    },
    {
      "name": "Object_12",
      "primitives": [
        {
          "attributes": {
            "NORMAL": 49,
            "POSITION": 48,
            "TEXCOORD_0": 50
          },
          "indices": 51,
          "material": 4,
          "mode": 4
        }
      ]
    },
    {
      "name": "Object_13",
      "primitives": [
        {
          "attributes": {
            "NORMAL": 53,
            "POSITION": 52,
            "TEXCOORD_0": 54
          },
          "indices": 55,
          "material": 4,
          "mode": 4
        }
      ]
    },
    {
      "name": "Object_14",
      "primitives": [
        {
          "attributes": {
            "NORMAL": 57,
            "POSITION": 56,
            "TEXCOORD_0": 58
          },
          "indices": 59,
          "material": 5,
          "mode": 4
        }
      ]
    },
    {
      "name": "Object_15",
      "primitives": [
        {
          "attributes": {
            "NORMAL": 61,
            "POSITION": 60,
            "TEXCOORD_0": 62
          },
          "indices": 63,
          "material": 3,
          "mode": 4
        }
      ]
    },
    {
      "name": "Object_16",
      "primitives": [
        {
          "attributes": {
            "NORMAL": 65,
            "POSITION": 64,
            "TEXCOORD_0": 66
          },
          "indices": 67,
          "material": 6,
          "mode": 4
        }
      ]
    },
    {
      "name": "Object_17",
      "primitives": [
        {
          "attributes": {
            "NORMAL": 69,
            "POSITION": 68,
            "TEXCOORD_0": 70
          },
          "indices": 71,
          "material": 6,
          "mode": 4
        }
      ]
    },
    {
      "name": "Object_18",
      "primitives": [
        {
          "attributes": {
            "NORMAL": 73,
            "POSITION": 72,
            "TEXCOORD_0": 74
          },
          "indices": 75,
          "material": 6,
          "mode": 4
        }
      ]
    },
    {
      "name": "Object_19",
      "primitives": [
        {
          "attributes": {
            "NORMAL": 77,
            "POSITION": 76,
            "TEXCOORD_0": 78
          },
          "indices": 79,
          "material": 6,
          "mode": 4
        }
      ]
    },
    {
      "name": "Object_20",
      "primitives": [
        {
          "attributes": {
            "NORMAL": 81,
            "POSITION": 80,
            "TEXCOORD_0": 82
          },
          "indices": 83,
          "material": 0,
          "mode": 4
        }
      ]
    },
    {
      "name": "Object_21",
      "primitives": [
        {
          "attributes": {
            "NORMAL": 85,
            "POSITION": 84,
            "TEXCOORD_0": 86
          },
          "indices": 87,
          "material": 0,
          "mode": 4
        }
      ]
    },
    {
      "name": "Object_22",
      "primitives": [
        {
          "attributes": {
            "NORMAL": 89,
            "POSITION": 88,
            "TEXCOORD_0": 90
          },
          "indices": 91,
          "material": 0,
          "mode": 4
        }
      ]
    }
  ],
  "nodes": [
    {
      "children": [
        1
      ],
      "matrix": [
        1.0,
        0.0,
        0.0,
        0.0,
        0.0,
        2.220446049250313e-16,
        -1.0,
        0.0,
        0.0,
        1.0,
        2.220446049250313e-16,
        0.0,
        0.0,
        0.0,
        0.0,
        1.0
      ],
      "name": "Sketchfab_model"
    },
    {
      "children": [
        2
      ],
      "name": "root"
    },
    {
      "children": [
        3,
        6,
        8,
        10,
        12,
        14,
        16,
        18,
        20,
        22,
        24,
        26,
        28,
        30,
        32,
        34,
        36,
        38,
        40,
        42,
        44,
        46
      ],
      "matrix": [
        1.0,
        0.0,
        0.0,
        0.0,
        0.0,
        2.220446049250313e-16,
        1.0,
        0.0,
        0.0,
        -1.0,
        2.220446049250313e-16,
        0.0,
        0.0,
        0.0,
        0.0,
        1.0
      ],
      "name": "GLTF_SceneRootNode"
    },
    {
      "children": [
        4,
        5
      ],
      "matrix": [
        1.0,
        0.0,
        0.0,
        0.0,
        0.0,
        2.126032829284668,
        0.0,
        0.0,
        0.0,
        0.0,
        0.09140535444021225,
        0.0,
        -1.616917610168457,
        2.0004258155822754,
        0.0,
        1.0
      ],
      "name": "Body_2"
    },
    {
      "mesh": 0,
      "name": "Object_4"
    },
    {
      "mesh": 1,
      "name": "Object_5"
    },
    {
      "children": [
        7
      ],
      "matrix": [
        0.12387167662382126,
        0.0,
        0.0,
        0.0,
        0.0,
        0.17259247601032257,
        0.0,
        0.0,
        0.0,
        0.0,
        0.036746568977832794,
        0.0,
        -2.376084566116333,
        2.3708720207214355,
        0.0,
        1.0
      ],
      "name": "Power_3"
    },
    {
      "mesh": 2,
      "name": "Object_7"
    },
    {
      "children": [
        9
      ],
      "matrix": [
        0.12387167662382126,
        0.0,
        0.0,
        0.0,
        0.0,
        0.15417341887950897,
        0.0,
        0.0,
        0.0,
        0.0,
        0.036746568977832794,
        0.0,
        -0.7770554423332214,
        2.661512613296509,
        0.0,
        1.0
      ],
      "name": "Volume1_4"
    },
    {
      "mesh": 3,
      "name": "Object_9"
    },
    {
      "children": [
        11
      ],
      "matrix": [
        0.12387167662382126,
        0.0,
        0.0,
        0.0,
        0.0,
        0.15417341887950897,
        0.0,
        0.0,
        0.0,
        0.0,
        0.036746568977832794,
        0.0,
        -0.7770554423332214,
        2.2822234630584717,
        0.0,
        1.0
      ],
      "name": "Volume 2_5"
    },
    {
      "mesh": 4,
      "name": "Object_11"
    },
    {
      "children": [
        13
      ],
      "matrix": [
        0.08414289355278015,
        0.0,
        0.0,
        0.0,
        0.0,
        0.11723770201206207,
        0.0,
        0.0,
        0.0,
        0.0,
        0.024961013346910477,
        0.0,
        -2.4227521419525146,
        2.3708720207214355,
        0.0,
        1.0
      ],
      "name": "power button design_6"
    },
    {
      "mesh": 5,
      "name": "Object_13"
    },
    {
      "children": [
        15
      ],
      "matrix": [
        0.16465795040130615,
        0.0,
        0.0,
        0.0,
        0.0,
        0.0,
        0.022064948454499245,
        0.0,
        0.0,
        -0.16465795040130615,
        0.0,
        0.0,
        -2.081494092941284,
        3.0313050746917725,
        0.11274011433124542,
        1.0
      ],
      "name": "lens board 1_7"
    },
    {
      "mesh": 6,
      "name": "Object_15"
    },
    {
      "children": [
        17
      ],
      "matrix": [
        0.16465795040130615,
        0.0,
        0.0,
        0.0,
        0.0,
        0.0,
        0.022064948454499245,
        0.0,
        0.0,
        -0.16465795040130615,
        0.0,
        0.0,
        -2.081494092941284,
        3.589207172393799,
        0.11274011433124542,
        1.0
      ],
      "name": "lens board 2_8"
    },
    {
      "mesh": 7,
      "name": "Object_17"
    },
    {
      "children": [
        19
      ],
      "matrix": [
        0.05482139438390732,
        0.0,
        0.0,
        0.0,
        0.0,
        0.05482139438390732,
        0.0,
        0.0,
        0.0,
        0.0,
        0.020189935341477394,
        0.0,
        -2.0865261554718018,
        3.592268228530884,
        0.1045825257897377,
        1.0
      ],
      "name": "lens 1_9"
    },
    {
      "mesh": 8,
      "name": "Object_19"
    },
    {
      "children": [
        21
      ],
      "matrix": [
        0.05482139438390732,
        0.0,
        0.0,
        0.0,
        0.0,
        0.05482139438390732,
        0.0,
        0.0,
        0.0,
        0.0,
        0.020189935341477394,
        0.0,
        -2.0865261554718018,
        3.03344988822937,
        0.1045825257897377,
        1.0
      ],
      "name": "lens 2_10"
    },
    {
      "mesh": 9,
      "name": "Object_21"
    },
    {
      "children": [
        23
      ],
      "matrix": [
        0.03049498051404953,
        0.0,
        0.0,
        0.0,
        0.0,
        0.03049498051404953,
        0.0,
        0.0,
        0.0,
        0.0,
        0.011230865493416786,
        0.0,
        -1.6316590309143066,
        3.6574764251708984,
        0.1109314039349556,
        1.0
      ],
      "name": "lens 1.001_11"
    },
    {
      "mesh": 10,
      "name": "Object_23"
    },
    {
      "children": [
        25
      ],
      "matrix": [
        0.03049498051404953,
        0.0,
        0.0,
        0.0,
        0.0,
        0.03049498051404953,
        0.0,
        0.0,
        0.0,
        0.0,
        0.011230865493416786,
        0.0,
        -1.6316590309143066,
        3.5222887992858887,
        0.1109314039349556,
        1.0
      ],
      "name": "lens 1.002_12"
    },
    {
      "mesh": 11,
      "name": "Object_25"
    },
    {
      "children": [
        27
      ],
      "matrix": [
        0.03049498051404953,
        0.0,
        0.0,
        0.0,
        0.0,
        0.03049498051404953,
        0.0,
        0.0,
        0.0,
        0.0,
        0.011230865493416786,
        0.0,
        -1.566450834274292,
        3.5874969959259033,
        0.1109314113855362,
        1.0
      ],
      "name": "lens 1.003_13"
    },
    {
      "mesh": 12,
      "name": "Object_27"
    },
    {
      "children": [
        29
      ],
      "matrix": [
        0.03049498051404953,
        0.0,
        0.0,
        0.0,
        0.0,
        0.03049498051404953,
        0.0,
        0.0,
        0.0,
        0.0,
        0.011230865493416786,
        0.0,
        -1.6984577178955078,
        3.5874969959259033,
        0.1109314113855362,
        1.0
      ],
      "name": "lens 1.004_14"
    },
    {
      "mesh": 13,
      "name": "Object_29"
    },
    {
      "children": [
        31
      ],
      "matrix": [
        0.13024552166461945,
        0.0,
        0.0,
        0.0,
        0.0,
        0.0,
        0.02635905332863331,
        0.0,
        0.0,
        -0.13024552166461945,
        0.0,
        0.0,
        -1.6305608749389648,
        3.03129506111145,
        0.10171172022819519,
        1.0
      ],
      "name": "flash_15"
    },
    {
      "mesh": 14,
      "name": "Object_31"
    },
    {
      "children": [
        33
      ],
      "matrix": [
        0.0880831927061081,
        0.0,
        0.0,
        0.0,
        0.0,
        0.0,
        0.006912013050168753,
        0.0,
        0.0,
        -0.0880831927061081,
        0.0,
        0.0,
        -1.6306449174880981,
        3.0306735038757324,
        0.12947562336921692,
        1.0
      ],
      "name": "flash shield_16"
    },
    {
      "mesh": 15,
      "name": "Object_33"
    },
    {
      "children": [
        35
      ],
      "matrix": [
        0.23280730843544006,
        0.0,
        0.0,
        0.0,
        0.0,
        0.0,
        0.00910999346524477,
        0.0,
        0.0,
        -0.23280730843544006,
        0.0,
        0.0,
        -2.088937520980835,
        3.0365705490112305,
        0.15154457092285156,
        1.0
      ],
      "name": "glass_17"
    },
    {
      "mesh": 16,
      "name": "Object_35"
    },
    {
      "children": [
        37
      ],
      "matrix": [
        0.23280730843544006,
        0.0,
        0.0,
        0.0,
        0.0,
        0.0,
        0.00910999346524477,
        0.0,
        0.0,
        -0.23280730843544006,
        0.0,
        0.0,
        -2.088937520980835,
        3.5886240005493164,
        0.15154457092285156,
        1.0
      ],
      "name": "glass.001_18"
    },
    {
      "mesh": 17,
      "name": "Object_37"
    },
    {
      "children": [
        39
      ],
      "matrix": [
        0.1449209749698639,
        0.0,
        0.0,
        0.0,
        0.0,
        0.0,
        0.005670908838510513,
        0.0,
        0.0,
        -0.1449209749698639,
        0.0,
        0.0,
        -1.6285992860794067,
        3.5886240005493164,
        0.15154457092285156,
        1.0
      ],
      "name": "glass.002_19"
    },
    {
      "mesh": 18,
      "name": "Object_39"
    },
    {
      "children": [
        41
      ],
      "matrix": [
        0.13172964751720428,
        0.0,
        0.0,
        0.0,
        0.0,
        0.0,
        0.005154718644917011,
        0.0,
        0.0,
        -0.13172964751720428,
        0.0,
        0.0,
        -1.6285992860794067,
        3.031332492828369,
        0.15154457092285156,
        1.0
      ],
      "name": "glass.003_20"
    },
    {
      "mesh": 19,
      "name": "Object_41"
    },
    {
      "children": [
        43
      ],
      "matrix": [
        0.034934695810079575,
        0.0,
        0.0,
        0.0,
        0.0,
        0.0,
        0.052308954298496246,
        0.0,
        0.0,
        -0.013794422149658203,
        0.0,
        0.0,
        -2.16414475440979,
        2.7046003341674805,
        0.1554947942495346,
        1.0
      ],
      "name": "Text.003_24"
    },
    {
      "mesh": 20,
      "name": "Object_43"
    },
    {
      "children": [
        45
      ],
      "matrix": [
        0.06266830861568451,
        0.0,
        0.0,
        0.0,
        0.0,
        0.0,
        0.05330346152186394,
        0.0,
        0.0,
        -0.03529902920126915,
        0.0,
        0.0,
        -2.205003499984741,
        2.637012243270874,
        0.15249967575073242,
        1.0
      ],
      "name": "Text.004_25"
    },
    {
      "mesh": 21,
      "name": "Object_45"
    },
    {
      "children": [
        47
      ],
      "matrix": [
        -6.915365613480162e-09,
        0.2320411652326582,
        6.915365819574118e-09,
        0.0,
        6.597955267820263e-09,
        -6.597955071185879e-09,
        0.22139063477516155,
        0.0,
        0.17310647666454299,
        5.1589751787042074e-09,
        -5.1589750249547706e-09,
        0.0,
        -0.970919132232666,
        0.4339565336704254,
        0.09467917680740356,
        1.0
      ],
      "name": "Text.005_26"
    },
    {
      "mesh": 22,
      "name": "Object_47"
    }
  ],
  "scene": 0,
  "scenes": [
    {
      "name": "Sketchfab_Scene",
      "nodes": [
        0
      ]
    }
  ]
}
