{
  "accessors": [
    {
      "bufferView": 2,
      "componentType": 5126,
      "count": 2100,
      "max": [
        0.02140790782868862,
        0.006640933454036713,
        0.011873915791511536
      ],
      "min": [
        -0.02140790782868862,
        -0.0066414205357432365,
        -0.011873592622578144
      ],
      "type": "VEC3"
    },
    {
      "bufferView": 2,
      "byteOffset": 25200,
      "componentType": 5126,
      "count": 2100,
      "max": [
        1.0,
        1.0,
        1.0
      ],
      "min": [
        -1.0,
        -1.0,
        -0.731195330619812
      ],
      "type": "VEC3"
    },
    {
      "bufferView": 1,
      "componentType": 5126,
      "count": 2100,
      "max": [
        0.9995285868644714,
        0.9998899102210999
      ],
      "min": [
        0.0,
        0.024037539958953857
      ],
      "type": "VEC2"
    },
    {
      "bufferView": 1,
      "byteOffset": 16800,
      "componentType": 5126,
      "count": 2100,
      "max": [
        3.371725082397461,
        1.5978879928588867
      ],
      "min": [
        -3.371725082397461,
        0.5456131100654602
      ],
      "type": "VEC2"
    },
    {
      "bufferView": 0,
      "componentType": 5125,
      "count": 10020,
      "type": "SCALAR"
    },
    {
      "bufferView": 2,
      "byteOffset": 50400,
      "componentType": 5126,
      "count": 1242,
      "max": [
        0.013812609016895294,
        0.010641545988619328,
        0.006555634085088968
      ],
      "min": [
        -0.013674055226147175,
        -0.010641248896718025,
        -0.006615032441914082
      ],
      "type": "VEC3"
    },
    {
      "bufferView": 2,
      "byteOffset": 65304,
      "componentType": 5126,
      "count": 1242,
      "max": [
        0.999971866607666,
        0.9999946355819702,
        0.9997878670692444
      ],
      "min": [
        -1.0,
        -0.9999939203262329,
        -1.0
      ],
      "type": "VEC3"
    },
    {
      "bufferView": 1,
      "byteOffset": 33600,
      "componentType": 5126,
      "count": 1242,
      "max": [
        0.5132880806922913,
        0.9961230754852295
      ],
      "min": [
        0.37662601470947266,
        0.9247050881385803
      ],
      "type": "VEC2"
    },
    {
      "bufferView": 1,
      "byteOffset": 43536,
      "componentType": 5126,
      "count": 1242,
      "max": [
        0.5132880806922913,
        0.9961230754852295
      ],
      "min": [
        0.37662601470947266,
        0.9247050881385803
      ],
      "type": "VEC2"
    },
    {
      "bufferView": 1,
      "byteOffset": 53472,
      "componentType": 5126,
      "count": 1242,
      "max": [
        0.5132880806922913,
        0.9961230754852295
      ],
      "min": [
        0.37662601470947266,
        0.9247050881385803
      ],
      "type": "VEC2"
    },
    {
      "bufferView": 0,
      "byteOffset": 40080,
      "componentType": 5125,
      "count": 6576,
      "type": "SCALAR"
    },
    {
      "bufferView": 2,
      "byteOffset": 80208,
      "componentType": 5126,
      "count": 138,
      "max": [
        0.006918611936271191,
        0.005127924494445324,
        0.011031354777514935
      ],
      "min": [
        -0.006918806582689285,
        -0.005128105171024799,
        -0.011031354777514935
      ],
      "type": "VEC3"
    },
    {
      "bufferView": 2,
      "byteOffset": 81864,
      "componentType": 5126,
      "count": 138,
      "max": [
        1.0,
        0.9994081854820251,
        0.0
      ],
      "min": [
        -1.0,
        -0.9994081854820251,
        -1.0
      ],
      "type": "VEC3"
    },
    {
      "bufferView": 1,
      "byteOffset": 63408,
      "componentType": 5126,
      "count": 138,
      "max": [
        0.0,
        0.0
      ],
      "min": [
        0.0,
        0.0
      ],
      "type": "VEC2"
    },
    {
      "bufferView": 0,
      "byteOffset": 66384,
      "componentType": 5125,
      "count": 408,
      "type": "SCALAR"
    },
    {
      "bufferView": 2,
      "byteOffset": 83520,
      "componentType": 5126,
      "count": 280,
      "max": [
        0.012816403061151505,
        0.0005428138538263738,
        0.010627430863678455
      ],
      "min": [
        -0.012816127389669418,
        -0.0018102445174008608,
        -0.01062754262238741
      ],
      "type": "VEC3"
    },
    {
      "bufferView": 2,
      "byteOffset": 86880,
      "componentType": 5126,
      "count": 280,
      "max": [
        1.0,
        1.0,
        1.0
      ],
      "min": [
        -1.0,
        0.0,
        -1.0
      ],
      "type": "VEC3"
    },
    {
      "bufferView": 0,
      "byteOffset": 68016,
      "componentType": 5125,
      "count": 1440,
      "type": "SCALAR"
    },
    {
      "bufferView": 2,
      "byteOffset": 90240,
      "componentType": 5126,
      "count": 257,
      "max": [
        0.005373132415115833,
        0.02051554061472416,
        0.0014384340029209852
      ],
      "min": [
        -0.005378358066082001,
        -0.020515698939561844,
        -0.0014954996295273304
      ],
      "type": "VEC3"
    },
    {
      "bufferView": 2,
      "byteOffset": 93324,
      "componentType": 5126,
      "count": 257,
      "max": [
        1.0,
        0.9998397827148438,
        0.708605170249939
      ],
      "min": [
        -1.0,
        -0.9998397827148438,
        -1.0
      ],
      "type": "VEC3"
    },
    {
      "bufferView": 1,
      "byteOffset": 64512,
      "componentType": 5126,
      "count": 257,
      "max": [
        0.6988704204559326,
        0.4809982180595398
      ],
      "min": [
        0.6830503940582275,
        0.42062288522720337
      ],
      "type": "VEC2"
    },
    {
      "bufferView": 1,
      "byteOffset": 66568,
      "componentType": 5126,
      "count": 257,
      "max": [
        0.6988704204559326,
        0.4809982180595398
      ],
      "min": [
        0.6830503940582275,
        0.42062288522720337
      ],
      "type": "VEC2"
    },
    {
      "bufferView": 0,
      "byteOffset": 73776,
      "componentType": 5125,
      "count": 864,
      "type": "SCALAR"
    },
    {
      "bufferView": 2,
      "byteOffset": 96408,
      "componentType": 5126,
      "count": 721,
      "max": [
        0.004093806724995375,
        -0.10157162696123123,
        0.004753420129418373
      ],
      "min": [
        -0.004046862479299307,
        -0.1126490980386734,
        -0.0034355942625552416
      ],
      "type": "VEC3"
    },
    {
      "bufferView": 2,
      "byteOffset": 105060,
      "componentType": 5126,
      "count": 721,
      "max": [
        1.0,
        0.002800015965476632,
        1.0
      ],
      "min": [
        -1.0,
        -1.0,
        -1.0
      ],
      "type": "VEC3"
    },
    {
      "bufferView": 0,
      "byteOffset": 77232,
      "componentType": 5125,
      "count": 2760,
      "type": "SCALAR"
    },
    {
      "bufferView": 2,
      "byteOffset": 113712,
      "componentType": 5126,
      "count": 1964,
      "max": [
        0.01281490083783865,
        0.42268139123916626,
        0.011286498978734016
      ],
      "min": [
        -0.012816167436540127,
        -0.10157173126935959,
        -0.009992734529078007
      ],
      "type": "VEC3"
    },
    {
      "bufferView": 2,
      "byteOffset": 137280,
      "componentType": 5126,
      "count": 1964,
      "max": [
        1.0,
        1.0,
        1.0
      ],
      "min": [
        -1.0,
        -1.0,
        -1.0
      ],
      "type": "VEC3"
    },
    {
      "bufferView": 0,
      "byteOffset": 88272,
      "componentType": 5125,
      "count": 10920,
      "type": "SCALAR"
    },
    {
      "bufferView": 2,
      "byteOffset": 160848,
      "componentType": 5126,
      "count": 2096,
      "max": [
        0.021290801465511322,
        0.040346551686525345,
        0.11895909160375595
      ],
      "min": [
        -0.12975358963012695,
        -0.013582740910351276,
        -0.1381860226392746
      ],
      "type": "VEC3"
    },
    {
      "bufferView": 2,
      "byteOffset": 186000,
      "componentType": 5126,
      "count": 2096,
      "max": [
        1.0,
        1.0,
        1.0
      ],
      "min": [
        -1.0,
        -1.0,
        -1.0
      ],
      "type": "VEC3"
    },
    {
      "bufferView": 1,
      "byteOffset": 68624,
      "componentType": 5126,
      "count": 2096,
      "max": [
        1.1449639797210693,
        0.9916009902954102
      ],
      "min": [
        0.008503541350364685,
        -0.47555065155029297
      ],
      "type": "VEC2"
    },
    {
      "bufferView": 1,
      "byteOffset": 85392,
      "componentType": 5126,
      "count": 2096,
      "max": [
        0.6813216209411621,
        1.7684370279312134
      ],
      "min": [
        -2.552746057510376,
        1.0
      ],
      "type": "VEC2"
    },
    {
      "bufferView": 0,
      "byteOffset": 131952,
      "componentType": 5125,
      "count": 6864,
      "type": "SCALAR"
    },
    {
      "bufferView": 2,
      "byteOffset": 211152,
      "componentType": 5126,
      "count": 551,
      "max": [
        0.36713525652885437,
        0.01758796162903309,
        0.5554580092430115
      ],
      "min": [
        -0.014581019058823586,
        -0.02852320298552513,
        -0.2751767635345459
      ],
      "type": "VEC3"
    },
    {
      "bufferView": 2,
      "byteOffset": 217764,
      "componentType": 5126,
      "count": 551,
      "max": [
        1.0,
        1.0,
        1.0
      ],
      "min": [
        -1.0,
        -1.0,
        -1.0
      ],
      "type": "VEC3"
    },
    {
      "bufferView": 1,
      "byteOffset": 102160,
      "componentType": 5126,
      "count": 551,
      "max": [
        0.9996355175971985,
        5.449917793273926
      ],
      "min": [
        -0.8116803169250488,
        0.0
      ],
      "type": "VEC2"
    },
    {
      "bufferView": 1,
      "byteOffset": 106568,
      "componentType": 5126,
      "count": 551,
      "max": [
        7.159060955047607,
        5.450055122375488
      ],
      "min": [
        -0.8116803169250488,
        0.19072777032852173
      ],
      "type": "VEC2"
    },
    {
      "bufferView": 1,
      "byteOffset": 110976,
      "componentType": 5126,
      "count": 551,
      "max": [
        1.0,
        1.0
      ],
      "min": [
        0.0,
        0.0
      ],
      "type": "VEC2"
    },
    {
      "bufferView": 1,
      "byteOffset": 115384,
      "componentType": 5126,
      "count": 551,
      "max": [
        0.0,
        1.0
      ],
      "min": [
        0.0,
        1.0
      ],
      "type": "VEC2"
    },
    {
      "bufferView": 0,
      "byteOffset": 159408,
      "componentType": 5125,
      "count": 1782,
      "type": "SCALAR"
    },
    {
      "bufferView": 2,
      "byteOffset": 224376,
      "componentType": 5126,
      "count": 284,
      "max": [
        0.01634371653199196,
        0.020350845530629158,
        0.47564011812210083
      ],
      "min": [
        -0.3839435279369354,
        -0.015743354335427284,
        -0.36315324902534485
      ],
      "type": "VEC3"
    },
    {
      "bufferView": 2,
      "byteOffset": 227784,
      "componentType": 5126,
      "count": 284,
      "max": [
        1.0,
        1.0,
        1.0
      ],
      "min": [
        -1.0,
        0.0,
        -1.0
      ],
      "type": "VEC3"
    },
    {
      "bufferView": 1,
      "byteOffset": 119792,
      "componentType": 5126,
      "count": 284,
      "max": [
        0.3674722909927368,
        0.9972959756851196
      ],
      "min": [
        0.1198934018611908,
        0.0023641586303710938
      ],
      "type": "VEC2"
    },
    {
      "bufferView": 1,
      "byteOffset": 122064,
      "componentType": 5126,
      "count": 284,
      "max": [
        0.3674722909927368,
        0.9972959756851196
      ],
      "min": [
        0.1198934018611908,
        0.0023641586303710938
      ],
      "type": "VEC2"
    },
    {
      "bufferView": 1,
      "byteOffset": 124336,
      "componentType": 5126,
      "count": 284,
      "max": [
        0.3674722909927368,
        0.9972959756851196
      ],
      "min": [
        0.1198934018611908,
        0.0023641586303710938
      ],
      "type": "VEC2"
    },
    {
      "bufferView": 0,
      "byteOffset": 166536,
      "componentType": 5125,
      "count": 762,
      "type": "SCALAR"
    },
    {
      "bufferView": 2,
      "byteOffset": 231192,
      "componentType": 5126,
      "count": 186,
      "max": [
        0.01634371653199196,
        -0.015546086244285107,
        0.47564011812210083
      ],
      "min": [
        -0.3839435279369354,
        -0.020358644425868988,
        -0.36315324902534485
      ],
      "type": "VEC3"
    },
    {
      "bufferView": 2,
      "byteOffset": 233424,
      "componentType": 5126,
      "count": 186,
      "max": [
        1.0,
        0.0,
        1.0
      ],
      "min": [
        -1.0,
        -1.0,
        -1.0
      ],
      "type": "VEC3"
    },
    {
      "bufferView": 1,
      "byteOffset": 126608,
      "componentType": 5126,
      "count": 186,
      "max": [
        0.1212937980890274,
        0.9972959756851196
      ],
      "min": [
        0.08825092017650604,
        0.0023641586303710938
      ],
      "type": "VEC2"
    },
    {
      "bufferView": 1,
      "byteOffset": 128096,
      "componentType": 5126,
      "count": 186,
      "max": [
        0.1212937980890274,
        0.9972959756851196
      ],
      "min": [
        0.08825092017650604,
        0.0023641586303710938
      ],
      "type": "VEC2"
    },
    {
      "bufferView": 1,
      "byteOffset": 129584,
      "componentType": 5126,
      "count": 186,
      "max": [
        0.1212937980890274,
        0.9972959756851196
      ],
      "min": [
        0.08825092017650604,
        0.0023641586303710938
      ],
      "type": "VEC2"
    },
    {
      "bufferView": 0,
      "byteOffset": 169584,
      "componentType": 5125,
      "count": 504,
      "type": "SCALAR"
    },
    {
      "bufferView": 2,
      "byteOffset": 235656,
      "componentType": 5126,
      "count": 7437,
      "max": [
        0.01865288056433201,
        0.020351290702819824,
        0.4756510555744171
      ],
      "min": [
        -0.3839435279369354,
        -0.015743380412459373,
        -0.363153338432312
      ],
      "type": "VEC3"
    },
    {
      "bufferView": 2,
      "byteOffset": 324900,
      "componentType": 5126,
      "count": 7437,
      "max": [
        1.0,
        1.0,
        1.0
      ],
      "min": [
        -1.0,
        -0.9990836977958679,
        -1.0
      ],
      "type": "VEC3"
    },
    {
      "bufferView": 1,
      "byteOffset": 131072,
      "componentType": 5126,
      "count": 7437,
      "max": [
        0.3674752116203308,
        0.9973090887069702
      ],
      "min": [
        0.11989299952983856,
        0.0023641586303710938
      ],
      "type": "VEC2"
    },
    {
      "bufferView": 1,
      "byteOffset": 190568,
      "componentType": 5126,
      "count": 7437,
      "max": [
        0.3674752116203308,
        0.9973090887069702
      ],
      "min": [
        0.11989299952983856,
        0.0023641586303710938
      ],
      "type": "VEC2"
    },
    {
      "bufferView": 1,
      "byteOffset": 250064,
      "componentType": 5126,
      "count": 7437,
      "max": [
        0.3674752116203308,
        0.9973090887069702
      ],
      "min": [
        0.11989299952983856,
        0.0023641586303710938
      ],
      "type": "VEC2"
    },
    {
      "bufferView": 0,
      "byteOffset": 171600,
      "componentType": 5125,
      "count": 35202,
      "type": "SCALAR"
    },
    {
      "bufferView": 2,
      "byteOffset": 414144,
      "componentType": 5126,
      "count": 1008,
      "max": [
        0.017621614038944244,
        0.011022152379155159,
        0.47548630833625793
      ],
      "min": [
        -0.3678567707538605,
        -0.011564268730580807,
        -0.36266693472862244
      ],
      "type": "VEC3"
    },
    {
      "bufferView": 2,
      "byteOffset": 426240,
      "componentType": 5126,
      "count": 1008,
      "max": [
        1.0,
        1.0,
        1.0
      ],
      "min": [
        -1.0,
        -1.0,
        -1.0
      ],
      "type": "VEC3"
    },
    {
      "bufferView": 1,
      "byteOffset": 309560,
      "componentType": 5126,
      "count": 1008,
      "max": [
        0.30343711376190186,
        0.9971135854721069
      ],
      "min": [
        0.1485452950000763,
        0.0029410123825073242
      ],
      "type": "VEC2"
    },
    {
      "bufferView": 1,
      "byteOffset": 317624,
      "componentType": 5126,
      "count": 1008,
      "max": [
        0.30343711376190186,
        0.9971135854721069
      ],
      "min": [
        0.1485452950000763,
        0.0029410123825073242
      ],
      "type": "VEC2"
    },
    {
      "bufferView": 1,
      "byteOffset": 325688,
      "componentType": 5126,
      "count": 1008,
      "max": [
        0.30343711376190186,
        0.9971135854721069
      ],
      "min": [
        0.1485452950000763,
        0.0029410123825073242
      ],
      "type": "VEC2"
    },
    {
      "bufferView": 0,
      "byteOffset": 312408,
      "componentType": 5125,
      "count": 3396,
      "type": "SCALAR"
    },
    {
      "bufferView": 2,
      "byteOffset": 438336,
      "componentType": 5126,
      "count": 3344,
      "max": [
        0.01634369045495987,
        -0.015546107664704323,
        0.47564011812210083
      ],
      "min": [
        -0.3839435279369354,
        -0.02035866677761078,
        -0.36315324902534485
      ],
      "type": "VEC3"
    },
    {
      "bufferView": 2,
      "byteOffset": 478464,
      "componentType": 5126,
      "count": 3344,
      "max": [
        1.0,
        0.0,
        1.0
      ],
      "min": [
        -1.0,
        -1.0,
        -1.0
      ],
      "type": "VEC3"
    },
    {
      "bufferView": 1,
      "byteOffset": 333752,
      "componentType": 5126,
      "count": 3344,
      "max": [
        0.12129359692335129,
        0.9972959756851196
      ],
      "min": [
        0.08825072646141052,
        0.0023641586303710938
      ],
      "type": "VEC2"
    },
    {
      "bufferView": 1,
      "byteOffset": 360504,
      "componentType": 5126,
      "count": 3344,
      "max": [
        0.12129359692335129,
        0.9972959756851196
      ],
      "min": [
        0.08825072646141052,
        0.0023641586303710938
      ],
      "type": "VEC2"
    },
    {
      "bufferView": 1,
      "byteOffset": 387256,
      "componentType": 5126,
      "count": 3344,
      "max": [
        0.12129359692335129,
        0.9972959756851196
      ],
      "min": [
        0.08825072646141052,
        0.0023641586303710938
      ],
      "type": "VEC2"
    },
    {
      "bufferView": 0,
      "byteOffset": 325992,
      "componentType": 5125,
      "count": 17052,
      "type": "SCALAR"
    },
    {
      "bufferView": 2,
      "byteOffset": 518592,
      "componentType": 5126,
      "count": 4875,
      "max": [
        0.04620649665594101,
        0.013654139824211597,
        0.132912740111351
      ],
      "min": [
        -0.1318826675415039,
        -0.042049672454595566,
        -0.15121658146381378
      ],
      "type": "VEC3"
    },
    {
      "bufferView": 2,
      "byteOffset": 577092,
      "componentType": 5126,
      "count": 4875,
      "max": [
        1.0,
        1.0,
        1.0
      ],
      "min": [
        -1.0,
        -1.0,
        -1.0
      ],
      "type": "VEC3"
    },
    {
      "bufferView": 1,
      "byteOffset": 414008,
      "componentType": 5126,
      "count": 4875,
      "max": [
        0.9997472167015076,
        0.9962121248245239
      ],
      "min": [
        0.04441623017191887,
        0.33879512548446655
      ],
      "type": "VEC2"
    },
    {
      "bufferView": 1,
      "byteOffset": 453008,
      "componentType": 5126,
      "count": 4875,
      "max": [
        0.6813216209411621,
        1.7599239349365234
      ],
      "min": [
        -2.72337007522583,
        1.0
      ],
      "type": "VEC2"
    },
    {
      "bufferView": 0,
      "byteOffset": 394200,
      "componentType": 5125,
      "count": 16668,
      "type": "SCALAR"
    },
    {
      "bufferView": 2,
      "byteOffset": 635592,
      "componentType": 5126,
      "count": 1730,
      "max": [
        0.1771962195634842,
        -0.011635606177151203,
        -0.1033388301730156
      ],
      "min": [
        0.07097149640321732,
        -0.01661265455186367,
        -0.39612704515457153
      ],
      "type": "VEC3"
    },
    {
      "bufferView": 2,
      "byteOffset": 656352,
      "componentType": 5126,
      "count": 1730,
      "max": [
        0.9989915490150452,
        -0.0427975170314312,
        0.9990004897117615
      ],
      "min": [
        -0.9989915490150452,
        -1.0,
        -0.9990004897117615
      ],
      "type": "VEC3"
    },
    {
      "bufferView": 1,
      "byteOffset": 492008,
      "componentType": 5126,
      "count": 1730,
      "max": [
        0.15706530213356018,
        0.3772590160369873
      ],
      "min": [
        0.030853550881147385,
        0.02945464849472046
      ],
      "type": "VEC2"
    },
    {
      "bufferView": 1,
      "byteOffset": 505848,
      "componentType": 5126,
      "count": 1730,
      "max": [
        0.7296395897865295,
        0.36918598413467407
      ],
      "min": [
        0.5346850156784058,
        0.010703980922698975
      ],
      "type": "VEC2"
    },
    {
      "bufferView": 1,
      "byteOffset": 519688,
      "componentType": 5126,
      "count": 1730,
      "max": [
        1.0332239866256714,
        5.675065994262695
      ],
      "min": [
        -1.0386430025100708,
        -0.03441953659057617
      ],
      "type": "VEC2"
    },
    {
      "bufferView": 1,
      "byteOffset": 533528,
      "componentType": 5126,
      "count": 1730,
      "max": [
        0.15706530213356018,
        0.3772590160369873
      ],
      "min": [
        0.030853550881147385,
        0.02945464849472046
      ],
      "type": "VEC2"
    },
    {
      "bufferView": 1,
      "byteOffset": 547368,
      "componentType": 5126,
      "count": 1730,
      "max": [
        0.15706530213356018,
        0.3772590160369873
      ],
      "min": [
        0.030853550881147385,
        0.02945464849472046
      ],
      "type": "VEC2"
    },
    {
      "bufferView": 0,
      "byteOffset": 460872,
      "componentType": 5125,
      "count": 6336,
      "type": "SCALAR"
    },
    {
      "bufferView": 2,
      "byteOffset": 677112,
      "componentType": 5126,
      "count": 241,
      "max": [
        0.1771962195634842,
        -0.009430071339011192,
        -0.1033388301730156
      ],
      "min": [
        0.07097149640321732,
        -0.01404970046132803,
        -0.39612704515457153
      ],
      "type": "VEC3"
    },
    {
      "bufferView": 2,
      "byteOffset": 680004,
      "componentType": 5126,
      "count": 241,
      "max": [
        1.0,
        0.0,
        1.0
      ],
      "min": [
        -1.0,
        0.0,
        -1.0
      ],
      "type": "VEC3"
    },
    {
      "bufferView": 1,
      "byteOffset": 561208,
      "componentType": 5126,
      "count": 241,
      "max": [
        0.15706530213356018,
        0.3772590160369873
      ],
      "min": [
        0.030853550881147385,
        0.02945464849472046
      ],
      "type": "VEC2"
    },
    {
      "bufferView": 1,
      "byteOffset": 563136,
      "componentType": 5126,
      "count": 241,
      "max": [
        0.6742494106292725,
        0.43752068281173706
      ],
      "min": [
        0.5095952749252319,
        0.007508993148803711
      ],
      "type": "VEC2"
    },
    {
      "bufferView": 1,
      "byteOffset": 565064,
      "componentType": 5126,
      "count": 241,
      "max": [
        1.0332239866256714,
        5.675065994262695
      ],
      "min": [
        -1.0386430025100708,
        -0.03441953659057617
      ],
      "type": "VEC2"
    },
    {
      "bufferView": 1,
      "byteOffset": 566992,
      "componentType": 5126,
      "count": 241,
      "max": [
        0.15706530213356018,
        0.3772590160369873
      ],
      "min": [
        0.030853550881147385,
        0.02945464849472046
      ],
      "type": "VEC2"
    },
    {
      "bufferView": 1,
      "byteOffset": 568920,
      "componentType": 5126,
      "count": 241,
      "max": [
        0.15706530213356018,
        0.3772590160369873
      ],
      "min": [
        0.030853550881147385,
        0.02945464849472046
      ],
      "type": "VEC2"
    },
    {
      "bufferView": 0,
      "byteOffset": 486216,
      "componentType": 5125,
      "count": 720,
      "type": "SCALAR"
    },
    {
      "bufferView": 2,
      "byteOffset": 682896,
      "componentType": 5126,
      "count": 1500,
      "max": [
        0.1944950968027115,
        -0.0007248766487464309,
        0.41390225291252136
      ],
      "min": [
        -0.19449864327907562,
        -0.0030230286065489054,
        -0.41360920667648315
      ],
      "type": "VEC3"
    },
    {
      "bufferView": 2,
      "byteOffset": 700896,
      "componentType": 5126,
      "count": 1500,
      "max": [
        1.0,
        0.0,
        1.0
      ],
      "min": [
        -1.0,
        -1.0,
        -1.0
      ],
      "type": "VEC3"
    },
    {
      "bufferView": 1,
      "byteOffset": 570848,
      "componentType": 5126,
      "count": 1500,
      "max": [
        0.4700855016708374,
        1.0
      ],
      "min": [
        0.0,
        0.0
      ],
      "type": "VEC2"
    },
    {
      "bufferView": 1,
      "byteOffset": 582848,
      "componentType": 5126,
      "count": 1500,
      "max": [
        0.0,
        1.0
      ],
      "min": [
        0.0,
        1.0
      ],
      "type": "VEC2"
    },
    {
      "bufferView": 1,
      "byteOffset": 594848,
      "componentType": 5126,
      "count": 1500,
      "max": [
        0.0,
        1.0
      ],
      "min": [
        0.0,
        1.0
      ],
      "type": "VEC2"
    },
    {
      "bufferView": 1,
      "byteOffset": 606848,
      "componentType": 5126,
      "count": 1500,
      "max": [
        0.4700855016708374,
        1.0
      ],
      "min": [
        0.0,
        0.0
      ],
      "type": "VEC2"
    },
    {
      "bufferView": 1,
      "byteOffset": 618848,
      "componentType": 5126,
      "count": 1500,
      "max": [
        0.4700855016708374,
        1.0
      ],
      "min": [
        0.0,
        0.0
      ],
      "type": "VEC2"
    },
    {
      "bufferView": 0,
      "byteOffset": 489096,
      "componentType": 5125,
      "count": 6372,
      "type": "SCALAR"
    },
    {
      "bufferView": 2,
      "byteOffset": 718896,
      "componentType": 5126,
      "count": 1600,
      "max": [
        0.11802853643894196,
        0.004667958244681358,
        0.13921186327934265
      ],
      "min": [
        -0.04573068395256996,
        -0.011346247047185898,
        -0.13901586830615997
      ],
      "type": "VEC3"
    },
    {
      "bufferView": 2,
      "byteOffset": 738096,
      "componentType": 5126,
      "count": 1600,
      "max": [
        0.6397121548652649,
        1.0,
        0.6394956111907959
      ],
      "min": [
        -0.6397121548652649,
        0.768269419670105,
        -0.6394956111907959
      ],
      "type": "VEC3"
    },
    {
      "bufferView": 1,
      "byteOffset": 630848,
      "componentType": 5126,
      "count": 1600,
      "max": [
        0.9794197082519531,
        0.9800686240196228
      ],
      "min": [
        0.01992456056177616,
        0.01987004280090332
      ],
      "type": "VEC2"
    },
    {
      "bufferView": 1,
      "byteOffset": 643648,
      "componentType": 5126,
      "count": 1600,
      "max": [
        0.6684430241584778,
        1.0518020391464233
      ],
      "min": [
        -0.6684597134590149,
        1.0518020391464233
      ],
      "type": "VEC2"
    },
    {
      "bufferView": 1,
      "byteOffset": 656448,
      "componentType": 5126,
      "count": 1600,
      "max": [
        0.0,
        1.0
      ],
      "min": [
        0.0,
        1.0
      ],
      "type": "VEC2"
    },
    {
      "bufferView": 0,
      "byteOffset": 514584,
      "componentType": 5125,
      "count": 7680,
      "type": "SCALAR"
    },
    {
      "bufferView": 2,
      "byteOffset": 757296,
      "componentType": 5126,
      "count": 456,
      "max": [
        0.054755520075559616,
        -0.011760260909795761,
        0.148121178150177
      ],
      "min": [
        -0.055052872747182846,
        -0.015603827312588692,
        -0.148213192820549
      ],
      "type": "VEC3"
    },
    {
      "bufferView": 2,
      "byteOffset": 762768,
      "componentType": 5126,
      "count": 456,
      "max": [
        0.9999688863754272,
        0.9775443077087402,
        0.9997143745422363
      ],
      "min": [
        -0.9999696016311646,
        -0.024001147598028183,
        -0.9997120499610901
      ],
      "type": "VEC3"
    },
    {
      "bufferView": 1,
      "byteOffset": 669248,
      "componentType": 5126,
      "count": 456,
      "max": [
        0.6243948936462402,
        1.0
      ],
      "min": [
        0.47367799282073975,
        0.6144999861717224
      ],
      "type": "VEC2"
    },
    {
      "bufferView": 1,
      "byteOffset": 672896,
      "componentType": 5126,
      "count": 456,
      "max": [
        1.0678340196609497,
        2.8203229904174805
      ],
      "min": [
        -1.0735770463943481,
        -0.06899499893188477
      ],
      "type": "VEC2"
    },
    {
      "bufferView": 1,
      "byteOffset": 676544,
      "componentType": 5126,
      "count": 456,
      "max": [
        0.6243948936462402,
        1.0
      ],
      "min": [
        0.47367799282073975,
        0.6144999861717224
      ],
      "type": "VEC2"
    },
    {
      "bufferView": 0,
      "byteOffset": 545304,
      "componentType": 5125,
      "count": 1824,
      "type": "SCALAR"
    },
    {
      "bufferView": 2,
      "byteOffset": 768240,
      "componentType": 5126,
      "count": 312,
      "max": [
        0.05472839996218681,
        -0.015606262721121311,
        0.14804776012897491
      ],
      "min": [
        -0.05502559617161751,
        -0.018173400312662125,
        -0.1481398344039917
      ],
      "type": "VEC3"
    },
    {
      "bufferView": 2,
      "byteOffset": 771984,
      "componentType": 5126,
      "count": 312,
      "max": [
        0.9560467600822449,
        -0.2932143211364746,
        0.7946226596832275
      ],
      "min": [
        -0.955990731716156,
        -1.0,
        -0.7945745587348938
      ],
      "type": "VEC3"
    },
    {
      "bufferView": 1,
      "byteOffset": 680192,
      "componentType": 5126,
      "count": 312,
      "max": [
        0.3548676073551178,
        1.0
      ],
      "min": [
        0.2270675003528595,
        0.5974298119544983
      ],
      "type": "VEC2"
    },
    {
      "bufferView": 1,
      "byteOffset": 682688,
      "componentType": 5126,
      "count": 312,
      "max": [
        1.067302942276001,
        2.8203229904174805
      ],
      "min": [
        -1.0730479955673218,
        -0.06756401062011719
      ],
      "type": "VEC2"
    },
    {
      "bufferView": 0,
      "byteOffset": 552600,
      "componentType": 5125,
      "count": 912,
      "type": "SCALAR"
    },
    {
      "bufferView": 2,
      "byteOffset": 775728,
      "componentType": 5126,
      "count": 2058,
      "max": [
        0.11368561536073685,
        0.002401127712801099,
        0.13283775746822357
      ],
      "min": [
        -0.039345450699329376,
        -0.01481567695736885,
        -0.13264134526252747
      ],
      "type": "VEC3"
    },
    {
      "bufferView": 2,
      "byteOffset": 800424,
      "componentType": 5126,
      "count": 2058,
      "max": [
        1.0,
        1.0,
        1.0
      ],
      "min": [
        -1.0,
        -1.0,
        -1.0
      ],
      "type": "VEC3"
    },
    {
      "bufferView": 1,
      "byteOffset": 685184,
      "componentType": 5126,
      "count": 2058,
      "max": [
        1.0000300407409668,
        1.0
      ],
      "min": [
        0.8226920962333679,
        0.21321749687194824
      ],
      "type": "VEC2"
    },
    {
      "bufferView": 1,
      "byteOffset": 701648,
      "componentType": 5126,
      "count": 2058,
      "max": [
        0.6813216805458069,
        1.0518020391464233
      ],
      "min": [
        -0.6813390851020813,
        1.0518020391464233
      ],
      "type": "VEC2"
    },
    {
      "bufferView": 1,
      "byteOffset": 718112,
      "componentType": 5126,
      "count": 2058,
      "max": [
        0.0,
        1.0
      ],
      "min": [
        0.0,
        1.0
      ],
      "type": "VEC2"
    },
    {
      "bufferView": 0,
      "byteOffset": 556248,
      "componentType": 5125,
      "count": 6144,
      "type": "SCALAR"
    },
    {
      "bufferView": 2,
      "byteOffset": 825120,
      "componentType": 5126,
      "count": 49,
      "max": [
        0.1307062953710556,
        -0.05850886180996895,
        -0.13019488751888275
      ],
      "min": [
        0.11716484278440475,
        -0.058511316776275635,
        -0.14366236329078674
      ],
      "type": "VEC3"
    },
    {
      "bufferView": 2,
      "byteOffset": 825708,
      "componentType": 5126,
      "count": 49,
      "max": [
        0.000899999460671097,
        -0.9999985694885254,
        0.0008999996352940798
      ],
      "min": [
        -0.001699997577816248,
        -1.0,
        -9.999999747378752e-05
      ],
      "type": "VEC3"
    },
    {
      "bufferView": 1,
      "byteOffset": 734576,
      "componentType": 5126,
      "count": 49,
      "max": [
        0.8227767944335938,
        0.9999998807907104
      ],
      "min": [
        1.0501390335093674e-07,
        0.17277902364730835
      ],
      "type": "VEC2"
    },
    {
      "bufferView": 1,
      "byteOffset": 734968,
      "componentType": 5126,
      "count": 49,
      "max": [
        0.0,
        1.0
      ],
      "min": [
        0.0,
        1.0
      ],
      "type": "VEC2"
    },
    {
      "bufferView": 1,
      "byteOffset": 735360,
      "componentType": 5126,
      "count": 49,
      "max": [
        0.47979220747947693,
        0.9999303221702576
      ],
      "min": [
        0.4616309106349945,
        0.9816709160804749
      ],
      "type": "VEC2"
    },
    {
      "bufferView": 0,
      "byteOffset": 580824,
      "componentType": 5125,
      "count": 90,
      "type": "SCALAR"
    },
    {
      "bufferView": 2,
      "byteOffset": 826296,
      "componentType": 5126,
      "count": 159,
      "max": [
        0.05404523015022278,
        -0.011760260909795761,
        0.14740994572639465
      ],
      "min": [
        -0.05434504151344299,
        -0.011760260909795761,
        -0.14750197529792786
      ],
      "type": "VEC3"
    },
    {
      "bufferView": 2,
      "byteOffset": 828204,
      "componentType": 5126,
      "count": 159,
      "max": [
        0.0,
        1.0,
        0.0
      ],
      "min": [
        0.0,
        1.0,
        0.0
      ],
      "type": "VEC3"
    },
    {
      "bufferView": 1,
      "byteOffset": 735752,
      "componentType": 5126,
      "count": 159,
      "max": [
        0.6189413070678711,
        0.9944226741790771
      ],
      "min": [
        0.4791676998138428,
        0.6200780868530273
      ],
      "type": "VEC2"
    },
    {
      "bufferView": 1,
      "byteOffset": 737024,
      "componentType": 5126,
      "count": 159,
      "max": [
        1.0538519620895386,
        2.8203229904174805
      ],
      "min": [
        -1.0597259998321533,
        -0.05512571334838867
      ],
      "type": "VEC2"
    },
    {
      "bufferView": 1,
      "byteOffset": 738296,
      "componentType": 5126,
      "count": 159,
      "max": [
        0.6189413070678711,
        0.9944226741790771
      ],
      "min": [
        0.4791676998138428,
        0.6200780868530273
      ],
      "type": "VEC2"
    },
    {
      "bufferView": 0,
      "byteOffset": 581184,
      "componentType": 5125,
      "count": 720,
      "type": "SCALAR"
    },
    {
      "bufferView": 2,
      "byteOffset": 830112,
      "componentType": 5126,
      "count": 432,
      "max": [
        0.014999928884208202,
        0.0018569002859294415,
        0.01146280113607645
      ],
      "min": [
        -0.014999440871179104,
        -0.001856514485552907,
        -0.0035629821941256523
      ],
      "type": "VEC3"
    },
    {
      "bufferView": 2,
      "byteOffset": 835296,
      "componentType": 5126,
      "count": 432,
      "max": [
        0.7085054516792297,
        1.0,
        0.7058055996894836
      ],
      "min": [
        -0.7058055996894836,
        -1.0,
        0.0
      ],
      "type": "VEC3"
    },
    {
      "bufferView": 1,
      "byteOffset": 739568,
      "componentType": 5126,
      "count": 432,
      "max": [
        0.9559828042984009,
        0.9995285868644714
      ],
      "min": [
        0.6417639851570129,
        0.08174985647201538
      ],
      "type": "VEC2"
    },
    {
      "bufferView": 1,
      "byteOffset": 743024,
      "componentType": 5126,
      "count": 432,
      "max": [
        2.924992084503174,
        -2.496649980545044
      ],
      "min": [
        -2.925004005432129,
        -2.5466489791870117
      ],
      "type": "VEC2"
    },
    {
      "bufferView": 0,
      "byteOffset": 584064,
      "componentType": 5125,
      "count": 720,
      "type": "SCALAR"
    },
    {
      "bufferView": 2,
      "byteOffset": 840480,
      "componentType": 5126,
      "count": 2464,
      "max": [
        0.02403477020561695,
        0.017549417912960052,
        0.13670891523361206
      ],
      "min": [
        -0.1356823444366455,
        0.0002917227684520185,
        -0.13673540949821472
      ],
      "type": "VEC3"
    },
    {
      "bufferView": 2,
      "byteOffset": 870048,
      "componentType": 5126,
      "count": 2464,
      "max": [
        1.0,
        1.0,
        1.0
      ],
      "min": [
        -1.0,
        -1.0,
        -1.0
      ],
      "type": "VEC3"
    },
    {
      "bufferView": 1,
      "byteOffset": 746480,
      "componentType": 5126,
      "count": 2464,
      "max": [
        0.9455695152282715,
        0.955502986907959
      ],
      "min": [
        0.0011384449899196625,
        0.054430484771728516
      ],
      "type": "VEC2"
    },
    {
      "bufferView": 1,
      "byteOffset": 766192,
      "componentType": 5126,
      "count": 2464,
      "max": [
        0.750006914138794,
        1.051643967628479
      ],
      "min": [
        -0.7500017881393433,
        0.9622657895088196
      ],
      "type": "VEC2"
    },
    {
      "bufferView": 1,
      "byteOffset": 785904,
      "componentType": 5126,
      "count": 2464,
      "max": [
        0.9455695152282715,
        0.955502986907959
      ],
      "min": [
        0.0011384449899196625,
        0.054430484771728516
      ],
      "type": "VEC2"
    },
    {
      "bufferView": 0,
      "byteOffset": 586944,
      "componentType": 5125,
      "count": 9600,
      "type": "SCALAR"
    },
    {
      "bufferView": 2,
      "byteOffset": 899616,
      "componentType": 5126,
      "count": 4,
      "max": [
        0.21050474047660828,
        -0.022209439426660538,
        -0.1855209767818451
      ],
      "min": [
        0.19425822794437408,
        -0.022209439426660538,
        -0.2189789116382599
      ],
      "type": "VEC3"
    },
    {
      "bufferView": 2,
      "byteOffset": 899664,
      "componentType": 5126,
      "count": 4,
      "max": [
        0.0,
        -1.0,
        0.0
      ],
      "min": [
        0.0,
        -1.0,
        0.0
      ],
      "type": "VEC3"
    },
    {
      "bufferView": 1,
      "byteOffset": 805616,
      "componentType": 5126,
      "count": 4,
      "max": [
        1.0,
        1.0
      ],
      "min": [
        0.0,
        0.0
      ],
      "type": "VEC2"
    },
    {
      "bufferView": 1,
      "byteOffset": 805648,
      "componentType": 5126,
      "count": 4,
      "max": [
        4.1049299240112305,
        0.5669071674346924
      ],
      "min": [
        3.788111925125122,
        0.5669071674346924
      ],
      "type": "VEC2"
    },
    {
      "bufferView": 0,
      "byteOffset": 625344,
      "componentType": 5125,
      "count": 6,
      "type": "SCALAR"
    },
    {
      "bufferView": 2,
      "byteOffset": 899712,
      "componentType": 5126,
      "count": 384,
      "max": [
        -0.05169466882944107,
        0.009349795058369637,
        0.13394665718078613
      ],
      "min": [
        -0.13291627168655396,
        0.0020009439904242754,
        -0.13390637934207916
      ],
      "type": "VEC3"
    },
    {
      "bufferView": 2,
      "byteOffset": 904320,
      "componentType": 5126,
      "count": 384,
      "max": [
        1.0,
        9.999878238886595e-05,
        1.0
      ],
      "min": [
        -0.9999982118606567,
        -0.00039998284773901105,
        -1.0
      ],
      "type": "VEC3"
    },
    {
      "bufferView": 1,
      "byteOffset": 805680,
      "componentType": 5126,
      "count": 384,
      "max": [
        0.4932047128677368,
        1.0
      ],
      "min": [
        0.1969940960407257,
        0.6174763441085815
      ],
      "type": "VEC2"
    },
    {
      "bufferView": 1,
      "byteOffset": 808752,
      "componentType": 5126,
      "count": 384,
      "max": [
        0.7124996185302734,
        1.0702660083770752
      ],
      "min": [
        -0.712500274181366,
        1.0702660083770752
      ],
      "type": "VEC2"
    },
    {
      "bufferView": 1,
      "byteOffset": 811824,
      "componentType": 5126,
      "count": 384,
      "max": [
        0.4932047128677368,
        1.0
      ],
      "min": [
        0.1969940960407257,
        0.6174763441085815
      ],
      "type": "VEC2"
    },
    {
      "bufferView": 0,
      "byteOffset": 625368,
      "componentType": 5125,
      "count": 1152,
      "type": "SCALAR"
    },
    {
      "bufferView": 2,
      "byteOffset": 908928,
      "componentType": 5126,
      "count": 828,
      "max": [
        0.1944950968027115,
        0.0011497572995722294,
        0.41375571489334106
      ],
      "min": [
        -0.1944986879825592,
        -0.0006433060043491423,
        -0.41375571489334106
      ],
      "type": "VEC3"
    },
    {
      "bufferView": 2,
      "byteOffset": 918864,
      "componentType": 5126,
      "count": 828,
      "max": [
        1.0,
        0.0,
        1.0
      ],
      "min": [
        -1.0,
        -1.0,
        -1.0
      ],
      "type": "VEC3"
    },
    {
      "bufferView": 1,
      "byteOffset": 814896,
      "componentType": 5126,
      "count": 828,
      "max": [
        0.4700855016708374,
        0.9999998807907104
      ],
      "min": [
        0.0,
        -1.1920928955078125e-07
      ],
      "type": "VEC2"
    },
    {
      "bufferView": 0,
      "byteOffset": 629976,
      "componentType": 5125,
      "count": 2820,
      "type": "SCALAR"
    },
    {
      "bufferView": 2,
      "byteOffset": 928800,
      "componentType": 5126,
      "count": 100,
      "max": [
        0.041627027094364166,
        -0.0007151630125008523,
        -0.28618761897087097
      ],
      "min": [
        0.021631861105561256,
        -0.0030230251140892506,
        -0.30616751313209534
      ],
      "type": "VEC3"
    },
    {
      "bufferView": 2,
      "byteOffset": 930000,
      "componentType": 5126,
      "count": 100,
      "max": [
        1.0,
        0.0,
        1.0
      ],
      "min": [
        -1.0,
        -1.0,
        -1.0
      ],
      "type": "VEC3"
    },
    {
      "bufferView": 1,
      "byteOffset": 821520,
      "componentType": 5126,
      "count": 100,
      "max": [
        0.2035692036151886,
        0.2145599126815796
      ],
      "min": [
        0.1737692952156067,
        0.17960411310195923
      ],
      "type": "VEC2"
    },
    {
      "bufferView": 0,
      "byteOffset": 641256,
      "componentType": 5125,
      "count": 288,
      "type": "SCALAR"
    },
    {
      "bufferView": 2,
      "byteOffset": 931200,
      "componentType": 5126,
      "count": 312,
      "max": [
        0.18744611740112305,
        0.03410203754901886,
        0.40683823823928833
      ],
      "min": [
        -0.18743456900119781,
        0.03410203754901886,
        -0.40654513239860535
      ],
      "type": "VEC3"
    },
    {
      "bufferView": 2,
      "byteOffset": 934944,
      "componentType": 5126,
      "count": 312,
      "max": [
        0.0,
        1.0,
        0.0
      ],
      "min": [
        0.0,
        1.0,
        0.0
      ],
      "type": "VEC3"
    },
    {
      "bufferView": 1,
      "byteOffset": 822320,
      "componentType": 5126,
      "count": 312,
      "max": [
        1.0,
        1.0
      ],
      "min": [
        0.0,
        0.0
      ],
      "type": "VEC2"
    },
    {
      "bufferView": 0,
      "byteOffset": 642408,
      "componentType": 5125,
      "count": 1272,
      "type": "SCALAR"
    },
    {
      "bufferView": 2,
      "byteOffset": 938688,
      "componentType": 5126,
      "count": 3747,
      "max": [
        0.19449520111083984,
        0.03410608693957329,
        0.4139023423194885
      ],
      "min": [
        -0.19449864327907562,
        0.0326918363571167,
        -0.4136092960834503
      ],
      "type": "VEC3"
    },
    {
      "bufferView": 2,
      "byteOffset": 983652,
      "componentType": 5126,
      "count": 3747,
      "max": [
        1.0,
        1.0,
        1.0
      ],
      "min": [
        -1.0,
        0.0,
        -1.0
      ],
      "type": "VEC3"
    },
    {
      "bufferView": 1,
      "byteOffset": 824816,
      "componentType": 5126,
      "count": 3747,
      "max": [
        0.4981687068939209,
        0.9999287128448486
      ],
      "min": [
        7.127523713279516e-05,
        7.128715515136719e-05
      ],
      "type": "VEC2"
    },
    {
      "bufferView": 0,
      "byteOffset": 647496,
      "componentType": 5125,
      "count": 7374,
      "type": "SCALAR"
    },
    {
      "bufferView": 2,
      "byteOffset": 1028616,
      "componentType": 5126,
      "count": 2147,
      "max": [
        0.024123700335621834,
        0.017024194821715355,
        0.13670887053012848
      ],
      "min": [
        -0.13568516075611115,
        -0.00890407059341669,
        -0.1367354542016983
      ],
      "type": "VEC3"
    },
    {
      "bufferView": 2,
      "byteOffset": 1054380,
      "componentType": 5126,
      "count": 2147,
      "max": [
        1.0,
        0.12479745596647263,
        1.0
      ],
      "min": [
        -1.0,
        -1.0,
        -1.0
      ],
      "type": "VEC3"
    },
    {
      "bufferView": 1,
      "byteOffset": 854792,
      "componentType": 5126,
      "count": 2147,
      "max": [
        1.0,
        0.9998208284378052
      ],
      "min": [
        0.0002259265020256862,
        0.08354431390762329
      ],
      "type": "VEC2"
    },
    {
      "bufferView": 1,
      "byteOffset": 871968,
      "componentType": 5126,
      "count": 2147,
      "max": [
        0.750006914138794,
        1.0704330205917358
      ],
      "min": [
        -0.7500017881393433,
        0.9722638130187988
      ],
      "type": "VEC2"
    },
    {
      "bufferView": 1,
      "byteOffset": 889144,
      "componentType": 5126,
      "count": 2147,
      "max": [
        1.0,
        0.9998208284378052
      ],
      "min": [
        0.0002259265020256862,
        0.08354431390762329
      ],
      "type": "VEC2"
    },
    {
      "bufferView": 0,
      "byteOffset": 676992,
      "componentType": 5125,
      "count": 7404,
      "type": "SCALAR"
    },
    {
      "bufferView": 2,
      "byteOffset": 1080144,
      "componentType": 5126,
      "count": 1182,
      "max": [
        0.12738037109375,
        -0.0037326652090996504,
        0.1117159053683281
      ],
      "min": [
        -0.018299994990229607,
        -0.05743757635354996,
        -0.14014442265033722
      ],
      "type": "VEC3"
    },
    {
      "bufferView": 2,
      "byteOffset": 1094328,
      "componentType": 5126,
      "count": 1182,
      "max": [
        1.0,
        1.0,
        1.0
      ],
      "min": [
        -1.0,
        -1.0,
        -1.0
      ],
      "type": "VEC3"
    },
    {
      "bufferView": 1,
      "byteOffset": 906320,
      "componentType": 5126,
      "count": 1182,
      "max": [
        0.9078217148780823,
        0.9906430840492249
      ],
      "min": [
        0.01379880029708147,
        0.05551564693450928
      ],
      "type": "VEC2"
    },
    {
      "bufferView": 1,
      "byteOffset": 915776,
      "componentType": 5126,
      "count": 1182,
      "max": [
        0.2926686108112335,
        1.0525649785995483
      ],
      "min": [
        -0.6813390851020813,
        1.0
      ],
      "type": "VEC2"
    },
    {
      "bufferView": 0,
      "byteOffset": 706608,
      "componentType": 5125,
      "count": 6198,
      "type": "SCALAR"
    },
    {
      "bufferView": 2,
      "byteOffset": 1108512,
      "componentType": 5126,
      "count": 1710,
      "max": [
        0.06018237769603729,
        0.009204363450407982,
        1.2016803907499707e-07
      ],
      "min": [
        -0.06031031906604767,
        -0.009203989058732986,
        1.2016803907499707e-07
      ],
      "type": "VEC3"
    },
    {
      "bufferView": 2,
      "byteOffset": 1129032,
      "componentType": 5126,
      "count": 1710,
      "max": [
        0.0,
        0.7069653868675232,
        1.0
      ],
      "min": [
        0.0,
        0.0,
        0.7072481513023376
      ],
      "type": "VEC3"
    },
    {
      "bufferView": 1,
      "byteOffset": 925232,
      "componentType": 5126,
      "count": 1710,
      "max": [
        0.8489379286766052,
        0.9997903108596802
      ],
      "min": [
        0.00020966700685676187,
        0.00020962953567504883
      ],
      "type": "VEC2"
    },
    {
      "bufferView": 0,
      "byteOffset": 731400,
      "componentType": 5125,
      "count": 5082,
      "type": "SCALAR"
    }
  ],
  "asset": {
    "extras": {
      "author": "Sagar Modi (https://sketchfab.com/modis1761)",
      "license": "CC-BY-4.0 (http://creativecommons.org/licenses/by/4.0/)",
      "source": "https://sketchfab.com/3d-models/samsung-s26-ultra-7ff228963ea446f39f46a5541f71e352",
      "title": "Samsung S26 Ultra"
    },
    "generator": "Sketchfab-17.17.0",
    "version": "2.0"
  },
  "bufferViews": [
    {
      "buffer": 0,
      "byteLength": 751728,
      "name": "floatBufferViews",
      "target": 34963
    },
    {
      "buffer": 0,
      "byteLength": 938912,
      "byteOffset": 751728,
      "byteStride": 8,
      "name": "floatBufferViews",
      "target": 34962
    },
    {
      "buffer": 0,
      "byteLength": 1149552,
      "byteOffset": 1690640,
      "byteStride": 12,
      "name": "floatBufferViews",
      "target": 34962
    }
  ],
  "buffers": [
    {
      "byteLength": 2840192,
      "uri": "scene.bin"
    }
  ],
  "extensionsUsed": [
    "KHR_texture_transform",
    "KHR_materials_clearcoat"
  ],
  "images": [
    {
      "uri": "textures/Material_195_baseColor.jpeg"
    },
    {
      "uri": "textures/Material_195_metallicRoughness.png"
    },
    {
      "uri": "textures/Material_192_baseColor.jpeg"
    },
    {
      "uri": "textures/Material_187_baseColor.png"
    },
    {
      "uri": "textures/Material_187_metallicRoughness.png"
    },
    {
      "uri": "textures/Material_181_baseColor.png"
    },
    {
      "uri": "textures/Material_181_metallicRoughness.png"
    },
    {
      "uri": "textures/Material_180_baseColor.png"
    },
    {
      "uri": "textures/Material_167_metallicRoughness.png"
    },
    {
      "uri": "textures/Material_173_emissive.jpeg"
    },
    {
      "uri": "textures/Material_168_emissive.jpeg"
    }
  ],
  "materials": [
    {
      "doubleSided": true,
      "name": "Material_166",
      "pbrMetallicRoughness": {
        "baseColorFactor": [
          0.0309307,
          0.0356144,
          0.04,
          1.0
        ],
        "metallicFactor": 0.154545,
        "roughnessFactor": 0.6
      }
    },
    {
      "doubleSided": true,
      "extensions": {
        "KHR_materials_clearcoat": {
          "clearcoatFactor": 0.1,
          "clearcoatRoughnessFactor": 0.3
        }
      },
      "name": "Material_195",
      "pbrMetallicRoughness": {
        "baseColorTexture": {
          "index": 0
        },
        "metallicRoughnessTexture": {
          "extensions": {
            "KHR_texture_transform": {
              "offset": [
                0,
                -9
              ],
              "scale": [
                10,
                10
              ]
            }
          },
          "index": 1
        }
      }
    },
    {
      "doubleSided": true,
      "name": "Material_194",
      "pbrMetallicRoughness": {
        "baseColorFactor": [
          0.8,
          0.8,
          0.8,
          1.0
        ],
        "metallicFactor": 0.0,
        "roughnessFactor": 0.5
      }
    },
    {
      "doubleSided": true,
      "extensions": {
        "KHR_materials_clearcoat": {
          "clearcoatFactor": 0.1,
          "clearcoatRoughnessFactor": 0.3
        }
      },
      "name": "Material_193",
      "pbrMetallicRoughness": {
        "metallicRoughnessTexture": {
          "extensions": {
            "KHR_texture_transform": {
              "offset": [
                0,
                -9
              ],
              "scale": [
                10,
                10
              ]
            }
          },
          "index": 1
        }
      }
    },
    {
      "doubleSided": true,
      "name": "Material_190",
      "pbrMetallicRoughness": {
        "metallicFactor": 0.0,
        "roughnessFactor": 0.5
      }
    },
    {
      "doubleSided": true,
      "name": "Material_192",
      "pbrMetallicRoughness": {
        "baseColorTexture": {
          "index": 2
        },
        "metallicFactor": 0.5,
        "roughnessFactor": 0.4
      }
    },
    {
      "doubleSided": true,
      "name": "Material_191",
      "pbrMetallicRoughness": {
        "baseColorFactor": [
          0.0,
          0.0,
          0.0,
          1.0
        ],
        "metallicFactor": 0.0
      }
    },
    {
      "doubleSided": true,
      "extensions": {
        "KHR_materials_clearcoat": {
          "clearcoatFactor": 0.1,
          "clearcoatRoughnessFactor": 0.3
        }
      },
      "name": "Material_186",
      "pbrMetallicRoughness": {
        "baseColorTexture": {
          "index": 0
        },
        "metallicRoughnessTexture": {
          "extensions": {
            "KHR_texture_transform": {
              "offset": [
                0,
                -9
              ],
              "scale": [
                10,
                10
              ]
            }
          },
          "index": 1
        }
      }
    },
    {
      "doubleSided": true,
      "extensions": {
        "KHR_materials_clearcoat": {
          "clearcoatFactor": 0.1,
          "clearcoatRoughnessFactor": 0.3
        }
      },
      "name": "Material_189",
      "pbrMetallicRoughness": {
        "baseColorTexture": {
          "index": 0
        },
        "metallicRoughnessTexture": {
          "extensions": {
            "KHR_texture_transform": {
              "offset": [
                0,
                -9
              ],
              "scale": [
                10,
                10
              ]
            }
          },
          "index": 1
        }
      }
    },
    {
      "doubleSided": true,
      "extensions": {
        "KHR_materials_clearcoat": {
          "clearcoatFactor": 0.1,
          "clearcoatRoughnessFactor": 0.3
        }
      },
      "name": "Material_182",
      "pbrMetallicRoughness": {
        "baseColorTexture": {
          "index": 0
        },
        "metallicRoughnessTexture": {
          "extensions": {
            "KHR_texture_transform": {
              "offset": [
                0,
                -9
              ],
              "scale": [
                10,
                10
              ]
            }
          },
          "index": 1
        }
      }
    },
    {
      "doubleSided": true,
      "extensions": {
        "KHR_materials_clearcoat": {
          "clearcoatFactor": 0.1,
          "clearcoatRoughnessFactor": 0.3
        }
      },
      "name": "Material_185",
      "pbrMetallicRoughness": {
        "baseColorTexture": {
          "index": 0
        },
        "metallicRoughnessTexture": {
          "extensions": {
            "KHR_texture_transform": {
              "offset": [
                0,
                -9
              ],
              "scale": [
                10,
                10
              ]
            }
          },
          "index": 1
        }
      }
    },
    {
      "doubleSided": true,
      "name": "Material_188",
      "pbrMetallicRoughness": {
        "baseColorFactor": [
          0.0,
          0.0,
          0.0,
          1.0
        ],
        "metallicFactor": 0.9,
        "roughnessFactor": 0.8
      }
    },
    {
      "alphaMode": "BLEND",
      "doubleSided": true,
      "name": "Material_187",
      "pbrMetallicRoughness": {
        "baseColorTexture": {
          "index": 3
        },
        "metallicRoughnessTexture": {
          "index": 4
        }
      }
    },
    {
      "alphaMode": "BLEND",
      "doubleSided": true,
      "name": "Material_184",
      "pbrMetallicRoughness": {
        "baseColorTexture": {
          "index": 3
        },
        "metallicRoughnessTexture": {
          "index": 4
        }
      }
    },
    {
      "alphaMode": "BLEND",
      "doubleSided": true,
      "name": "Material_181",
      "pbrMetallicRoughness": {
        "baseColorTexture": {
          "index": 5
        },
        "metallicRoughnessTexture": {
          "index": 6
        }
      }
    },
    {
      "alphaMode": "BLEND",
      "doubleSided": true,
      "name": "Material_180",
      "pbrMetallicRoughness": {
        "baseColorTexture": {
          "index": 7
        },
        "roughnessFactor": 0.2
      }
    },
    {
      "doubleSided": true,
      "extensions": {
        "KHR_materials_clearcoat": {
          "clearcoatFactor": 0.1,
          "clearcoatRoughnessFactor": 0.3
        }
      },
      "name": "Material_175",
      "pbrMetallicRoughness": {
        "baseColorFactor": [
          0.681928,
          0.854991,
          1.0,
          1.0
        ],
        "metallicRoughnessTexture": {
          "extensions": {
            "KHR_texture_transform": {
              "offset": [
                0,
                -9
              ],
              "scale": [
                10,
                10
              ]
            }
          },
          "index": 1
        }
      }
    },
    {
      "doubleSided": true,
      "name": "Material_171",
      "pbrMetallicRoughness": {
        "baseColorFactor": [
          0.8,
          0.8,
          0.8,
          1.0
        ],
        "metallicFactor": 0.0,
        "roughnessFactor": 0.5
      }
    },
    {
      "alphaMode": "BLEND",
      "doubleSided": true,
      "extensions": {
        "KHR_materials_clearcoat": {
          "clearcoatFactor": 0.03125,
          "clearcoatRoughnessFactor": 0.0
        }
      },
      "name": "Material_179",
      "pbrMetallicRoughness": {
        "baseColorFactor": [
          0.2,
          0.2,
          0.2,
          0.2
        ],
        "roughnessFactor": 0.2
      }
    },
    {
      "alphaMode": "BLEND",
      "doubleSided": true,
      "extensions": {
        "KHR_materials_clearcoat": {
          "clearcoatFactor": 0.03125,
          "clearcoatRoughnessFactor": 0.0
        }
      },
      "name": "Material_170",
      "pbrMetallicRoughness": {
        "baseColorFactor": [
          0.2,
          0.2,
          0.2,
          0.2
        ],
        "roughnessFactor": 0.2
      }
    },
    {
      "doubleSided": true,
      "extensions": {
        "KHR_materials_clearcoat": {
          "clearcoatFactor": 0.1,
          "clearcoatRoughnessFactor": 0.3
        }
      },
      "name": "Material_167",
      "pbrMetallicRoughness": {
        "baseColorFactor": [
          0.681928,
          0.854991,
          1.0,
          1.0
        ],
        "metallicRoughnessTexture": {
          "extensions": {
            "KHR_texture_transform": {
              "offset": [
                0,
                -9
              ],
              "scale": [
                10,
                10
              ]
            }
          },
          "index": 8
        }
      }
    },
    {
      "doubleSided": true,
      "name": "Material_172",
      "pbrMetallicRoughness": {
        "baseColorFactor": [
          0.600816,
          0.497497,
          0.11739,
          1.0
        ],
        "roughnessFactor": 0.6
      }
    },
    {
      "doubleSided": true,
      "emissiveFactor": [
        0.0362116,
        0.0362114,
        0.0362115
      ],
      "extensions": {
        "KHR_materials_clearcoat": {
          "clearcoatFactor": 0.03125,
          "clearcoatRoughnessFactor": 0.2
        }
      },
      "name": "Material_183",
      "pbrMetallicRoughness": {
        "baseColorFactor": [
          0.0735145,
          0.0735145,
          0.0735145,
          1.0
        ],
        "metallicRoughnessTexture": {
          "extensions": {
            "KHR_texture_transform": {
              "offset": [
                0,
                -4
              ],
              "scale": [
                5,
                5
              ]
            }
          },
          "index": 1
        }
      }
    },
    {
      "doubleSided": true,
      "emissiveFactor": [
        0.00429926,
        0.00771131,
        0.0190971
      ],
      "extensions": {
        "KHR_materials_clearcoat": {
          "clearcoatFactor": 0.03125,
          "clearcoatRoughnessFactor": 0.2
        }
      },
      "name": "Material_178",
      "pbrMetallicRoughness": {
        "baseColorFactor": [
          0.0131291,
          0.026998,
          0.0824975,
          1.0
        ],
        "metallicFactor": 0.9,
        "roughnessFactor": 0.25
      }
    },
    {
      "doubleSided": true,
      "emissiveFactor": [
        0.0362116,
        0.0362114,
        0.0362115
      ],
      "extensions": {
        "KHR_materials_clearcoat": {
          "clearcoatFactor": 0.03125,
          "clearcoatRoughnessFactor": 0.2
        }
      },
      "name": "Material_177",
      "pbrMetallicRoughness": {
        "baseColorFactor": [
          0.0735145,
          0.0735145,
          0.0735145,
          1.0
        ],
        "metallicRoughnessTexture": {
          "extensions": {
            "KHR_texture_transform": {
              "offset": [
                0,
                -2
              ],
              "scale": [
                3,
                3
              ]
            }
          },
          "index": 1
        }
      }
    },
    {
      "doubleSided": true,
      "extensions": {
        "KHR_materials_clearcoat": {
          "clearcoatFactor": 0.03125,
          "clearcoatRoughnessFactor": 0.2
        }
      },
      "name": "Material_169",
      "pbrMetallicRoughness": {
        "baseColorFactor": [
          0.679543,
          0.854993,
          1.0,
          1.0
        ],
        "metallicFactor": 0.9,
        "roughnessFactor": 0.25
      }
    },
    {
      "alphaMode": "BLEND",
      "doubleSided": true,
      "emissiveFactor": [
        0.251443,
        0.298601,
        0.423437
      ],
      "name": "Material_174",
      "pbrMetallicRoughness": {
        "baseColorFactor": [
          0.0,
          0.0,
          0.0,
          0.2
        ],
        "metallicFactor": 0.2,
        "roughnessFactor": 0.1
      }
    },
    {
      "doubleSided": true,
      "emissiveFactor": [
        1.0,
        1.0,
        1.0
      ],
      "emissiveTexture": {
        "index": 9
      },
      "name": "Material_173",
      "pbrMetallicRoughness": {
        "baseColorFactor": [
          0.0,
          0.0,
          0.0,
          1.0
        ],
        "roughnessFactor": 0.0
      }
    },
    {
      "doubleSided": true,
      "name": "Material_176",
      "pbrMetallicRoughness": {
        "baseColorFactor": [
          0.0,
          0.0,
          0.0,
          1.0
        ],
        "metallicFactor": 0.6,
        "roughnessFactor": 0.1
      }
    },
    {
      "doubleSided": true,
      "emissiveFactor": [
        0.0362116,
        0.0362114,
        0.0362115
      ],
      "extensions": {
        "KHR_materials_clearcoat": {
          "clearcoatFactor": 0.03125,
          "clearcoatRoughnessFactor": 0.2
        }
      },
      "name": "Material_165",
      "pbrMetallicRoughness": {
        "baseColorFactor": [
          0.0735145,
          0.0735145,
          0.0735145,
          1.0
        ],
        "metallicRoughnessTexture": {
          "extensions": {
            "KHR_texture_transform": {
              "offset": [
                0,
                -4
              ],
              "scale": [
                5,
                5
              ]
            }
          },
          "index": 1
        }
      }
    },
    {
      "doubleSided": true,
      "emissiveFactor": [
        1.0,
        1.0,
        1.0
      ],
      "emissiveTexture": {
        "index": 10
      },
      "name": "Material_168",
      "pbrMetallicRoughness": {
        "baseColorFactor": [
          0.0,
          0.0,
          0.0,
          1.0
        ],
        "roughnessFactor": 0.2
      }
    },
    {
      "doubleSided": true,
      "extensions": {
        "KHR_materials_clearcoat": {
          "clearcoatFactor": 0.03125,
          "clearcoatRoughnessFactor": 0.2
        }
      },
      "name": "Material_164",
      "pbrMetallicRoughness": {
        "baseColorFactor": [
          0.514918,
          0.64448,
          0.745404,
          1.0
        ],
        "metallicFactor": 0.9,
        "roughnessFactor": 0.25
      }
    }
  ],
  "meshes": [
    {
      "name": "Object_0",
      "primitives": [
        {
          "attributes": {
            "NORMAL": 1,
            "POSITION": 0,
            "TEXCOORD_0": 2,
            "TEXCOORD_1": 3
          },
          "indices": 4,
          "material": 0,
          "mode": 4
        }
      ]
    },
    {
      "name": "Object_1",
      "primitives": [
        {
          "attributes": {
            "NORMAL": 6,
            "POSITION": 5,
            "TEXCOORD_0": 7,
            "TEXCOORD_1": 8,
            "TEXCOORD_2": 9
          },
          "indices": 10,
          "material": 1,
          "mode": 4
        }
      ]
    },
    {
      "name": "Object_2",
      "primitives": [
        {
          "attributes": {
            "NORMAL": 12,
            "POSITION": 11,
            "TEXCOORD_0": 13
          },
          "indices": 14,
          "material": 1,
          "mode": 4
        }
      ]
    },
    {
      "name": "Object_3",
      "primitives": [
        {
          "attributes": {
            "NORMAL": 16,
            "POSITION": 15
          },
          "indices": 17,
          "material": 2,
          "mode": 4
        }
      ]
    },
    {
      "name": "Object_4",
      "primitives": [
        {
          "attributes": {
            "NORMAL": 19,
            "POSITION": 18,
            "TEXCOORD_0": 20,
            "TEXCOORD_1": 21
          },
          "indices": 22,
          "material": 3,
          "mode": 4
        }
      ]
    },
    {
      "name": "Object_5",
      "primitives": [
        {
          "attributes": {
            "NORMAL": 24,
            "POSITION": 23
          },
          "indices": 25,
          "material": 4,
          "mode": 4
        }
      ]
    },
    {
      "name": "Object_6",
      "primitives": [
        {
          "attributes": {
            "NORMAL": 27,
            "POSITION": 26
          },
          "indices": 28,
          "material": 4,
          "mode": 4
        }
      ]
    },
    {
      "name": "Object_7",
      "primitives": [
        {
          "attributes": {
            "NORMAL": 30,
            "POSITION": 29,
            "TEXCOORD_0": 31,
            "TEXCOORD_1": 32
          },
          "indices": 33,
          "material": 5,
          "mode": 4
        }
      ]
    },
    {
      "name": "Object_8",
      "primitives": [
        {
          "attributes": {
            "NORMAL": 35,
            "POSITION": 34,
            "TEXCOORD_0": 36,
            "TEXCOORD_1": 37,
            "TEXCOORD_2": 38,
            "TEXCOORD_3": 39
          },
          "indices": 40,
          "material": 6,
          "mode": 4
        }
      ]
    },
    {
      "name": "Object_9",
      "primitives": [
        {
          "attributes": {
            "NORMAL": 42,
            "POSITION": 41,
            "TEXCOORD_0": 43,
            "TEXCOORD_1": 44,
            "TEXCOORD_2": 45
          },
          "indices": 46,
          "material": 7,
          "mode": 4
        }
      ]
    },
    {
      "name": "Object_10",
      "primitives": [
        {
          "attributes": {
            "NORMAL": 48,
            "POSITION": 47,
            "TEXCOORD_0": 49,
            "TEXCOORD_1": 50,
            "TEXCOORD_2": 51
          },
          "indices": 52,
          "material": 8,
          "mode": 4
        }
      ]
    },
    {
      "name": "Object_11",
      "primitives": [
        {
          "attributes": {
            "NORMAL": 54,
            "POSITION": 53,
            "TEXCOORD_0": 55,
            "TEXCOORD_1": 56,
            "TEXCOORD_2": 57
          },
          "indices": 58,
          "material": 1,
          "mode": 4
        }
      ]
    },
    {
      "name": "Object_12",
      "primitives": [
        {
          "attributes": {
            "NORMAL": 60,
            "POSITION": 59,
            "TEXCOORD_0": 61,
            "TEXCOORD_1": 62,
            "TEXCOORD_2": 63
          },
          "indices": 64,
          "material": 9,
          "mode": 4
        }
      ]
    },
    {
      "name": "Object_13",
      "primitives": [
        {
          "attributes": {
            "NORMAL": 66,
            "POSITION": 65,
            "TEXCOORD_0": 67,
            "TEXCOORD_1": 68,
            "TEXCOORD_2": 69
          },
          "indices": 70,
          "material": 10,
          "mode": 4
        }
      ]
    },
    {
      "name": "Object_14",
      "primitives": [
        {
          "attributes": {
            "NORMAL": 72,
            "POSITION": 71,
            "TEXCOORD_0": 73,
            "TEXCOORD_1": 74
          },
          "indices": 75,
          "material": 11,
          "mode": 4
        }
      ]
    },
    {
      "name": "Object_15",
      "primitives": [
        {
          "attributes": {
            "NORMAL": 77,
            "POSITION": 76,
            "TEXCOORD_0": 78,
            "TEXCOORD_1": 79,
            "TEXCOORD_2": 80,
            "TEXCOORD_3": 81,
            "TEXCOORD_4": 82
          },
          "indices": 83,
          "material": 12,
          "mode": 4
        }
      ]
    },
    {
      "name": "Object_16",
      "primitives": [
        {
          "attributes": {
            "NORMAL": 85,
            "POSITION": 84,
            "TEXCOORD_0": 86,
            "TEXCOORD_1": 87,
            "TEXCOORD_2": 88,
            "TEXCOORD_3": 89,
            "TEXCOORD_4": 90
          },
          "indices": 91,
          "material": 13,
          "mode": 4
        }
      ]
    },
    {
      "name": "Object_17",
      "primitives": [
        {
          "attributes": {
            "NORMAL": 93,
            "POSITION": 92,
            "TEXCOORD_0": 94,
            "TEXCOORD_1": 95,
            "TEXCOORD_2": 96,
            "TEXCOORD_3": 97,
            "TEXCOORD_4": 98
          },
          "indices": 99,
          "material": 14,
          "mode": 4
        }
      ]
    },
    {
      "name": "Object_18",
      "primitives": [
        {
          "attributes": {
            "NORMAL": 101,
            "POSITION": 100,
            "TEXCOORD_0": 102,
            "TEXCOORD_1": 103,
            "TEXCOORD_2": 104
          },
          "indices": 105,
          "material": 15,
          "mode": 4
        }
      ]
    },
    {
      "name": "Object_19",
      "primitives": [
        {
          "attributes": {
            "NORMAL": 107,
            "POSITION": 106,
            "TEXCOORD_0": 108,
            "TEXCOORD_1": 109,
            "TEXCOORD_2": 110
          },
          "indices": 111,
          "material": 16,
          "mode": 4
        }
      ]
    },
    {
      "name": "Object_20",
      "primitives": [
        {
          "attributes": {
            "NORMAL": 113,
            "POSITION": 112,
            "TEXCOORD_0": 114,
            "TEXCOORD_1": 115
          },
          "indices": 116,
          "material": 17,
          "mode": 4
        }
      ]
    },
    {
      "name": "Object_21",
      "primitives": [
        {
          "attributes": {
            "NORMAL": 118,
            "POSITION": 117,
            "TEXCOORD_0": 119,
            "TEXCOORD_1": 120,
            "TEXCOORD_2": 121
          },
          "indices": 122,
          "material": 18,
          "mode": 4
        }
      ]
    },
    {
      "name": "Object_22",
      "primitives": [
        {
          "attributes": {
            "NORMAL": 124,
            "POSITION": 123,
            "TEXCOORD_0": 125,
            "TEXCOORD_1": 126,
            "TEXCOORD_2": 127
          },
          "indices": 128,
          "material": 19,
          "mode": 4
        }
      ]
    },
    {
      "name": "Object_23",
      "primitives": [
        {
          "attributes": {
            "NORMAL": 130,
            "POSITION": 129,
            "TEXCOORD_0": 131,
            "TEXCOORD_1": 132,
            "TEXCOORD_2": 133
          },
          "indices": 134,
          "material": 20,
          "mode": 4
        }
      ]
    },
    {
      "name": "Object_24",
      "primitives": [
        {
          "attributes": {
            "NORMAL": 136,
            "POSITION": 135,
            "TEXCOORD_0": 137,
            "TEXCOORD_1": 138
          },
          "indices": 139,
          "material": 21,
          "mode": 4
        }
      ]
    },
    {
      "name": "Object_25",
      "primitives": [
        {
          "attributes": {
            "NORMAL": 141,
            "POSITION": 140,
            "TEXCOORD_0": 142,
            "TEXCOORD_1": 143,
            "TEXCOORD_2": 144
          },
          "indices": 145,
          "material": 22,
          "mode": 4
        }
      ]
    },
    {
      "name": "Object_26",
      "primitives": [
        {
          "attributes": {
            "NORMAL": 147,
            "POSITION": 146,
            "TEXCOORD_0": 148,
            "TEXCOORD_1": 149
          },
          "indices": 150,
          "material": 23,
          "mode": 4
        }
      ]
    },
    {
      "name": "Object_27",
      "primitives": [
        {
          "attributes": {
            "NORMAL": 152,
            "POSITION": 151,
            "TEXCOORD_0": 153,
            "TEXCOORD_1": 154,
            "TEXCOORD_2": 155
          },
          "indices": 156,
          "material": 24,
          "mode": 4
        }
      ]
    },
    {
      "name": "Object_28",
      "primitives": [
        {
          "attributes": {
            "NORMAL": 158,
            "POSITION": 157,
            "TEXCOORD_0": 159
          },
          "indices": 160,
          "material": 25,
          "mode": 4
        }
      ]
    },
    {
      "name": "Object_29",
      "primitives": [
        {
          "attributes": {
            "NORMAL": 162,
            "POSITION": 161,
            "TEXCOORD_0": 163
          },
          "indices": 164,
          "material": 26,
          "mode": 4
        }
      ]
    },
    {
      "name": "Object_30",
      "primitives": [
        {
          "attributes": {
            "NORMAL": 166,
            "POSITION": 165,
            "TEXCOORD_0": 167
          },
          "indices": 168,
          "material": 27,
          "mode": 4
        }
      ]
    },
    {
      "name": "Object_31",
      "primitives": [
        {
          "attributes": {
            "NORMAL": 170,
            "POSITION": 169,
            "TEXCOORD_0": 171
          },
          "indices": 172,
          "material": 28,
          "mode": 4
        }
      ]
    },
    {
      "name": "Object_32",
      "primitives": [
        {
          "attributes": {
            "NORMAL": 174,
            "POSITION": 173,
            "TEXCOORD_0": 175,
            "TEXCOORD_1": 176,
            "TEXCOORD_2": 177
          },
          "indices": 178,
          "material": 29,
          "mode": 4
        }
      ]
    },
    {
      "name": "Object_33",
      "primitives": [
        {
          "attributes": {
            "NORMAL": 180,
            "POSITION": 179,
            "TEXCOORD_0": 181,
            "TEXCOORD_1": 182
          },
          "indices": 183,
          "material": 30,
          "mode": 4
        }
      ]
    },
    {
      "name": "Object_34",
      "primitives": [
        {
          "attributes": {
            "NORMAL": 185,
            "POSITION": 184,
            "TEXCOORD_0": 186
          },
          "indices": 187,
          "material": 31,
          "mode": 4
        }
      ]
    }
  ],
  "nodes": [
    {
      "children": [
        1
      ],
      "matrix": [
        1.0,
        0.0,
        0.0,
        0.0,
        0.0,
        2.220446049250313e-16,
        -1.0,
        0.0,
        0.0,
        1.0,
        2.220446049250313e-16,
        0.0,
        0.0,
        0.0,
        0.0,
        1.0
      ],
      "name": "Sketchfab_model"
    },
    {
      "children": [
        2
      ],
      "name": "root"
    },
    {
      "children": [
        3,
        5,
        7,
        9,
        11,
        13,
        15,
        17,
        19,
        21,
        23,
        25,
        27,
        29,
        31,
        33,
        35,
        37,
        39,
        41,
        43,
        45,
        47,
        49,
        51,
        53,
        55,
        57,
        59,
        61,
        63,
        65,
        67,
        69,
        71
      ],
      "matrix": [
        1.0,
        0.0,
        0.0,
        0.0,
        0.0,
        2.220446049250313e-16,
        1.0,
        0.0,
        0.0,
        -1.0,
        2.220446049250313e-16,
        0.0,
        0.0,
        0.0,
        0.0,
        1.0
      ],
      "name": "GLTF_SceneRootNode"
    },
    {
      "children": [
        4
      ],
      "matrix": [
        1.0,
        0.0,
        0.0,
        0.0,
        0.0,
        0.0,
        1.0,
        0.0,
        0.0,
        -1.0,
        0.0,
        0.0,
        -0.015656478703022003,
        -0.4257572591304779,
        0.012037679553031921,
        1.0
      ],
      "name": "Geometry.034_0"
    },
    {
      "mesh": 0,
      "name": "Object_4"
    },
    {
      "children": [
        6
      ],
      "matrix": [
        1.0,
        0.0,
        0.0,
        0.0,
        0.0,
        0.0,
        1.0,
        0.0,
        0.0,
        -1.0,
        0.0,
        0.0,
        -0.18509669601917267,
        -0.4432279169559479,
        0.01180845033377409,
        1.0
      ],
      "name": "Geometry.033_1"
    },
    {
      "mesh": 1,
      "name": "Object_6"
    },
    {
      "children": [
        8
      ],
      "matrix": [
        1.0,
        0.0,
        0.0,
        0.0,
        0.0,
        0.0,
        1.0,
        0.0,
        0.0,
        -1.0,
        0.0,
        0.0,
        -0.1850273758172989,
        -0.4280671775341034,
        0.011808965355157852,
        1.0
      ],
      "name": "Geometry.032_2"
    },
    {
      "mesh": 2,
      "name": "Object_8"
    },
    {
      "children": [
        10
      ],
      "matrix": [
        1.0,
        0.0,
        0.0,
        0.0,
        -0.0,
        -0.9999999999999885,
        -1.5099580252808577e-07,
        0.0,
        0.0,
        1.5099580252808577e-07,
        -0.9999999999999885,
        0.0,
        -0.18502676486968994,
        -0.43070629239082336,
        0.011809365823864937,
        1.0
      ],
      "name": "Geometry.031_3"
    },
    {
      "mesh": 3,
      "name": "Object_10"
    },
    {
      "children": [
        12
      ],
      "matrix": [
        1.0,
        0.0,
        0.0,
        0.0,
        -0.0,
        -0.9999999999999885,
        -1.5099580252808577e-07,
        0.0,
        0.0,
        1.5099580252808577e-07,
        -0.9999999999999885,
        0.0,
        -0.18502463400363922,
        -0.12566760182380676,
        0.020940126851201057,
        1.0
      ],
      "name": "Geometry.030_4"
    },
    {
      "mesh": 4,
      "name": "Object_12"
    },
    {
      "children": [
        14
      ],
      "matrix": [
        1.0,
        0.0,
        0.0,
        0.0,
        -0.0,
        -0.9999999999999885,
        -1.5099580252808577e-07,
        0.0,
        0.0,
        1.5099580252808577e-07,
        -0.9999999999999885,
        0.0,
        -0.18502672016620636,
        -0.006214675027877092,
        0.012468462809920311,
        1.0
      ],
      "name": "Geometry.029_5"
    },
    {
      "mesh": 5,
      "name": "Object_14"
    },
    {
      "children": [
        16
      ],
      "matrix": [
        1.0,
        0.0,
        0.0,
        0.0,
        -0.0,
        -0.9999999999999885,
        -1.5099580252808577e-07,
        0.0,
        0.0,
        1.5099580252808577e-07,
        -0.9999999999999885,
        0.0,
        -0.18502672016620636,
        -0.006214675027877092,
        0.012468462809920311,
        1.0
      ],
      "name": "Geometry.028_6"
    },
    {
      "mesh": 6,
      "name": "Object_16"
    },
    {
      "children": [
        18
      ],
      "matrix": [
        1.0,
        0.0,
        0.0,
        0.0,
        0.0,
        0.0,
        1.0,
        0.0,
        0.0,
        -1.0,
        0.0,
        0.0,
        0.10826891660690308,
        0.22556786239147186,
        -0.011871254071593285,
        1.0
      ],
      "name": "Geometry.027_7"
    },
    {
      "mesh": 7,
      "name": "Object_18"
    },
    {
      "children": [
        20
      ],
      "matrix": [
        1.0,
        0.0,
        0.0,
        0.0,
        0.0,
        0.0,
        1.0,
        0.0,
        0.0,
        -1.0,
        0.0,
        0.0,
        -0.1856924146413803,
        0.11218859255313873,
        0.01160525158047676,
        1.0
      ],
      "name": "Geometry.026_8"
    },
    {
      "mesh": 8,
      "name": "Object_20"
    },
    {
      "children": [
        22
      ],
      "matrix": [
        1.0,
        0.0,
        0.0,
        0.0,
        0.0,
        0.0,
        1.0,
        0.0,
        0.0,
        -1.0,
        0.0,
        0.0,
        0.1681475043296814,
        0.02764913998544216,
        0.012053204700350761,
        1.0
      ],
      "name": "Geometry.025_9"
    },
    {
      "mesh": 9,
      "name": "Object_22"
    },
    {
      "children": [
        24
      ],
      "matrix": [
        1.0,
        0.0,
        0.0,
        0.0,
        0.0,
        0.0,
        1.0,
        0.0,
        0.0,
        -1.0,
        0.0,
        0.0,
        0.1681475043296814,
        0.02764913998544216,
        0.012053204700350761,
        1.0
      ],
      "name": "Geometry.024_10"
    },
    {
      "mesh": 10,
      "name": "Object_24"
    },
    {
      "children": [
        26
      ],
      "matrix": [
        1.0,
        0.0,
        0.0,
        0.0,
        0.0,
        0.0,
        1.0,
        0.0,
        0.0,
        -1.0,
        0.0,
        0.0,
        0.1681475043296814,
        0.02764913998544216,
        0.012053204700350761,
        1.0
      ],
      "name": "Geometry.023_11"
    },
    {
      "mesh": 11,
      "name": "Object_26"
    },
    {
      "children": [
        28
      ],
      "matrix": [
        1.0,
        0.0,
        0.0,
        0.0,
        0.0,
        0.0,
        1.0,
        0.0,
        0.0,
        -1.0,
        0.0,
        0.0,
        0.1681475043296814,
        0.02764913998544216,
        0.012053204700350761,
        1.0
      ],
      "name": "Geometry.022_12"
    },
    {
      "mesh": 12,
      "name": "Object_28"
    },
    {
      "children": [
        30
      ],
      "matrix": [
        1.0,
        0.0,
        0.0,
        0.0,
        0.0,
        0.0,
        1.0,
        0.0,
        0.0,
        -1.0,
        0.0,
        0.0,
        0.1681475043296814,
        0.02764913998544216,
        0.012053204700350761,
        1.0
      ],
      "name": "Geometry.021_13"
    },
    {
      "mesh": 13,
      "name": "Object_30"
    },
    {
      "children": [
        32
      ],
      "matrix": [
        -0.9999999999999991,
        3.178652220280063e-08,
        3.178652220280063e-08,
        0.0,
        -3.178652220280063e-08,
        4.440892098500626e-16,
        -0.9999999999999996,
        0.0,
        -3.178652220280063e-08,
        -0.9999999999999996,
        4.440892098500626e-16,
        0.0,
        0.01597205363214016,
        0.22123916447162628,
        -0.013570569455623627,
        1.0
      ],
      "name": "Geometry.020_14"
    },
    {
      "mesh": 14,
      "name": "Object_32"
    },
    {
      "children": [
        34
      ],
      "matrix": [
        1.0,
        0.0,
        0.0,
        0.0,
        0.0,
        0.0,
        1.0,
        0.0,
        0.0,
        -1.0,
        0.0,
        0.0,
        -0.015656478703022003,
        -0.028447797521948814,
        -0.005282070487737656,
        1.0
      ],
      "name": "Geometry.019_15"
    },
    {
      "mesh": 15,
      "name": "Object_34"
    },
    {
      "children": [
        36
      ],
      "matrix": [
        1.0,
        0.0,
        0.0,
        0.0,
        0.0,
        0.0,
        1.0,
        0.0,
        0.0,
        -1.0,
        0.0,
        0.0,
        -0.015656478703022003,
        -0.028447797521948814,
        -0.005282070487737656,
        1.0
      ],
      "name": "Geometry.018_16"
    },
    {
      "mesh": 16,
      "name": "Object_36"
    },
    {
      "children": [
        38
      ],
      "matrix": [
        1.0,
        0.0,
        0.0,
        0.0,
        0.0,
        0.0,
        1.0,
        0.0,
        0.0,
        -1.0,
        0.0,
        0.0,
        -0.015656478703022003,
        -0.028447797521948814,
        -0.005282070487737656,
        1.0
      ],
      "name": "Geometry.017_17"
    },
    {
      "mesh": 17,
      "name": "Object_38"
    },
    {
      "children": [
        40
      ],
      "matrix": [
        -0.9999999999999991,
        3.178652220280063e-08,
        3.178652220280063e-08,
        0.0,
        -3.178652220280063e-08,
        4.440892098500626e-16,
        -0.9999999999999996,
        0.0,
        -3.178652220280063e-08,
        -0.9999999999999996,
        4.440892098500626e-16,
        0.0,
        0.10827906429767609,
        0.2212391495704651,
        -0.018849795684218407,
        1.0
      ],
      "name": "Geometry.016_18"
    },
    {
      "mesh": 18,
      "name": "Object_40"
    },
    {
      "children": [
        42
      ],
      "matrix": [
        -0.9999999999999991,
        3.178652220280063e-08,
        3.178652220280063e-08,
        0.0,
        -3.178652220280063e-08,
        4.440892098500626e-16,
        -0.9999999999999996,
        0.0,
        -3.178652220280063e-08,
        -0.9999999999999996,
        4.440892098500626e-16,
        0.0,
        0.10827906429767609,
        0.22123916447162628,
        -0.026475608348846436,
        1.0
      ],
      "name": "Geometry.015_19"
    },
    {
      "mesh": 19,
      "name": "Object_42"
    },
    {
      "children": [
        44
      ],
      "matrix": [
        -0.9999999999999991,
        3.178652220280063e-08,
        3.178652220280063e-08,
        0.0,
        -3.178652220280063e-08,
        4.440892098500626e-16,
        -0.9999999999999996,
        0.0,
        -3.178652220280063e-08,
        -0.9999999999999996,
        4.440892098500626e-16,
        0.0,
        0.10827906429767609,
        0.22123916447162628,
        -0.026475608348846436,
        1.0
      ],
      "name": "Geometry.014_20"
    },
    {
      "mesh": 20,
      "name": "Object_44"
    },
    {
      "children": [
        46
      ],
      "matrix": [
        -0.9999999999999991,
        3.178652220280063e-08,
        3.178652220280063e-08,
        0.0,
        -3.178652220280063e-08,
        4.440892098500626e-16,
        -0.9999999999999996,
        0.0,
        -3.178652220280063e-08,
        -0.9999999999999996,
        4.440892098500626e-16,
        0.0,
        0.10827906429767609,
        0.2212391495704651,
        -0.027891691774129868,
        1.0
      ],
      "name": "Geometry.013_21"
    },
    {
      "mesh": 21,
      "name": "Object_46"
    },
    {
      "children": [
        48
      ],
      "matrix": [
        -0.9999999999999991,
        3.178652220280063e-08,
        3.178652220280063e-08,
        0.0,
        -3.178652220280063e-08,
        4.440892098500626e-16,
        -0.9999999999999996,
        0.0,
        -3.178652220280063e-08,
        -0.9999999999999996,
        4.440892098500626e-16,
        0.0,
        0.10827906429767609,
        0.2212391495704651,
        -0.027891691774129868,
        1.0
      ],
      "name": "Geometry.012_22"
    },
    {
      "mesh": 22,
      "name": "Object_48"
    },
    {
      "children": [
        50
      ],
      "matrix": [
        -0.9999999999999991,
        3.178652220280063e-08,
        3.178652220280063e-08,
        0.0,
        -3.178652220280063e-08,
        4.440892098500626e-16,
        -0.9999999999999996,
        0.0,
        -3.178652220280063e-08,
        -0.9999999999999996,
        4.440892098500626e-16,
        0.0,
        0.10827906429767609,
        0.22123916447162628,
        -0.026475608348846436,
        1.0
      ],
      "name": "Geometry.011_23"
    },
    {
      "mesh": 23,
      "name": "Object_50"
    },
    {
      "children": [
        52
      ],
      "matrix": [
        1.0,
        0.0,
        0.0,
        0.0,
        0.0,
        0.0,
        1.0,
        0.0,
        0.0,
        -1.0,
        0.0,
        0.0,
        -0.015656478703022003,
        -0.4257572591304779,
        0.012037679553031921,
        1.0
      ],
      "name": "Geometry.010_24"
    },
    {
      "mesh": 24,
      "name": "Object_52"
    },
    {
      "children": [
        54
      ],
      "matrix": [
        -0.9999999999999991,
        3.178652220280063e-08,
        3.178652220280063e-08,
        0.0,
        -3.178652220280063e-08,
        4.440892098500626e-16,
        -0.9999999999999996,
        0.0,
        -3.178652220280063e-08,
        -0.9999999999999996,
        4.440892098500626e-16,
        0.0,
        0.01597205363214016,
        0.22123916447162628,
        -0.013570569455623627,
        1.0
      ],
      "name": "Geometry.009_25"
    },
    {
      "mesh": 25,
      "name": "Object_54"
    },
    {
      "children": [
        56
      ],
      "matrix": [
        1.0,
        0.0,
        0.0,
        0.0,
        0.0,
        0.0,
        1.0,
        0.0,
        0.0,
        -1.0,
        0.0,
        0.0,
        -0.1856924146413803,
        0.11218859255313873,
        0.01160525158047676,
        1.0
      ],
      "name": "Geometry.008_26"
    },
    {
      "mesh": 26,
      "name": "Object_56"
    },
    {
      "children": [
        58
      ],
      "matrix": [
        -0.9999999999999991,
        3.178652220280063e-08,
        3.178652220280063e-08,
        0.0,
        -3.178652220280063e-08,
        4.440892098500626e-16,
        -0.9999999999999996,
        0.0,
        -3.178652220280063e-08,
        -0.9999999999999996,
        4.440892098500626e-16,
        0.0,
        0.01597205363214016,
        0.22123916447162628,
        -0.013570569455623627,
        1.0
      ],
      "name": "Geometry.007_27"
    },
    {
      "mesh": 27,
      "name": "Object_58"
    },
    {
      "children": [
        60
      ],
      "matrix": [
        1.0,
        0.0,
        0.0,
        0.0,
        0.0,
        0.0,
        1.0,
        0.0,
        0.0,
        -1.0,
        0.0,
        0.0,
        -0.015656478703022003,
        -0.02859429456293583,
        -0.005354149732738733,
        1.0
      ],
      "name": "Geometry.006_28"
    },
    {
      "mesh": 28,
      "name": "Object_60"
    },
    {
      "children": [
        62
      ],
      "matrix": [
        1.0,
        0.0,
        0.0,
        0.0,
        0.0,
        0.0,
        1.0,
        0.0,
        0.0,
        -1.0,
        0.0,
        0.0,
        -0.015656478703022003,
        -0.028447797521948814,
        -0.005282070487737656,
        1.0
      ],
      "name": "Geometry.005_29"
    },
    {
      "mesh": 29,
      "name": "Object_62"
    },
    {
      "children": [
        64
      ],
      "matrix": [
        1.0,
        0.0,
        0.0,
        0.0,
        0.0,
        0.0,
        1.0,
        0.0,
        0.0,
        -1.0,
        0.0,
        0.0,
        -0.015656478703022003,
        -0.028447793796658516,
        -0.003484940156340599,
        1.0
      ],
      "name": "Geometry.004_30"
    },
    {
      "mesh": 30,
      "name": "Object_64"
    },
    {
      "children": [
        66
      ],
      "matrix": [
        1.0,
        0.0,
        0.0,
        0.0,
        0.0,
        0.0,
        1.0,
        0.0,
        0.0,
        -1.0,
        0.0,
        0.0,
        -0.015656478703022003,
        -0.028447793796658516,
        -0.003484940156340599,
        1.0
      ],
      "name": "Geometry.003_31"
    },
    {
      "mesh": 31,
      "name": "Object_66"
    },
    {
      "children": [
        68
      ],
      "matrix": [
        -0.9999999999999991,
        3.178652220280063e-08,
        3.178652220280063e-08,
        0.0,
        -3.178652220280063e-08,
        4.440892098500626e-16,
        -0.9999999999999996,
        0.0,
        -3.178652220280063e-08,
        -0.9999999999999996,
        4.440892098500626e-16,
        0.0,
        0.01597205363214016,
        0.22123916447162628,
        -0.013570569455623627,
        1.0
      ],
      "name": "Geometry.002_32"
    },
    {
      "mesh": 32,
      "name": "Object_68"
    },
    {
      "children": [
        70
      ],
      "matrix": [
        -0.9999999999999991,
        3.178652220280063e-08,
        3.178652220280063e-08,
        0.0,
        -3.178652220280063e-08,
        4.440892098500626e-16,
        -0.9999999999999996,
        0.0,
        -3.178652220280063e-08,
        -0.9999999999999996,
        4.440892098500626e-16,
        0.0,
        0.10827906429767609,
        0.22123916447162628,
        -0.029061567038297653,
        1.0
      ],
      "name": "Geometry.001_33"
    },
    {
      "mesh": 33,
      "name": "Object_70"
    },
    {
      "children": [
        72
      ],
      "matrix": [
        1.0,
        0.0,
        -0.0,
        0.0,
        -0.0,
        -0.999999999999841,
        -5.642599489874107e-07,
        0.0,
        0.0,
        5.642599489874107e-07,
        -0.999999999999841,
        0.0,
        -0.015582829713821411,
        -0.28973379731178284,
        -0.008321132510900497,
        1.0
      ],
      "name": "Geometry_34"
    },
    {
      "mesh": 34,
      "name": "Object_72"
    }
  ],
  "samplers": [
    {
      "magFilter": 9729,
      "minFilter": 9987,
      "wrapS": 10497,
      "wrapT": 10497
    }
  ],
  "scene": 0,
  "scenes": [
    {
      "name": "Sketchfab_Scene",
      "nodes": [
        0
      ]
    }
  ],
  "textures": [
    {
      "sampler": 0,
      "source": 0
    },
    {
      "sampler": 0,
      "source": 1
    },
    {
      "sampler": 0,
      "source": 2
    },
    {
      "sampler": 0,
      "source": 3
    },
    {
      "sampler": 0,
      "source": 4
    },
    {
      "sampler": 0,
      "source": 5
    },
    {
      "sampler": 0,
      "source": 6
    },
    {
      "sampler": 0,
      "source": 7
    },
    {
      "sampler": 0,
      "source": 8
    },
    {
      "sampler": 0,
      "source": 9
    },
    {
      "sampler": 0,
      "source": 10
    }
  ]
}
